<svg xmlns="http://www.w3.org/2000/svg" viewBox="0 0 379.24 269.96"><defs><style>.cls-1{fill:blue;}</style></defs><g id="Layer_2" data-name="Layer 2"><g id="Layer_1-2" data-name="Layer 1"><path class="cls-1" d="M269.29,70.45A5.06,5.06,0,0,1,271.1,67a16.84,16.84,0,0,1,2.58-2.14,6.09,6.09,0,0,0,2-1.66l2.18-2.55,2.27-2.55a5.8,5.8,0,0,1,2.41-1.65q3-3.67,5.13-5.91l3.53-3.66c1-.95,1.65-1.69,2.1-2.23A2.63,2.63,0,0,0,294,43a4.91,4.91,0,0,1,1.59-1.51A28.51,28.51,0,0,0,299,38.43a55.91,55.91,0,0,0,4.55-5.51,59.68,59.68,0,0,0,5.12-8.6,8.74,8.74,0,0,0,2.93-2.86,17.85,17.85,0,0,0,2.07-4.35,31.1,31.1,0,0,0,1.2-5.27,48.73,48.73,0,0,0,.47-5.46,2.72,2.72,0,0,0-.86-1.65c-.58-.67-1.08-1-1.52-1a3.78,3.78,0,0,1-1.82,1A11.69,11.69,0,0,1,309,5a15.71,15.71,0,0,0-2.21.27,4.75,4.75,0,0,0-1.9.85,11.18,11.18,0,0,1-2.64,1.32q-1.81.69-3.63,1.53a16.78,16.78,0,0,0-3.32,2,3.78,3.78,0,0,0-1.55,3c0,.54.46,1.18,1.42,1.91a2.87,2.87,0,0,1,1.41,2.24q0,2-2.52,6t-6,8.82a16.13,16.13,0,0,1-2.3,3.86c-1.07,1.38-1.94,2.45-2.61,3.19a25.79,25.79,0,0,0-2.86,3.11c-.67.91-1.24,1.71-1.69,2.4s-.85,1.26-1.19,1.69a4.58,4.58,0,0,1-1.33,1.1A22.74,22.74,0,0,0,272.47,52L266,59.35q-3.53,3.9-6.87,7.08c-2.23,2.12-3.84,3.16-4.82,3.14a46.42,46.42,0,0,1,2.23-13.24,69.12,69.12,0,0,0,2.86-12.57,31,31,0,0,1,.9-3.24l1.51-4.78c.53-1.67,1-3.24,1.43-4.69a14.65,14.65,0,0,0,.65-3.17,11.94,11.94,0,0,1,1-4.13,12.44,12.44,0,0,0,1-4.3,6.1,6.1,0,0,0-.51-2.46,14.23,14.23,0,0,0-1.24-2.4,9.94,9.94,0,0,0-1.42-1.75c-.48-.45-.83-.68-1.05-.68a2.16,2.16,0,0,0-1.9,1.09,3.91,3.91,0,0,1-2.9,1.39,11.35,11.35,0,0,0-2.82,1.81q-2.16,1.65-4.67,3.87a4.67,4.67,0,0,0-.7,1.86q-.36,1.55-.66,3.57c-.2,1.36-.38,2.77-.52,4.23s-.24,2.74-.27,3.83A44.18,44.18,0,0,0,246,39.57l-1,6.5-.88,5.61a12.47,12.47,0,0,1-.74,3.08c-.15,1.52-.38,3.17-.7,5a36.51,36.51,0,0,1-.83,3.81q-.15,5.55-.12,7.59a9.8,9.8,0,0,0,.33,2.86,3.15,3.15,0,0,1-.86,1.69,3.21,3.21,0,0,0-.86,1.69,28.14,28.14,0,0,1-.33,3.34c-.2,1.36-.43,2.79-.68,4.31s-.49,3-.69,4.39a33,33,0,0,0-.34,3.58c-.37,1.84-.7,3.87-1,6.09s-.53,4.37-.74,6.43-.4,3.9-.56,5.53a23.91,23.91,0,0,1-.4,3.09c-.08,2.83.07,4.65.42,5.48s.81,1.24,1.36,1.26a3.63,3.63,0,0,0,1.39-.21,3.67,3.67,0,0,1,1.39-.21,3,3,0,0,1,1.3.28,2.52,2.52,0,0,0,1.14.27,6.54,6.54,0,0,0,2.29-.51c1-.35,1.5-.91,1.52-1.67a4.94,4.94,0,0,0-.13-1.23,3.77,3.77,0,0,1-.14-1.06c0-.55.12-1.55.32-3s.41-3.17.63-5.13l.65-6q.31-3.09.39-5.7.66-.47,1.14-3.15c.32-1.79.62-3.66.88-5.61a43.13,43.13,0,0,1,1-5.27c.42-1.57.9-2.35,1.45-2.33A14.39,14.39,0,0,1,254.36,83l3.35,6.13c1.24,2.26,2.47,4.36,3.67,6.3s2.07,3,2.6,3.25a21.28,21.28,0,0,0,3,5.3,16.22,16.22,0,0,1,2.72,5,10.6,10.6,0,0,1,3.42,3.67q1.32,2.32,2.81,4.65a15.45,15.45,0,0,0,3.73,4,10.12,10.12,0,0,0,6,1.79,19.51,19.51,0,0,0,2.62-.09,9,9,0,0,0,2.3-.6,24.76,24.76,0,0,0,2.72-1.31l4.06-2.26a16,16,0,0,1,4-5,15.59,15.59,0,0,0,3.1-3.18,11.12,11.12,0,0,0,5-3,6.62,6.62,0,0,0,1.58-4.12,5.66,5.66,0,0,0-.26-2.37,1.23,1.23,0,0,0-1.13-.61,4.44,4.44,0,0,0-2.64.91,11.23,11.23,0,0,0-2,1.75,15.89,15.89,0,0,0-2.73,1.48l-3.32,2.11a30.53,30.53,0,0,1-3.39,1.87,6.7,6.7,0,0,1-3,.74,9.41,9.41,0,0,1-2.28-.3,4.84,4.84,0,0,1-2-1.28,21,21,0,0,1-2.38-2.92c-.89-1.27-2-3-3.37-5.23-.43,0-1.17-1-2.2-3.07s-2.14-4.38-3.33-7-2.25-5.22-3.22-7.75-1.6-4.29-1.9-5.27a12.35,12.35,0,0,0-1.49-2.49,5.91,5.91,0,0,1-1.13-3.62m-47,38.1a2.55,2.55,0,0,0-.3-1.15,1.61,1.61,0,0,0-1.28-.85,3,3,0,0,1-1,.87c-.33.15-.62.72-.86,1.69a13.17,13.17,0,0,1-4,1,9.78,9.78,0,0,1-4.72,2.65,14.86,14.86,0,0,0-5.2,2.47,27.7,27.7,0,0,0-5.57.92,19,19,0,0,1-5.73.58,15.82,15.82,0,0,1-6.81-1.56,24.89,24.89,0,0,1-5.06-3.32,30.73,30.73,0,0,1-3.73-3.77,12.47,12.47,0,0,0-3-2.77,39.12,39.12,0,0,0-2-6.09q-1.08-2.48-2-4.21c-.62-1.16-1.13-2.18-1.55-3.06a6.22,6.22,0,0,1-.58-2.79,12.66,12.66,0,0,1,.31-2.28,14.31,14.31,0,0,0,.31-2.6,24.07,24.07,0,0,0-.09-2.94,6.54,6.54,0,0,0-.9-2.8,11.87,11.87,0,0,0,.89-3c.14-.92.24-1.9.32-2.93s.2-2.12.33-3.26a20.09,20.09,0,0,1,1.09-4.13,20,20,0,0,0,.91-3.56,28.68,28.68,0,0,1,.75-3.49q.54-2,1.68-5.18t3.73-8.47a44.56,44.56,0,0,1,2.23-4c.68-1.07,1.33-2,1.95-2.81l1.85-2.31a19.3,19.3,0,0,0,1.78-2.57,8.9,8.9,0,0,1,1.78-2.24c.61-.53,1.25-1,1.91-1.5l2.17-1.57a22.87,22.87,0,0,0,2.67-2.46,45.85,45.85,0,0,1,7.74-2.57,29,29,0,0,1,7.36-.79,12.94,12.94,0,0,1,2.77.4A7,7,0,0,1,215,23.34a5.32,5.32,0,0,0,1.85,1.27,10.43,10.43,0,0,1,2,1.11,6.53,6.53,0,0,1,1.59,1.6,4.21,4.21,0,0,1,.58,2.54,11.17,11.17,0,0,1-.58,3.82,9.51,9.51,0,0,1-1.29,2.17,26,26,0,0,1-1.84,2.07,12.11,12.11,0,0,0-2.13,3.37,17.07,17.07,0,0,1-1.78,5.59A13.45,13.45,0,0,0,212,52.8a4.53,4.53,0,0,1-.55,2.18,8.48,8.48,0,0,0-.73,3.17,14.66,14.66,0,0,0-1.09,4.05c-.26,1.73-.47,3.49-.63,5.29s-.25,3.42-.29,4.88l-.07,2.69a2.1,2.1,0,0,0,.45,1.4,2.84,2.84,0,0,0,2.11.63c.76,0,1.69,0,2.78-.09a12.92,12.92,0,0,0,3.19-.65,9.11,9.11,0,0,0,2.9-1.64,5.87,5.87,0,0,0,1.88-3,14.8,14.8,0,0,0,.61-1.7c.3-.92.65-1.86,1.06-2.83s.81-1.88,1.21-2.74.77-1.34,1.1-1.44c.38-2,.75-3.54,1.1-4.78a17.29,17.29,0,0,1,1.06-2.91c.34-.7.6-1.27.78-1.7a3.74,3.74,0,0,0,.28-1.29,15.7,15.7,0,0,1,.39-2.61c.25-1.19.56-2.48.92-3.89a17.31,17.31,0,0,0,1.1-4.46,12.84,12.84,0,0,1,.74-3.49,9.67,9.67,0,0,1-.27-2.29l0-2a24.62,24.62,0,0,1,.24-2.94,17.59,17.59,0,0,0,.23-2.27,17.31,17.31,0,0,0-.16-3.19c-.15-.82-.29-1.59-.43-2.3l-.44-2.05a8.94,8.94,0,0,1-.18-2.29,7.79,7.79,0,0,0-2.54-5.86,9.72,9.72,0,0,0-5.39-3,10.25,10.25,0,0,0-3.56-1.32,64.24,64.24,0,0,0-7-.43,19.83,19.83,0,0,0-4,.39,48.06,48.06,0,0,0-4.76,1.1,39.64,39.64,0,0,0-4.28,1.43,8.64,8.64,0,0,0-2.4,1.25,5.48,5.48,0,0,1-1.83,1.17,20.1,20.1,0,0,0-2.39,1.16c-.94.52-2.08,1.23-3.4,2.12a26.83,26.83,0,0,0-4.52,4,18.43,18.43,0,0,0-4.47,2.74,5.47,5.47,0,0,0-2.21,3.12,18.68,18.68,0,0,0-6.53,6.6,86.36,86.36,0,0,1-7.11,9.69,19.54,19.54,0,0,1-1.23,3.15,21,21,0,0,1-1.53,2.57,17.87,17.87,0,0,0-1.54,2.65,20.85,20.85,0,0,0-1.24,3.56,21.37,21.37,0,0,0-1.93,5.25c-.72,2.65-1.39,5.43-2,8.36l-1.68,8.11-.94,4.71c0,1,0,1.74,0,2.28a3.42,3.42,0,0,0,.85,1.82,3.75,3.75,0,0,0-.28,1.22c-.07.59-.11,1.25-.13,1.95l0,2,0,1.31a25.06,25.06,0,0,0,.39,4,13.65,13.65,0,0,0,1.19,4.2,33.08,33.08,0,0,0,4.64,12.93,29.72,29.72,0,0,0,10.76,9.66,12,12,0,0,1,3.65.91L177.3,125a31.93,31.93,0,0,0,4.53,1.59,28.16,28.16,0,0,0,6.66.83,30.23,30.23,0,0,0,7.12-.55,34.13,34.13,0,0,0,5.67-1.73q2.64-1.06,5.29-2.39a60.9,60.9,0,0,1,5.94-2.54,20.43,20.43,0,0,1,3-2.61c1.11-.79,2.17-1.6,3.17-2.45a13.22,13.22,0,0,0,2.52-2.79,7,7,0,0,0,1.08-3.8M88.7,68.33a7.49,7.49,0,0,1,.56-2.59q.1-3.91.09-6.37c0-1.63,0-2.88-.07-3.75s-.07-1.52-.11-2a9.66,9.66,0,0,1,0-1.14,5.32,5.32,0,0,1,.37-1.87c.24-.59.5-1.4.8-2.43a33.25,33.25,0,0,0,.84-4,53.46,53.46,0,0,0,.5-6.52A21.87,21.87,0,0,1,92,34.4c.25-1.36.53-2.76.84-4.22s.6-2.9.85-4.31a23.75,23.75,0,0,0,.42-3.41,11.25,11.25,0,0,0-1.49-5.67,5.61,5.61,0,0,0-4-3.29,5.94,5.94,0,0,1-1.25-2.07l-.84-2.31a8.49,8.49,0,0,0-.85-1.81,1.64,1.64,0,0,0-1.45-.78A14.71,14.71,0,0,0,81,9.06,9.44,9.44,0,0,0,79.06,13,40.75,40.75,0,0,0,78,20.32Q77.6,25,77.23,32.78a17.58,17.58,0,0,0-.89,3.08,44.75,44.75,0,0,0-.51,6.68l-.3,11.58q-.15,5.87-.06,8.48A14.43,14.43,0,0,0,76,66.53c-.12.43-.27,1.16-.46,2.19a23.09,23.09,0,0,0-.34,3.67,6.42,6.42,0,0,0,.34,2.37,8.07,8.07,0,0,1,.33,2.87,7,7,0,0,1-.2,1.54,11.5,11.5,0,0,0-.22,2.2,8.2,8.2,0,0,0,.27,2.29,2.16,2.16,0,0,0,.94,1.49l-.11,4.08a36.58,36.58,0,0,0,.2,4.9c.4,1.21.85,2.91,1.33,5.09s.83,3.89,1,5.09a31.18,31.18,0,0,1,1.54,3.55,43.51,43.51,0,0,0,2.24,4.87,17.18,17.18,0,0,0,3.23,4.33A7,7,0,0,0,91,119a31.43,31.43,0,0,0,8-.85,14.69,14.69,0,0,0,6.44-3l5.1-4.85a34,34,0,0,0,2.85-2.94,9.19,9.19,0,0,0,1.19-1.68,8.33,8.33,0,0,0,.44-1.22,9.41,9.41,0,0,0,2.1-2.47q.94-1.53,1.71-3a20.54,20.54,0,0,1,1.54-2.49,2,2,0,0,1,1.57-1,.76.76,0,0,1,.57.26c.16.16.23.68.2,1.55a27.79,27.79,0,0,1-1,5.28,45.24,45.24,0,0,0-1.16,10,2,2,0,0,1-.27,1.06,2.47,2.47,0,0,0,.09,2.45,1.66,1.66,0,0,1,.38,1.23,2.86,2.86,0,0,1-.36,1.3,3.66,3.66,0,0,0-.37,1.62,3.75,3.75,0,0,1,.45,1.48,8.72,8.72,0,0,0,.44,1.81A3.62,3.62,0,0,0,122,125a3.56,3.56,0,0,0,2.26.72,6.74,6.74,0,0,0,5.2-2.07,20.22,20.22,0,0,1,3.92-3.24q.72-2.6,2-3.3a2.51,2.51,0,0,0,1.37-2.33,1.77,1.77,0,0,0-.38-1.15c-.26-.33-.58-.69-.95-1.08a5.71,5.71,0,0,1-.94-1.33,4.64,4.64,0,0,1-.35-2.22q.1-4.23.24-6.35c.1-1.42.21-2.61.34-3.58A26.71,26.71,0,0,0,136.82,91a14.93,14.93,0,0,1,1-5.19,27.82,27.82,0,0,1,.82-6l1.63-6.32L142.21,66q1-4.05,1.79-9.42a4.16,4.16,0,0,0,1.2-2.17q.54-1.7,1.17-4l1.36-5.18a52.59,52.59,0,0,1,1.78-5.59,39.3,39.3,0,0,0,2-7.78,61.21,61.21,0,0,1,1.32-7,51.5,51.5,0,0,1,.88-8.63,37.74,37.74,0,0,0,.82-6.5C154.32,5.54,154,3,153.59,2s-1-1.49-1.75-1.51l-4.46,2A13.8,13.8,0,0,0,144.81,4a3.28,3.28,0,0,0-1.18,1.52,13.27,13.27,0,0,0-.46,1.94c-.35,1-.76,2-1.22,3.07a16,16,0,0,0-.95,4.87l-1.85,2.24c-.48,1.83-.93,3.32-1.34,4.45s-.79,2.13-1.14,3-.64,1.67-.88,2.42a9.29,9.29,0,0,0-.39,2.6,23.27,23.27,0,0,1-1.83,7.46A68.68,68.68,0,0,0,130.44,51Q129,54.38,128,57.86t-1.88,6.48l-1.36,5.1a6.32,6.32,0,0,1-1,2.58,6.73,6.73,0,0,0-1.45,2.58l-1.08,3.56q-.61,2.1-1.76,5A60.34,60.34,0,0,1,116,90.1a11.46,11.46,0,0,0-3,3.51c-.86,1.5-1.76,3-2.73,4.5a16.79,16.79,0,0,1-3.45,3.91A7.14,7.14,0,0,1,102,103.6a4.86,4.86,0,0,1-3.15-1.22L96,100a11.47,11.47,0,0,0-2.18-4,11.78,11.78,0,0,1-2.18-4,12.77,12.77,0,0,0-.47-3.93q-.53-1.8-1.11-4.35c-.39-1.7-.74-3.74-1.06-6.15a60.91,60.91,0,0,1-.33-9.31M65.5,57c0-1.31-1-2.42-3.09-3.35A22.63,22.63,0,0,0,54,52.09q-4.24.21-7.92.44a26.48,26.48,0,0,0-8,1.91,26.42,26.42,0,0,0-5.4.6c-1.42.34-2.65.69-3.7,1s-1.95.69-2.72,1a6.39,6.39,0,0,1-2.62.42,20.79,20.79,0,0,1,.43-4c.25-1,.49-1.95.73-2.76l.71-2.43a11.76,11.76,0,0,0,.41-3c.94-2.47,1.67-4.63,2.21-6.47s.93-3.43,1.19-4.78.47-2.49.66-3.41a24.8,24.8,0,0,1,.63-2.51,15,15,0,0,0,1.69-2.24,6.91,6.91,0,0,0,.89-2.75A8.63,8.63,0,0,1,36.7,19.4,8.49,8.49,0,0,1,41.39,18a26.42,26.42,0,0,1,5.24-.6q2.44,0,4.41,0c1.3,0,2.39.09,3.25.17a20.09,20.09,0,0,1,2.52.39c.81.19,1.65.43,2.51.72l3.24,1.15A9,9,0,0,0,66,15a39.28,39.28,0,0,0,.77-7.81c.09-3.15-.46-5.13-1.64-5.92S62,.08,59.32,0a19.58,19.58,0,0,0-2.86.17A17.08,17.08,0,0,1,53.6.34c-1,0-1.82-.07-2.52-.14S49.42.07,48.23,0a3.77,3.77,0,0,0-2.55.51c-.39.37-.64.55-.74.55A10.5,10.5,0,0,1,43.23.89,9.48,9.48,0,0,0,41.36.68,9.21,9.21,0,0,0,35.85,2a24.87,24.87,0,0,1-5.37,2.63,19.81,19.81,0,0,0-2.67,2.3,19.18,19.18,0,0,0-2.36,2.8,15.89,15.89,0,0,0-2.67,2.45q-1.52,1.68-3,3.6L17.29,19.3A9.46,9.46,0,0,0,16,21.55c-.36,1-.74,2.13-1.16,3.48s-.77,2.67-1.08,4-.58,2.54-.83,3.73a17,17,0,0,0-.4,2.93A46.18,46.18,0,0,1,12,41.85c-.33,1.95-.7,3.81-1.13,5.6S10,51,9.72,52.88a39,39,0,0,0-.56,5.7,5.34,5.34,0,0,1-1.48,3.63,37.93,37.93,0,0,1-3.1,2.94,34.06,34.06,0,0,0-3.1,3A5.64,5.64,0,0,0,0,71.89c0,.76.46,1.15,1.44,1.18a8.36,8.36,0,0,0,2.95-.42,6.33,6.33,0,0,1,2-.44c.54,0,.81.24.79.68a14.9,14.9,0,0,1-.31,2.68,16.58,16.58,0,0,0-.32,2.85A8.71,8.71,0,0,0,7.08,82,23.64,23.64,0,0,0,6,87.54q-.42,3.75-.48,6a9.76,9.76,0,0,0,.11,2,5.47,5.47,0,0,1,.13,1.23,15.39,15.39,0,0,1-.56,2.92,24.34,24.34,0,0,0-.64,5.37c0,.54,0,1.12,0,1.71a3,3,0,0,0,.53,1.57A9,9,0,0,0,4.44,111c-.07.87-.13,2-.16,3.26,0,3.48.11,6.18.27,8.09a13.6,13.6,0,0,0,1,4.35,3.76,3.76,0,0,0,2,2,17.21,17.21,0,0,0,3.4.9q.16,0,.75-.63c.39-.43.79-.88,1.18-1.36s.81-1,1.26-1.43.78-.83,1-1q.09-3.59,0-7.18t0-7.83c.22-.1.4-.7.54-1.78s.28-2.33.42-3.74.32-2.77.52-4.07a12.86,12.86,0,0,1,.64-2.76q.11-3.75.43-7.16a29.94,29.94,0,0,1,1.23-6.17q.27-4.08.67-7a29.67,29.67,0,0,1,1.29-5.52,4,4,0,0,1,2.5-2,12.24,12.24,0,0,1,4.75-.69,8,8,0,0,1,2.22-.68c1.15-.24,2.46-.48,3.93-.71s3-.42,4.42-.54a36.46,36.46,0,0,1,3.84-.15,12.17,12.17,0,0,0,4.34-.37,5.87,5.87,0,0,1,2.54-.42,14.41,14.41,0,0,1,5.51,1.36,19.18,19.18,0,0,0,7.31,1.42c.76,0,1.34-.51,1.75-1.59a17.25,17.25,0,0,0,.92-3.73c.2-1.41.34-2.76.43-4.06s.14-2.23.15-2.77"/><path class="cls-1" d="M293.54,194.7a10,10,0,0,1,.65-3.48c0-3.48,0-6.3-.11-8.48s-.14-3.84-.22-5-.14-2-.21-2.61a11.17,11.17,0,0,1-.11-1.52,7.32,7.32,0,0,1,.43-2.51c.29-.79.62-1.88,1-3.26a45.37,45.37,0,0,0,1-5.33,68.61,68.61,0,0,0,.44-8.7,29.35,29.35,0,0,1,.43-4.46q.43-2.72,1-5.65t1-5.76a31.43,31.43,0,0,0,.43-4.57,15.06,15.06,0,0,0-2.17-7.51c-1.45-2.53-3.26-4-5.44-4.24a8.06,8.06,0,0,1-1.74-2.72l-1.2-3a12.37,12.37,0,0,0-1.19-2.39,2.19,2.19,0,0,0-2-1,19.2,19.2,0,0,0-4.35,3.48,12.62,12.62,0,0,0-2.39,5.33,56,56,0,0,0-1.2,9.78q-.33,6.21-.54,16.64a23.7,23.7,0,0,0-1.09,4.14,59.5,59.5,0,0,0-.43,8.91v15.45q0,7.83.21,11.31a19.6,19.6,0,0,0,.87,5.22c-.14.58-.32,1.56-.54,2.93a31.55,31.55,0,0,0-.33,4.9,8.54,8.54,0,0,0,.55,3.15,10.93,10.93,0,0,1,.54,3.81,9.16,9.16,0,0,1-.22,2.06,15.2,15.2,0,0,0-.21,2.94,11.12,11.12,0,0,0,.43,3.05,2.93,2.93,0,0,0,1.31,1.95V223a49.39,49.39,0,0,0,.43,6.53q.87,2.38,2,6.74T282,243a43.88,43.88,0,0,1,2.18,4.68,58.21,58.21,0,0,0,3.15,6.41,22.93,22.93,0,0,0,4.46,5.66,9.3,9.3,0,0,0,6.52,2.39A42.35,42.35,0,0,0,309,260.72a19.42,19.42,0,0,0,8.48-4.24l6.64-6.64a50.43,50.43,0,0,0,3.7-4,12.56,12.56,0,0,0,1.52-2.29,9.74,9.74,0,0,0,.54-1.63,12.79,12.79,0,0,0,2.72-3.37c.8-1.38,1.52-2.72,2.18-4a27.2,27.2,0,0,1,1.95-3.37,2.66,2.66,0,0,1,2.07-1.42,1,1,0,0,1,.76.33,3.68,3.68,0,0,1,.33,2.07,37.14,37.14,0,0,1-1.2,7.06,60.52,60.52,0,0,0-1.2,13.38,2.68,2.68,0,0,1-.32,1.41,2.74,2.74,0,0,0-.33,1.42,2.53,2.53,0,0,0,.55,1.85,2.21,2.21,0,0,1,.54,1.63,3.87,3.87,0,0,1-.44,1.74,4.82,4.82,0,0,0-.43,2.17,5.08,5.08,0,0,1,.65,2,11.74,11.74,0,0,0,.65,2.39,4.57,4.57,0,0,0,4.57,2.83,9,9,0,0,0,6.85-2.93,26.78,26.78,0,0,1,5.12-4.46q.87-3.48,2.61-4.46a3.35,3.35,0,0,0,1.74-3.16,2.33,2.33,0,0,0-.55-1.52c-.36-.43-.8-.91-1.3-1.41a7.79,7.79,0,0,1-1.31-1.74,6.28,6.28,0,0,1-.54-2.94c0-3.77,0-6.6.11-8.48s.18-3.48.32-4.79a35.29,35.29,0,0,0,2.5-10.87,20,20,0,0,1,1.2-7,37,37,0,0,1,.87-8.05l2-8.48,2.28-10q1.2-5.43,2.07-12.61a5.69,5.69,0,0,0,1.52-2.94c.44-1.52.91-3.34,1.41-5.44l1.64-7a67.61,67.61,0,0,1,2.17-7.5A51.66,51.66,0,0,0,376,143.81a82.48,82.48,0,0,1,1.53-9.36,67.76,67.76,0,0,1,.87-11.52,51.81,51.81,0,0,0,.87-8.7q-.66-8.26-1.53-10.23c-.58-1.3-1.37-2-2.39-2l-5.87,2.82a18.61,18.61,0,0,0-3.37,2.07,4.37,4.37,0,0,0-1.53,2.07,19.71,19.71,0,0,0-.54,2.61c-.43,1.3-.94,2.68-1.52,4.13a21.57,21.57,0,0,0-1.09,6.52l-2.39,3c-.58,2.46-1.13,4.46-1.63,6s-1,2.86-1.42,4-.79,2.25-1.08,3.27a12.63,12.63,0,0,0-.44,3.48,31.17,31.17,0,0,1-2.17,10q-2.19,6.09-3.7,18.06-1.74,4.56-3.05,9.24t-2.28,8.7l-1.63,6.85a8.39,8.39,0,0,1-1.31,3.48,9.14,9.14,0,0,0-1.85,3.48l-1.3,4.79c-.51,1.88-1.23,4.13-2.18,6.74a77.78,77.78,0,0,1-4.24,9.35,15.11,15.11,0,0,0-3.8,4.79q-1.64,3-3.48,6.09A23,23,0,0,1,319,239a9.57,9.57,0,0,1-6.53,2.28,6.51,6.51,0,0,1-4.24-1.52l-3.81-3a15.48,15.48,0,0,0-3-5.22,15.5,15.5,0,0,1-3.05-5.22,17.11,17.11,0,0,0-.76-5.22q-.76-2.39-1.63-5.76t-1.63-8.16a81.44,81.44,0,0,1-.76-12.4M173.26,206q0-10.44.65-17.07a105.39,105.39,0,0,1,1.74-11.64q1.09-5,2.29-9.57t2.28-10.87q1.51-2,3.48-4.24c1.3-1.53,2.61-2.94,3.91-4.24s2.54-2.47,3.7-3.48a21.83,21.83,0,0,1,2.83-2.18c.73-.43,1.85-1,3.37-1.74s3.19-1.45,5-2.17a48.15,48.15,0,0,1,5.55-1.85,19.43,19.43,0,0,1,5-.76,24.44,24.44,0,0,1,5.33.65,32.09,32.09,0,0,1,5.55,1.74A23.17,23.17,0,0,1,228.4,141a4.37,4.37,0,0,1,2.06,2.61,42.69,42.69,0,0,1,5.66,7.07,35.07,35.07,0,0,1,2.61,5.22q.87,2.28,1.41,4a8.1,8.1,0,0,0,2.07,3.27,10.11,10.11,0,0,0-.22,2.06v1.63a32.22,32.22,0,0,0,.65,6,29.53,29.53,0,0,1,.66,5.33,33.48,33.48,0,0,1-1.74,10.66,29.51,29.51,0,0,0-1.74,9.14q-1.53.65-2.5,3.69c-.66,2-1.56,4.72-2.72,8.05a23.37,23.37,0,0,1-4.68,7.72,83.22,83.22,0,0,0-6.63,9,24.17,24.17,0,0,0-4.9,4q-1.84,2.07-3.8,4a47.78,47.78,0,0,1-4.68,4,36.61,36.61,0,0,1-7.07,4,9.91,9.91,0,0,1-5.33,2.39c-2.39.43-5,.8-7.72,1.09a8.86,8.86,0,0,1-6.2-2.29,23.49,23.49,0,0,1-4.24-5.11,39.56,39.56,0,0,1-2.83-5.44,17.92,17.92,0,0,0-1.74-3.48c-.29-1.3-.54-2.75-.76-4.35l-.65-4.56c-.22-1.45-.4-2.72-.55-3.81a21.1,21.1,0,0,1-.21-2.28,28.56,28.56,0,0,1,.32-4.68,23,23,0,0,0,.33-4m-26.1-6.52c0,1.16.32,1.88,1,2.17a6.16,6.16,0,0,0,2.5.44,1.87,1.87,0,0,0,1.52-.87,7.79,7.79,0,0,0,1.09-2.07l.76-2.06c.22-.58.47-.87.76-.87s.76.4,1,1.19a38.79,38.79,0,0,1,.33,6.85,12,12,0,0,0-2,6.53c-.15,2.75-.22,6.53-.22,11.31a10.3,10.3,0,0,1-.43,2.28,12.27,12.27,0,0,0-.44,3.16,77.83,77.83,0,0,1,1.2,7.83,55.59,55.59,0,0,0,1,6.52,41.76,41.76,0,0,0,1.85,6.2,31.13,31.13,0,0,0,3.8,6.85,19.25,19.25,0,0,0,4.57,5,18.27,18.27,0,0,0,5,2.61,26.86,26.86,0,0,0,5.11,1.19,30.43,30.43,0,0,1,4.68,1,30.48,30.48,0,0,0,7.5-.76,36.51,36.51,0,0,0,5.44-1.85l5.33-2.39a41.13,41.13,0,0,1,7.18-2.39l9-7.4q4-3.25,9.68-7a23.34,23.34,0,0,1,3.59-4.35l4.14-3.81a44.27,44.27,0,0,0,3.69-3.69,8.62,8.62,0,0,0,2.07-4,38.76,38.76,0,0,0,5.44-5.65q1.95-2.61,3.26-4.68l2.28-3.7a9.43,9.43,0,0,1,2.07-2.5,115.68,115.68,0,0,0,5.65-12.94,97.07,97.07,0,0,0,3.05-10.22,72.75,72.75,0,0,0,1.52-8.92q.44-4.25,1.31-9A72.63,72.63,0,0,0,261,153.81a62.86,62.86,0,0,0-3.15-10.44,36.07,36.07,0,0,0-3.59-6.74,16.12,16.12,0,0,1-2.5-5,6.92,6.92,0,0,1-2.39-2.18l-1.74-2.61-1.74-2.5a5.63,5.63,0,0,0-2.4-1.85,10.07,10.07,0,0,0-4.13-4.24,11.61,11.61,0,0,1-4.13-3.37q-3.92-.87-6.2-1.52c-1.52-.44-2.76-.84-3.7-1.2s-1.67-.62-2.17-.76a5.73,5.73,0,0,0-1.63-.22c-1.6,0-2.61.44-3.05,1.31a2.24,2.24,0,0,1-2.17,1.3,13.81,13.81,0,0,0-5.77,1,18.76,18.76,0,0,0-3.91,2.5l-3.81,3.16a24.39,24.39,0,0,1-5.22,3.15,11.78,11.78,0,0,0-2.39,1.85l-3,2.93-2.72,2.83c-.79.87-1.26,1.31-1.41,1.31-.44,0-.65-.87-.65-2.61a5.39,5.39,0,0,1,.65-2.83l1.41-2.39a17.63,17.63,0,0,0,1.42-3.27,17.09,17.09,0,0,0,.65-5.22,3.23,3.23,0,0,0-1.41-2.61,4.55,4.55,0,0,0-2.72-1.08,5.48,5.48,0,0,1-2,1.85,24.65,24.65,0,0,0-2.61,1.74,12.29,12.29,0,0,0-2.39,2.39,8.48,8.48,0,0,0-1.53,3.59,17.13,17.13,0,0,0-3.91,5.33c-1,2.1-1.92,4.24-2.72,6.41s-1.49,4.28-2.07,6.31A14.77,14.77,0,0,1,168,144.9,25.31,25.31,0,0,1,166.3,150a17.41,17.41,0,0,0-1.52,6.85,10.12,10.12,0,0,0-2.61,3.91l-2.5,6.2c-.95,2.39-2.14,5.08-3.59,8.05a101,101,0,0,1-5.66,9.9,14.61,14.61,0,0,0-2.5,6.63,47.46,47.46,0,0,0-.76,7.94M85.61,120.1a6.11,6.11,0,0,0-1-3.15A15.05,15.05,0,0,0,82.34,114a11.84,11.84,0,0,0-2.71-2.07,5.36,5.36,0,0,0-2.07-.76,9.71,9.71,0,0,0-5.66,1.52,6.87,6.87,0,0,1-3.69,1.53h-2a3.26,3.26,0,0,0-2.18,1,12.07,12.07,0,0,0-1.95,2.28,16,16,0,0,0-1.42,2.61,6,6,0,0,0-.54,1.74q0,6.3.33,11.09c.21,3.19.83,5.15,1.84,5.88q.44,8.91,1.2,14T64.94,161c.44,2,.84,3.63,1.2,4.79a12.38,12.38,0,0,1,.54,3.69,9.39,9.39,0,0,1,1.2,2.83q.77,2.4,1.63,5.55t1.52,6.2c.44,2,.8,3.62,1.09,4.78a33.66,33.66,0,0,1,3.59,7.07c1.09,2.83,2.25,5.58,3.48,8.27a61,61,0,0,0,3.92,7.28A9.07,9.07,0,0,0,88,215.59a18.72,18.72,0,0,1-1.41,7.83,16.73,16.73,0,0,1-3.16,4.78,28,28,0,0,1-2,6.2A25,25,0,0,0,79.73,243a9,9,0,0,0-2.17,3.7,58.13,58.13,0,0,0-2,6.09c-.58,2.17-1.09,4.28-1.52,6.31a23.57,23.57,0,0,0-.65,4.56,2.86,2.86,0,0,0,1.08,2.51,9,9,0,0,0,2.61,1.19,21.26,21.26,0,0,0,3.27.65,16.24,16.24,0,0,1,3,.66,16.38,16.38,0,0,0,4.57-.87c1.89-.58,3-1.38,3.26-2.4a6.11,6.11,0,0,0,3-.87,12.69,12.69,0,0,0,2.61-1.95,14,14,0,0,0,1.85-2.29,4.17,4.17,0,0,0,.76-1.63A3.13,3.13,0,0,0,98.44,256a3.42,3.42,0,0,1-1.09-2.83,37.44,37.44,0,0,1,.66-7.39,44.22,44.22,0,0,1,1.63-6.09q1-2.83,1.74-5.44a41,41,0,0,0,1.19-5.87,25,25,0,0,0,2.94-5.11q2.07-4.25,4.24-9.25t3.92-9.57q1.74-4.56,1.74-5.87a17.67,17.67,0,0,0,4.67-6.85,29.29,29.29,0,0,1,6-8.81,34.94,34.94,0,0,1,3.05-6.53q1.51-2.38,2.94-4.35t2.71-4.13a25.46,25.46,0,0,0,2.4-6.09,6.2,6.2,0,0,0,2.06-2.28,14.19,14.19,0,0,0,1-5.33,13.22,13.22,0,0,0,2.83-4.68q1.51-3.58,2.94-7.72c.94-2.75,1.74-5.44,2.39-8l1.41-5.65a14.06,14.06,0,0,0,1.52-5.66q.44-3.92.44-12.83a5.79,5.79,0,0,1-2-2.18,3,3,0,0,0-2.83-1.52,3.56,3.56,0,0,0-2.61,1.09,16.83,16.83,0,0,0-2.28,3l-2.94,4.9q-1.74,2.94-4.35,6.63a43.18,43.18,0,0,1-3.15,5.77l-2.5,3.58a20.81,20.81,0,0,0-3.26,6.75,14.6,14.6,0,0,1-1.74,3.59q-1.31,2.06-3,5.22t-3.48,7.17a58.41,58.41,0,0,0-3,9.47,31.57,31.57,0,0,0-4.46,7.61l-5,11.2q-2.49,5.76-4.78,10.11t-3.59,4.35c-.87,0-1.49-.87-1.85-2.61a8.83,8.83,0,0,0-2.5-4.56,28.26,28.26,0,0,0-1.52-8.7,34.09,34.09,0,0,1-1.74-9.14,37.67,37.67,0,0,1-1.42-7.29A40.14,40.14,0,0,0,86,156.21c0-5.37-.21-8.89-.65-10.55a16.15,16.15,0,0,1-.65-3.59q0-6.31.43-11.86c.29-3.69.44-7.07.44-10.11"/></g></g></svg>