<svg xmlns="http://www.w3.org/2000/svg" viewBox="0 0 474.19 422.16"><defs><style>.cls-1{fill:blue;}</style></defs><g id="Layer_2" data-name="Layer 2"><g id="Layer_1-2" data-name="Layer 1"><path class="cls-1" d="M279.41,28.36a8,8,0,0,0-1.26-4.07,20,20,0,0,0-2.95-3.79,15.26,15.26,0,0,0-3.51-2.67,6.77,6.77,0,0,0-2.67-1,12.47,12.47,0,0,0-7.3,2,8.88,8.88,0,0,1-4.77,2h-2.53a4.21,4.21,0,0,0-2.81,1.27A15.41,15.41,0,0,0,249.08,25a20.27,20.27,0,0,0-1.82,3.37,7.72,7.72,0,0,0-.7,2.25q0,8.14.42,14.32t2.38,7.58q.57,11.52,1.55,18.12t1.82,10.53q.84,3.93,1.55,6.18a15.77,15.77,0,0,1,.7,4.77,11.9,11.9,0,0,1,1.54,3.65q1,3.09,2.11,7.16c.75,2.72,1.4,5.38,2,8s1,4.68,1.4,6.18a43.29,43.29,0,0,1,4.63,9.13q2.12,5.47,4.5,10.67a80.07,80.07,0,0,0,5.05,9.41,11.74,11.74,0,0,0,6.32,5.33,24.22,24.22,0,0,1-1.82,10.11,21.51,21.51,0,0,1-4.08,6.18,36.18,36.18,0,0,1-2.52,8,31.8,31.8,0,0,0-2.25,11.1c-.94.74-1.87,2.34-2.81,4.77a79,79,0,0,0-2.53,7.86q-1.12,4.22-2,8.15a31.05,31.05,0,0,0-.84,5.89,3.64,3.64,0,0,0,1.4,3.23,11.27,11.27,0,0,0,3.37,1.55,28.77,28.77,0,0,0,4.21.84,21,21,0,0,1,3.93.84,21.08,21.08,0,0,0,5.9-1.12c2.43-.75,3.84-1.78,4.21-3.09a7.84,7.84,0,0,0,3.93-1.12A15.63,15.63,0,0,0,294,212.3a17.08,17.08,0,0,0,2.39-3,5.19,5.19,0,0,0,1-2.11,4.05,4.05,0,0,0-1.4-3.37,4.37,4.37,0,0,1-1.4-3.65,49,49,0,0,1,.84-9.54,60.46,60.46,0,0,1,2.1-7.87q1.28-3.65,2.25-7a50.1,50.1,0,0,0,1.54-7.58q1.13-1.12,3.8-6.6t5.47-11.93q2.81-6.47,5.06-12.36t2.24-7.58a22.65,22.65,0,0,0,6-8.85,37.85,37.85,0,0,1,7.72-11.37,44.64,44.64,0,0,1,3.93-8.42c1.32-2.06,2.58-3.94,3.8-5.62s2.38-3.46,3.51-5.34A32.49,32.49,0,0,0,346,82.28a8,8,0,0,0,2.67-3c.66-1.21,1.08-3.51,1.27-6.88,1.12-.93,2.34-3,3.65-6s2.57-6.41,3.79-10,2.24-7,3.09-10.39l1.82-7.31c.94-1.49,1.59-3.93,2-7.3s.56-8.89.56-16.57a7.44,7.44,0,0,1-2.53-2.8,3.88,3.88,0,0,0-3.65-2,4.62,4.62,0,0,0-3.37,1.4,21.71,21.71,0,0,0-3,3.94l-3.79,6.31c-1.49,2.53-3.37,5.39-5.61,8.57a56.66,56.66,0,0,1-4.07,7.44l-3.24,4.63a27.46,27.46,0,0,0-4.21,8.71,18.61,18.61,0,0,1-2.24,4.63q-1.69,2.67-3.93,6.74t-4.5,9.27A74.74,74.74,0,0,0,316.76,84c-1.69,1.88-3.6,5.15-5.76,9.83l-6.46,14.47q-3.23,7.44-6.17,13c-2,3.75-3.51,5.62-4.64,5.62s-1.92-1.12-2.38-3.37a11.59,11.59,0,0,0-3.23-5.9,36.88,36.88,0,0,0-2-11.23,44.28,44.28,0,0,1-2.25-11.79,49.55,49.55,0,0,1-1.82-9.41A52,52,0,0,0,280,75q0-10.4-.84-13.62a21.27,21.27,0,0,1-.84-4.63q0-8.15.56-15.31t.56-13.06m-111.48,64a10.37,10.37,0,0,1,1.68-4.63l3.79-6.6c1.41-2.44,2.76-5,4.07-7.73a26.84,26.84,0,0,0,2.53-8,33,33,0,0,0,4.5-5.9A4.32,4.32,0,0,1,188.43,57a19.57,19.57,0,0,1,8.28,4.07,24.29,24.29,0,0,1,4.63,5.47c1.13,1.88,2.06,3.61,2.81,5.2A7.19,7.19,0,0,0,206.68,75a16.75,16.75,0,0,0-.56,3.93v4.21q0,13.2,1.68,13.48a11.7,11.7,0,0,0-.7,3.51c-.09,1.41-.14,3-.14,4.64a11.63,11.63,0,0,0,.56,3.65,9.65,9.65,0,0,1,.56,3.09,28.46,28.46,0,0,1-.42,4.07,43.49,43.49,0,0,0-.42,6.6,34.69,34.69,0,0,1-8.56,1.26,15,15,0,0,0-7.73,2.11q-9,0-14,.42t-7.86.84a32.57,32.57,0,0,0-4.21.84,9,9,0,0,1-2.53.42H158.1a11.82,11.82,0,0,1-4.21-.56,12.46,12.46,0,0,1,1.12-5.61,40.47,40.47,0,0,1,2.53-4.36,52.94,52.94,0,0,0,2.8-4.77,25.75,25.75,0,0,0,2.25-7.16q5.34-10.4,5.34-13.2m-55.61,57,.85,4.21a4.23,4.23,0,0,1-.7,2.24,5.79,5.79,0,0,0-.71,3.09q0,3.93,1.69,4.64t6.46.7a18.4,18.4,0,0,1-1,4.91q-1,3.24-2.24,7t-2.25,7.73a30.44,30.44,0,0,0-1,7.3,26.39,26.39,0,0,0-2.53,5.61,14.84,14.84,0,0,0-.84,6.18c-1.12,3.19-2.11,6.18-3,9a31.18,31.18,0,0,0-1.26,9q0,5.06,1.12,6.32c.75.85,2.15,1.27,4.21,1.27a7.44,7.44,0,0,0,3-.85,21.61,21.61,0,0,1,4.35-1.4,13.57,13.57,0,0,0,2.39-4.07q1.26-3,2.39-6.46t2-7.16a56.52,56.52,0,0,0,1.13-6.18A26.19,26.19,0,0,0,130,195a57.1,57.1,0,0,0,1.68-7.3c.38-2.34.84-4.64,1.41-6.88a18.69,18.69,0,0,1,3.08-6.46,20.41,20.41,0,0,0,2.81-5.34,55.43,55.43,0,0,0,1.83-6q.71-3,1.26-4.92c.38-1.31.75-2,1.12-2a26.6,26.6,0,0,0,7.73-1,35.44,35.44,0,0,0,6.18-2.52l6.31-3.23a48.88,48.88,0,0,1,8.15-3.09,15.82,15.82,0,0,0,4.35-.7q2.38-.71,4.49-1.55c1.41-.56,2.67-1,3.79-1.4a9.21,9.21,0,0,1,2.25-.57,31.23,31.23,0,0,0,7.16-.7c2-.47,3.65-.93,5.06-1.4l4.07-1.41a12.61,12.61,0,0,1,4.21-.7v16.71q0,6,.14,9.27c.09,2.15.19,3.51.28,4.07s.33.84.7.84c0,1.5,0,3.79-.14,6.88s-.42,5-1,5.76a37.54,37.54,0,0,1,.42,4.07c.1,1.59.14,3.61.14,6q0,5.89-.56,12.07t-.56,8.71q0,6.18,2.81,6.18a7.57,7.57,0,0,0,2.81-1,24.1,24.1,0,0,0,7.3-5.75,5.09,5.09,0,0,0,1.4-3.09v-3.93a19.33,19.33,0,0,0,2.81-9.69A47.57,47.57,0,0,1,226.34,182a9.65,9.65,0,0,1-.56-3.09V175c.56,0,1-1.26,1.26-3.79s.51-5.34.7-8.42.38-5.9.56-8.43.47-4,.85-4.35c0-2.06.14-4.64.42-7.72s.42-6.51.42-10.25a19.11,19.11,0,0,0,4.63-3.94q1.26-1.68,1.26-5.61c0-1.5-.23-2.44-.7-2.81a4.74,4.74,0,0,0-1.68-.84,4.72,4.72,0,0,1-1.69-.85c-.47-.37-.7-1.31-.7-2.8q0-9.27.28-16.43t.28-14.46a24.72,24.72,0,0,1-1.54-3.09,8.12,8.12,0,0,1-.7-3.09c0-1.5,0-3.14.14-4.92a31.63,31.63,0,0,1,.7-5.19,131.35,131.35,0,0,1-1.69-18.82,10.91,10.91,0,0,1-1.26-3.51,49.31,49.31,0,0,0-1.54-5.47,9,9,0,0,0-2.67-4.07,15.09,15.09,0,0,0-3.79-2.39,25.82,25.82,0,0,0-3.65-1.27,5,5,0,0,1-2.25-1,4.11,4.11,0,0,0-2-1.4l-2.8-1.12a8.74,8.74,0,0,1-2.53-1.55A3.05,3.05,0,0,1,205,25a13,13,0,0,1,1-4.07l2.1-5.61,2.11-5.62a13.15,13.15,0,0,0,1-4.35q0-3.09-3.37-4.22A18.71,18.71,0,0,0,202.19,0a5.19,5.19,0,0,0-2.95.84,36.08,36.08,0,0,0-3.09,2.39Q194.32,4.77,191.24,7a59.18,59.18,0,0,1-8.15,4.78,21.86,21.86,0,0,1-3.51,7.44,8.72,8.72,0,0,1-5.76,3.23,16,16,0,0,0-7.3,2.52q-2.81,2-2.81,8.43a2.18,2.18,0,0,0,1.69,2.39c1.12.28,1.69,1.17,1.69,2.66A3.59,3.59,0,0,1,166,40.58l-2.53,3a35.16,35.16,0,0,0-2.8,3.93,15,15,0,0,0-2,5.33l-2.81,4.78a40,40,0,0,1-3.93,11.51,25.94,25.94,0,0,0-3.09,11.52c-1.12,2.43-2.25,5.1-3.37,8s-2.1,5.76-3,8.56-1.54,5.39-2.1,7.73-.94,4.07-1.13,5.19a43.36,43.36,0,0,0-3.79,7c-1,2.44-1.87,4.68-2.52,6.74l-1.69,5.2c-.47,1.4-1,2.2-1.54,2.38a52.16,52.16,0,0,0-7.31,1.83,11.25,11.25,0,0,0-4.63,2.95,14.65,14.65,0,0,0-3,5.05q-1.12,3.09-2.53,8.15M96.6,108.68a34.12,34.12,0,0,1-.84,8.14,25.59,25.59,0,0,1-2.11,5.76,46.09,46.09,0,0,1-2.39,4.07,27.62,27.62,0,0,0-1.68,2.81c-.94.56-2.11,1.36-3.51,2.39l-4.35,3.22-4.5,3.23A24.39,24.39,0,0,1,73,140.69a12,12,0,0,1-6,4.49,14.11,14.11,0,0,0-5.75,3.37q-9.84,3.93-15.45,6.74c-3.74,1.88-6.36,2.81-7.86,2.81s-2.39-.37-2.67-1.12a13.94,13.94,0,0,1-.42-4.21,45.48,45.48,0,0,1,.56-4.92c.38-2.53.84-5.19,1.41-8s1.12-5.43,1.68-7.86a17.44,17.44,0,0,1,1.41-4.5q0-7.3,2.24-10.39t2.25-4.77a10.41,10.41,0,0,0-.42-2.67,10.41,10.41,0,0,1-.42-2.67q1.39-3.36,2.52-6.74,1.13-3.09,2.11-6.6a65.37,65.37,0,0,0,1.54-6.88,22.34,22.34,0,0,0,3.09-7.44,32.19,32.19,0,0,0,.56-5.47q3.38-7.59,3.37-11a19.18,19.18,0,0,0-2.52-9.54,52.58,52.58,0,0,0-5.62-8.15Q45.49,41.57,43,39T40.44,35.1a1.78,1.78,0,0,1,1.12-1.68,13.79,13.79,0,0,1,3.51,1.12l1.69,1,1.68,1a21.5,21.5,0,0,0,3.79,1.4,10.57,10.57,0,0,1,3.37,2c1.12.93,2.48,2.2,4.07,3.79l6,5.75A99.45,99.45,0,0,0,75.26,57a42.21,42.21,0,0,0,3.79,5.33c1.4,1.69,2.81,3.47,4.21,5.34a47.35,47.35,0,0,1,3.79,5.9,25.94,25.94,0,0,1,2.53,6.73q3.09,2.25,5,9t2,19.38m-61.78,105a2.15,2.15,0,0,0-1-1.82,11.75,11.75,0,0,1-2-1.83,18,18,0,0,1-2-2.81,9.47,9.47,0,0,1-1-4.77q0-5.34.14-8.14a16.66,16.66,0,0,1,1-5.06c0-1.12-.05-2.15-.14-3.09a23.71,23.71,0,0,1-.14-2.52q0-9.27,2.8-9.27,7.59,0,17.7-4.63a197.69,197.69,0,0,1,22.46-8.57q12.36-5.9,19.24-10.11a88.22,88.22,0,0,0,10.67-7.44,47.07,47.07,0,0,0,5.75-5.62,47.19,47.19,0,0,1,4.78-4.91,59.21,59.21,0,0,0,7.86-19,82.81,82.81,0,0,0,2-16.71,26.19,26.19,0,0,0-.85-6.45A45.55,45.55,0,0,1,121,82.84q-2-1.12-2.24-10.67a7.6,7.6,0,0,1-2.25-3.23l-1.83-4.35-2-4.49a9.75,9.75,0,0,0-2.67-3.65,26,26,0,0,0-3.37-6.18,76.63,76.63,0,0,0-5.62-7.16,81,81,0,0,0-6.17-6.32,20.36,20.36,0,0,0-5.06-3.65,13.64,13.64,0,0,0-3.51-4.78,44.29,44.29,0,0,0-3.65-2.52l-3.65-2.25a13.88,13.88,0,0,1-3.79-3.93,52.82,52.82,0,0,1-8.43-4.35l-8.56-5.2A61.42,61.42,0,0,0,49.56,5.9,23.44,23.44,0,0,0,41,4.21c-1.12-1.68-2.44-2.53-3.93-2.53a5,5,0,0,0-4.36,2.25Q31.17,6.18,26.4,8.71a25.31,25.31,0,0,0-4.5,3.65A31.4,31.4,0,0,0,18,17.13a47,47,0,0,0-2.81,4.77A8.74,8.74,0,0,0,14,25.56a7.84,7.84,0,0,0,1.83,4.21q1.81,2.52,4.35,5.61T25.13,42a28.37,28.37,0,0,1,3.51,6.88q-3.09,12.93-4.49,21.77T22,85.65q-.69,6.18-1,10.25a22.94,22.94,0,0,1-1.4,6.88A60.12,60.12,0,0,0,16.71,116q-1,7.86-1.27,16.57-.84.84-1.26,5.47t-.84,10.25q-.42,5.63-.84,10.53c-.29,3.28-.61,5.2-1,5.76q-2,3.38-4.07,4.35c-1.4.66-2.67,1.22-3.79,1.69A6.07,6.07,0,0,0,1,172.7q-1,1.41-1,5.62a38.8,38.8,0,0,0,5.05,3.23q2,1,3.09,1.68a3.65,3.65,0,0,1,1.55,1.83,12.63,12.63,0,0,1,.42,3.93,13.84,13.84,0,0,1-.42,2.95c-.28,1.22-.56,3-.85,5.48s-.51,5.66-.7,9.68-.28,9.13-.28,15.31q3.37,7.58,4.78,9.41a4.4,4.4,0,0,0,3.65,1.82q3.09,0,6.31-2.95a55.4,55.4,0,0,0,6-6.46,42.45,42.45,0,0,0,4.5-6.74,16.13,16.13,0,0,0,1.68-3.79"/><path class="cls-1" d="M459.07,375.76a9,9,0,0,0-.86-4.12c-.57-1.14-1.89-1.95-3.95-2.4a13.58,13.58,0,0,1-5.5,2.06q-2.75.34-6.18,4.12a51.51,51.51,0,0,0-11.34,3.44q-4.47,2.06-9.28,3.78-2.4.35-5.84,1L409.07,385q-3.6.69-6.7,1.55a26.35,26.35,0,0,0-4.46,1.55,46.05,46.05,0,0,0-7.05.68q-4.29.69-7,1.38c-1.84-.23-3.61-.4-5.33-.52s-3.38-.17-5-.17a45.4,45.4,0,0,0-6.87.52,21,21,0,0,0-4.13.85,51.3,51.3,0,0,0-10-1q0-6.53.51-13.57a46.38,46.38,0,0,1,3.27-13.92,16,16,0,0,0-.35-3.09,17.44,17.44,0,0,1-.34-3.44c1.14-1.83,1.95-5.44,2.4-10.82a65.62,65.62,0,0,1,3.44-16q.34-7.21,4.12-10.65a24.35,24.35,0,0,1,9.45-5.16,110.17,110.17,0,0,1,12.38-2.92,56,56,0,0,0,12.88-3.95c1.15,0,2.29.06,3.44.17a32.82,32.82,0,0,0,3.43.17,6.69,6.69,0,0,0,2.07-.51,7.83,7.83,0,0,1,2.75-.52q8.58,0,12.19-.17a67.64,67.64,0,0,0,9.11-1.2A68,68,0,0,0,443.78,306a80.5,80.5,0,0,1,8.42,1c1.83-1.15,3.32-3.32,4.47-6.53s1.72-8.48,1.72-15.81a10.7,10.7,0,0,1-2.58-4.29,7.42,7.42,0,0,0-2.92-4q-4.81,0-6.7-1a12.29,12.29,0,0,0-5.67-1,72.8,72.8,0,0,0-9.8.86q-6,.86-7.38.86a25,25,0,0,1-4.13-.34,24.91,24.91,0,0,0-4.12-.35,23.84,23.84,0,0,0-6.7.86,49,49,0,0,0-5.67,2.06l-5.67,2.41A23.87,23.87,0,0,1,390,282.3a27.45,27.45,0,0,0-6.35,4.12l-4.13,3.95a17.56,17.56,0,0,1-4.12,3.09,12.66,12.66,0,0,1-6,1.21,52.72,52.72,0,0,1,.52-8.25,40.9,40.9,0,0,1,1.2-5.33l1.38-4.46a30.68,30.68,0,0,0,1-6q2.75-4.8,4.47-15.29a111.69,111.69,0,0,1,7.21-23.88,15.73,15.73,0,0,0-.34-3.09,23.11,23.11,0,0,0-.69-2.75,12.63,12.63,0,0,0,3.44-5.33q1.36-3.6,3.09-7.22a27.88,27.88,0,0,1,4.12-6.35,8.64,8.64,0,0,1,6.88-2.75,37.58,37.58,0,0,0,5.84-.35,14.41,14.41,0,0,0,3.26-.85,9.39,9.39,0,0,0,1.89-1,2.81,2.81,0,0,1,1.72-.51q8.94,0,11.34-.69a15.33,15.33,0,0,1,4.12-.69h8.08a44.28,44.28,0,0,1,5.84.35,41,41,0,0,1,5.16,1c1.71.46,3.83,1.14,6.35,2.06,1.15,1.83,3.78,2.75,7.91,2.75,3.2,0,5.44-.46,6.7-1.37s1.89-3.33,1.89-7.22a14.45,14.45,0,0,1,.34-3.44c.23-.91.52-1.94.86-3.09a29,29,0,0,0,.86-4.3,55.94,55.94,0,0,0,.34-7q0-7.56-4.12-10.31t-13.75-3.43a14.25,14.25,0,0,0-2.4.34,17.44,17.44,0,0,1-3.44.34,5.58,5.58,0,0,1-2.4-.68,7.66,7.66,0,0,0-3.44-.69,43.24,43.24,0,0,0-8.08.69q-3.6.67-6.35,1.37A73.59,73.59,0,0,0,418,168a42.54,42.54,0,0,0-8.42,2.23q-3.43,1.38-5.84,2.58a35.06,35.06,0,0,1-4.47,1.89,17.85,17.85,0,0,0-2.92,1.89,15.18,15.18,0,0,0-3.26,4,36.82,36.82,0,0,0-8.77,6.19q-5,4.46-16.32,11.68a23.66,23.66,0,0,1-3.95,7q-2.24,2.58-4.47,4.82a44.06,44.06,0,0,0-3.95,4.46,17.34,17.34,0,0,0-2.75,6.36q-2.06,8.94-3.78,15.29l-2.92,11.17q-1.2,4.82-1.89,8.93a54.27,54.27,0,0,0-.69,8.94,92.16,92.16,0,0,0-5.15,23.19q-.69,10.14-.69,13.92a63,63,0,0,0-3.09,16,104.55,104.55,0,0,1-2.41,16.32,64.17,64.17,0,0,1-1.37,14.61A53,53,0,0,0,329.52,362q0,9.62-.34,16.15t-.69,11q-.35,4.45-.68,7a32.47,32.47,0,0,0-.35,4q0,5.5,1.89,7.73t8.76,2.24a9.31,9.31,0,0,0-.68,3.43V417q0,2.75,4.46,3.95a28.77,28.77,0,0,0,6.53,1.21q1.72,0,3.78-.18a29.86,29.86,0,0,0,4.81-.86,18.34,18.34,0,0,0,3.61.35h4.3a63.31,63.31,0,0,0,7.73-1,115.12,115.12,0,0,1,14.6-1.38q2.07,0,9.45-2.4A121,121,0,0,0,413,409.78a14.12,14.12,0,0,0,6.18-1.71c2.29-1.15,4.35-2.29,6.19-3.44a13.09,13.09,0,0,0,4.12-1,43.62,43.62,0,0,0,5.84-2.75q3.09-1.73,5.84-3.61a21.76,21.76,0,0,0,4.47-3.95,28,28,0,0,0,9.79-7.73,15.69,15.69,0,0,0,3.61-9.8M330.9,202.92V199a25.4,25.4,0,0,0-.69-5.85,17.09,17.09,0,0,0-2.06-5.15,4.51,4.51,0,0,0-4.12-2.23c-.92,0-2.92,1.2-6,3.6a34.1,34.1,0,0,1-9.45,5.33,15.06,15.06,0,0,0-6.35,5.33,87.27,87.27,0,0,0-5.67,8.76l-5.5,9.62a38.67,38.67,0,0,1-6.19,8.25,30.12,30.12,0,0,1-3.6,5.84q-2.58,3.43-5.5,6.7t-5.33,6.36a15.3,15.3,0,0,0-2.75,4.47,40,40,0,0,0-6.7,6,47.31,47.31,0,0,0-6,8.42,23,23,0,0,0-5.5,4.64q-3.44,3.6-7.9,7.73a67.22,67.22,0,0,1-9.28,7.21,17.64,17.64,0,0,1-9.62,3.1q-7.22,0-11.69-4.13a35.05,35.05,0,0,1-7.73-11.16,103.84,103.84,0,0,1-5.84-16.67q-2.58-9.61-6.36-20.62a25.88,25.88,0,0,1-.69-4.47c-.22-2.29-.51-4.81-.85-7.56l-1-7.9a36.64,36.64,0,0,0-.85-4.81,14.25,14.25,0,0,0,.68-4.47q0-2.74-.34-6.35t-1-7.74a37.37,37.37,0,0,0,.51-5.15q.18-3.44.18-13.4,0-7.56-1.55-10.65t-4.3-3.1q-1.71,0-4.64,2.24t-9.79,3.26a22.29,22.29,0,0,1-5.33,5.5,38.89,38.89,0,0,1-5.15,2.92,18.24,18.24,0,0,0-4.64,3.09,14.1,14.1,0,0,0-3.43,6,66.81,66.81,0,0,0-2.07,10.82,103.58,103.58,0,0,0-1,13.23v3.61a9.62,9.62,0,0,0,.69,3.61c-1.15.23-1.89,2.8-2.23,7.73s-.52,11.74-.52,20.44q-2.75,13.07-4.29,23.89a124.49,124.49,0,0,0-1.55,16.32c0,1.14.06,2.35.17,3.61s.17,2.46.17,3.61A114.56,114.56,0,0,1,134.86,316a117.1,117.1,0,0,0-3.27,27.84,24.76,24.76,0,0,0,.52,5.15,24.87,24.87,0,0,1,.51,5.16c-.91,1.37-1.66,4.18-2.23,8.41s-1.09,8.82-1.55,13.75-.85,9.62-1.2,14.09a76.16,76.16,0,0,1-1.2,9.79,25.67,25.67,0,0,1,1.55,8.59q.17,5.16,1.89,5.16a24.77,24.77,0,0,0,2.92-.69q2.56-.69,5.67-1.72t5.67-2.06c1.71-.69,2.69-1.37,2.92-2.06.23-1.38.63-2.18,1.2-2.41A4.51,4.51,0,0,0,150,403.6a9.36,9.36,0,0,0,1.37-4.12,73.62,73.62,0,0,0,.52-10.66,35.66,35.66,0,0,1,.86-5.15q.86-4.12,1.89-9.62t1.89-11.34a70.68,70.68,0,0,0,.86-10c.23-.69.57-2.17,1-4.47l1.54-7.38c.58-2.64,1-5.1,1.38-7.39a38.53,38.53,0,0,0,.51-5.16q4.47-23.7,5.16-35T171.11,282q1.38,0,4.47,5.84a68,68,0,0,1,4.81,11.34,59.34,59.34,0,0,1,4.29,5l5.33,6.7q6.87,5.83,11.68,7.56a26.87,26.87,0,0,0,8.94,1.72,20.53,20.53,0,0,0,6.36-1.38,55.38,55.38,0,0,0,7.56-3.26,28.05,28.05,0,0,0,6.18-4.3,8.48,8.48,0,0,0,2.92-4.47,22.45,22.45,0,0,0,7.56-3.09,28.87,28.87,0,0,0,5.67-5l5.16-5.84a40.34,40.34,0,0,1,5.67-5.33,55.28,55.28,0,0,0,8.93-8.93l8.42-10.66q3.94-5.14,7.22-8.93c2.17-2.52,4-3.78,5.32-3.78,1.61,0,2.41.69,2.41,2.06q-3.78,18.56-5.33,30.93t-3.95,23a194.83,194.83,0,0,0-4,19.42q-1.54,10.14-2.58,18.9t-1.89,15.12c-.57,4.23-1.2,6.93-1.89,8.07a72.37,72.37,0,0,1-2.92,19.25,52.82,52.82,0,0,0-2.58,15.8,1.82,1.82,0,0,0,2.06,2.06,8,8,0,0,0,5.85-2.4,45.37,45.37,0,0,0,4.64-5.5,45.8,45.8,0,0,1,4.81-5.67,9.94,9.94,0,0,1,6.35-2.92,16.45,16.45,0,0,0,1.55-4.3q.85-3.25,1.55-7c.45-2.52.86-4.93,1.2-7.22a38.56,38.56,0,0,0,.51-5.15q1.38-1.72,2.41-6.19t2.06-10.3l2.24-12.72a104.34,104.34,0,0,1,3.26-13.4,21.36,21.36,0,0,0,3.26-7.9q1.21-5.16,2.41-11.17t2.75-12.37A62,62,0,0,1,315.78,284a16.31,16.31,0,0,1,.86-5.49c.57-1.61,1.26-3.38,2.06-5.33a62.56,62.56,0,0,0,2.41-7.39,74.25,74.25,0,0,0,1.89-12,29.84,29.84,0,0,1,2.4-7.05,29.23,29.23,0,0,0,2.06-11.85,90.91,90.91,0,0,1,1.72-16.16,88.51,88.51,0,0,0,1.72-15.8"/></g></g></svg>