<svg xmlns="http://www.w3.org/2000/svg" viewBox="0 0 300 300"><defs><style>.cls-1{fill:blue;}.cls-2{fill:none;stroke:red;stroke-width:2.75px;}.cls-3{fill:red;}.cls-4{fill:#fff;}</style></defs><g id="Layer_2" data-name="Layer 2"><g id="Layer_1-2" data-name="Layer 1"><path class="cls-1" d="M150,298.62A148.62,148.62,0,1,0,1.38,150,148.62,148.62,0,0,0,150,298.62"/><circle class="cls-2" cx="150" cy="150" r="148.63"/><path class="cls-3" d="M209.61,150a59.72,59.72,0,0,0-59.54-59.57c-32.5-.29-59.48,26.64-59.62,59.5-.13,32.61,26.86,59.62,59.55,59.58s59.64-26.83,59.61-59.51m-60.4,76.32c-17.82-.13-35.06-5.35-51.29-14.08-24.28-13.06-44.45-31.07-62.06-52.1-2.08-2.48-4-5.06-6.11-7.55a3.63,3.63,0,0,1-.08-5.12c20-25.62,43.36-47.44,72.76-62.06,15.93-7.92,32.78-12.33,50.71-11.73,15.9.53,30.84,4.88,45,12,26.09,13,47.42,32,66.06,54.15,2,2.41,3.92,5,6,7.36,1.68,2,1.53,3.71,0,5.7a240.85,240.85,0,0,1-39.89,40.71C217.13,204,203.13,213,187.43,219a105.57,105.57,0,0,1-38.22,7.34"/><path class="cls-4" d="M149.83,216.25a91.83,91.83,0,0,0,33.28-6.39c13.67-5.26,25.86-13.05,37.27-22.13a209.54,209.54,0,0,0,34.73-35.45c1.36-1.74,1.49-3.25,0-5-1.79-2.09-3.43-4.31-5.2-6.41-16.23-19.3-34.8-35.78-57.52-47.15a94,94,0,0,0-39.17-10.42c-15.61-.52-30.29,3.32-44.15,10.22-25.6,12.73-45.9,31.73-63.36,54a3.15,3.15,0,0,0,.07,4.45c1.8,2.17,3.51,4.42,5.32,6.58,15.34,18.31,32.9,34,54,45.36,14.13,7.6,29.14,12.15,44.66,12.26"/><path class="cls-1" d="M202.42,149.8a52,52,0,0,0-51.84-51.87c-28.3-.25-51.79,23.2-51.91,51.81-.12,28.39,23.38,51.91,51.85,51.88a52,52,0,0,0,51.9-51.82m-52.59,66.45c-15.52-.11-30.53-4.66-44.66-12.26-21.14-11.37-38.7-27.05-54-45.36-1.81-2.16-3.52-4.41-5.32-6.58a3.15,3.15,0,0,1-.07-4.45c17.46-22.31,37.76-41.31,63.36-54,13.86-6.9,28.54-10.74,44.15-10.22a94,94,0,0,1,39.17,10.42c22.72,11.37,41.29,27.85,57.52,47.15,1.77,2.1,3.41,4.32,5.2,6.41,1.46,1.71,1.33,3.22,0,5a209.54,209.54,0,0,1-34.73,35.45c-11.41,9.08-23.6,16.87-37.27,22.13a91.83,91.83,0,0,1-33.28,6.39"/><path class="cls-3" d="M150.44,196.35a46.85,46.85,0,0,0,46.71-46.59c0-25.46-20.83-46.35-46.51-46.56-25.43-.2-46.74,21-46.71,46.57a46.85,46.85,0,0,0,46.51,46.58m52-46.55a52,52,0,0,1-51.9,51.82c-28.47,0-52-23.49-51.85-51.88.12-28.61,23.61-52.06,51.91-51.81a52,52,0,0,1,51.84,51.87"/><path class="cls-3" d="M150.59,174.08a24.32,24.32,0,1,0-24.39-24.22,24.46,24.46,0,0,0,24.39,24.22m-.15,22.27a46.84,46.84,0,0,1-46.51-46.58c0-25.53,21.28-46.77,46.71-46.57,25.68.21,46.55,21.1,46.51,46.56a46.85,46.85,0,0,1-46.71,46.59"/><path class="cls-1" d="M150.59,174.08a24.32,24.32,0,1,1,24.29-24.31,24.46,24.46,0,0,1-24.29,24.31"/></g></g></svg>