<svg xmlns="http://www.w3.org/2000/svg" viewBox="0 0 300 300"><defs><style>.cls-1{fill:blue;}.cls-2{fill:none;stroke:red;stroke-width:5px;}.cls-3{fill:#fff;}.cls-4{fill:red;}</style></defs><g id="Layer_2" data-name="Layer 2"><g id="Layer_1-2" data-name="Layer 1"><path class="cls-1" d="M150,297.5A147.5,147.5,0,1,0,2.5,150,147.5,147.5,0,0,0,150,297.5"/><circle class="cls-2" cx="150" cy="150" r="147.5"/><path class="cls-3" d="M149.32,216.48a91.82,91.82,0,0,0,33.27-6.39c13.67-5.27,25.86-13.05,37.27-22.13a209.91,209.91,0,0,0,34.73-35.45c1.36-1.74,1.49-3.25,0-5-1.79-2.09-3.43-4.3-5.2-6.41-16.23-19.29-34.8-35.78-57.52-47.15-12.31-6.15-25.32-10-39.16-10.41-15.62-.52-30.29,3.32-44.16,10.21-25.6,12.74-45.9,31.74-63.36,54a3.17,3.17,0,0,0,.07,4.46c1.8,2.17,3.51,4.41,5.32,6.58,15.34,18.3,32.9,34,54,45.36,14.13,7.6,29.15,12.15,44.67,12.26"/><path class="cls-4" d="M201.9,150a52,52,0,0,0-51.84-51.87c-28.3-.26-51.79,23.19-51.91,51.81C98,178.36,121.54,201.88,150,201.85A52,52,0,0,0,201.9,150m-52.58,66.45c-15.52-.11-30.54-4.66-44.67-12.26-21.14-11.37-38.7-27.06-54-45.36-1.81-2.17-3.52-4.41-5.32-6.58a3.17,3.17,0,0,1-.07-4.46c17.46-22.3,37.76-41.3,63.36-54,13.87-6.89,28.54-10.73,44.16-10.21C166.58,84,179.59,87.83,191.9,94c22.72,11.37,41.29,27.86,57.52,47.15,1.77,2.11,3.41,4.32,5.2,6.41,1.46,1.72,1.33,3.23,0,5A209.91,209.91,0,0,1,219.86,188c-11.41,9.08-23.6,16.86-37.27,22.13a91.82,91.82,0,0,1-33.27,6.39"/><path class="cls-1" d="M149.92,196.57c25.54.11,46.68-21,46.72-46.58s-20.84-46.35-46.52-46.56c-25.43-.2-46.74,21-46.71,46.57a46.84,46.84,0,0,0,46.51,46.57m52-46.54A52,52,0,0,1,150,201.85c-28.46,0-52-23.49-51.85-51.88.12-28.62,23.61-52.07,51.91-51.81A52,52,0,0,1,201.9,150"/><path class="cls-4" d="M150.07,174.3a24.31,24.31,0,1,0-24.38-24.21,24.45,24.45,0,0,0,24.38,24.21m-.15,22.27A46.84,46.84,0,0,1,103.41,150c0-25.53,21.28-46.77,46.71-46.57,25.68.21,46.55,21.1,46.52,46.56s-21.18,46.69-46.72,46.58"/><path class="cls-1" d="M150.07,174.3A24.31,24.31,0,1,1,174.36,150a24.44,24.44,0,0,1-24.29,24.31"/></g></g></svg>