<svg xmlns="http://www.w3.org/2000/svg" viewBox="0 0 300 300"><defs><style>.cls-1{fill:red;}.cls-2,.cls-5{fill:none;stroke:blue;}.cls-2{stroke-width:5px;}.cls-3{fill:blue;}.cls-4{fill:#fff;}.cls-5{stroke-miterlimit:10;stroke-width:0.5px;}</style></defs><g id="Layer_2" data-name="Layer 2"><g id="Layer_1-2" data-name="Layer 1"><path class="cls-1" d="M150,297.5A147.5,147.5,0,1,0,2.5,150,147.5,147.5,0,0,0,150,297.5"/><circle class="cls-2" cx="150" cy="150" r="147.5"/><path class="cls-3" d="M209.58,149.94A59.77,59.77,0,0,0,150,90.32C117.47,90,90.47,117,90.33,149.87c-.13,32.63,26.88,59.66,59.59,59.63s59.69-26.86,59.66-59.56m-60.44,76.38c-17.84-.13-35.1-5.36-51.33-14.09-24.3-13.07-44.49-31.1-62.11-52.14-2.08-2.49-4.05-5.07-6.12-7.56a3.63,3.63,0,0,1-.08-5.12c20.06-25.64,43.4-47.47,72.82-62.11,15.94-7.93,32.8-12.34,50.75-11.74,15.91.53,30.86,4.89,45,12,26.11,13.07,47.46,32,66.11,54.19,2,2.42,3.93,5,6,7.37,1.67,2,1.53,3.71,0,5.71a241.54,241.54,0,0,1-39.92,40.73C217.11,204,203.1,212.92,187.38,219a105.47,105.47,0,0,1-38.24,7.35"/><path class="cls-4" d="M149.17,216.54a91.82,91.82,0,0,0,33.27-6.39c13.68-5.26,25.86-13.05,37.27-22.13a209.54,209.54,0,0,0,34.73-35.45c1.36-1.74,1.49-3.25,0-5-1.78-2.09-3.43-4.31-5.2-6.41-16.23-19.3-34.8-35.78-57.52-47.15-12.31-6.16-25.32-10-39.16-10.42C137,83.11,122.3,87,108.43,93.85c-25.6,12.73-45.9,31.73-63.36,54a3.14,3.14,0,0,0,.08,4.45c1.79,2.17,3.5,4.42,5.31,6.58,15.34,18.31,32.91,34,54.05,45.36,14.12,7.6,29.14,12.15,44.66,12.26"/><path class="cls-1" d="M201.75,150.09a52,52,0,0,0-51.84-51.87C121.61,98,98.12,121.42,98,150c-.12,28.39,23.39,51.91,51.85,51.88a52,52,0,0,0,51.9-51.82m-52.58,66.45c-15.52-.11-30.54-4.66-44.66-12.26-21.14-11.37-38.71-27.05-54-45.36-1.81-2.16-3.52-4.41-5.31-6.58a3.14,3.14,0,0,1-.08-4.45c17.46-22.31,37.76-41.31,63.36-54C122.3,87,137,83.11,152.59,83.63c13.84.47,26.85,4.26,39.16,10.42,22.72,11.37,41.29,27.85,57.52,47.15,1.77,2.1,3.42,4.32,5.2,6.41,1.46,1.71,1.33,3.22,0,5A209.54,209.54,0,0,1,219.71,188c-11.41,9.08-23.59,16.87-37.27,22.13a91.82,91.82,0,0,1-33.27,6.39"/><path class="cls-3" d="M149.77,196.64a46.86,46.86,0,0,0,46.72-46.59c0-25.46-20.84-46.35-46.52-46.56-25.43-.2-46.74,21-46.71,46.57a46.86,46.86,0,0,0,46.51,46.58m52-46.55a52,52,0,0,1-51.9,51.82c-28.46,0-52-23.49-51.85-51.88.12-28.61,23.61-52.06,51.91-51.81a52,52,0,0,1,51.84,51.87"/><path class="cls-1" d="M149.92,174.37a24.32,24.32,0,1,0-24.38-24.22,24.45,24.45,0,0,0,24.38,24.22m-.15,22.27a46.85,46.85,0,0,1-46.51-46.58c0-25.53,21.28-46.77,46.71-46.57,25.68.21,46.55,21.1,46.52,46.56a46.86,46.86,0,0,1-46.72,46.59"/><path class="cls-1" d="M149.92,174.37a24.32,24.32,0,1,1,24.29-24.31,24.46,24.46,0,0,1-24.29,24.31"/><path class="cls-3" d="M150,174.77a24.32,24.32,0,1,1,24.29-24.31A24.46,24.46,0,0,1,150,174.77"/><path class="cls-3" d="M111.36,177.16l64.8-64.83c-15-11.15-41.25-13-59.53,5.21-18.1,18-16.6,44.28-5.27,59.62m76.36-53.28L122.9,188.73a46.57,46.57,0,0,0,64.82-64.85M149.64,90.6a59.92,59.92,0,1,1-60,58.83,59.92,59.92,0,0,1,60-58.83"/><path class="cls-1" d="M110.08,172.26l64.11-64.15c-14.89-11-40.81-12.89-58.9,5.15-17.91,17.87-16.43,43.81-5.21,59m75.54-52.72q-32.07,32.08-64.13,64.16a46.07,46.07,0,0,0,64.13-64.16M148,86.61A59.28,59.28,0,1,1,88.6,144.82,59.27,59.27,0,0,1,148,86.61"/><path class="cls-5" d="M110.08,172.26l64.11-64.15c-14.89-11-40.81-12.89-58.9,5.15C97.38,131.13,98.86,157.07,110.08,172.26Zm75.54-52.72q-32.07,32.08-64.13,64.16a46.07,46.07,0,0,0,64.13-64.16ZM148,86.61A59.28,59.28,0,1,1,88.6,144.82,59.27,59.27,0,0,1,148,86.61Z"/><path class="cls-3" d="M209.73,150.12A59.76,59.76,0,0,0,150.14,90.5c-32.52-.29-59.52,26.66-59.66,59.55-.13,32.63,26.88,59.66,59.59,59.63s59.69-26.86,59.66-59.56m-60.44,76.37c-17.84-.12-35.09-5.35-51.33-14.08-24.3-13.08-44.49-31.1-62.11-52.14-2.08-2.49-4.05-5.07-6.11-7.56a3.63,3.63,0,0,1-.09-5.12c20.06-25.64,43.4-47.47,72.82-62.11,15.94-7.93,32.8-12.34,50.75-11.74,15.91.53,30.86,4.89,45,12,26.11,13.06,47.46,32,66.11,54.19,2,2.42,3.93,5,6,7.37,1.68,2,1.53,3.7,0,5.7a240.85,240.85,0,0,1-39.92,40.74c-13.11,10.44-27.12,19.39-42.84,25.44a105.22,105.22,0,0,1-38.24,7.34"/><path class="cls-4" d="M149.32,216.72a91.82,91.82,0,0,0,33.27-6.39c13.68-5.27,25.86-13.05,37.27-22.13a210.35,210.35,0,0,0,34.74-35.45c1.35-1.74,1.48-3.25,0-5-1.78-2.1-3.43-4.31-5.2-6.41-16.23-19.3-34.8-35.79-57.52-47.15-12.31-6.16-25.32-10-39.16-10.42-15.62-.52-30.29,3.32-44.16,10.22-25.6,12.73-45.9,31.73-63.36,54a3.14,3.14,0,0,0,.08,4.45c1.79,2.17,3.51,4.42,5.32,6.58,15.33,18.3,32.9,34,54,45.36,14.12,7.6,29.14,12.15,44.66,12.26"/><path class="cls-1" d="M201.9,150.27A52,52,0,0,0,150.06,98.4c-28.3-.25-51.79,23.19-51.91,51.81C98,178.6,121.54,202.12,150,202.09a52,52,0,0,0,51.9-51.82m-52.58,66.45c-15.52-.11-30.54-4.66-44.66-12.26C83.52,193.09,66,177.4,50.62,159.1c-1.81-2.16-3.53-4.41-5.32-6.58a3.14,3.14,0,0,1-.08-4.45C62.68,125.76,83,106.76,108.58,94c13.87-6.9,28.54-10.74,44.16-10.22,13.84.46,26.85,4.26,39.16,10.42,22.72,11.36,41.29,27.85,57.52,47.15,1.77,2.1,3.42,4.31,5.2,6.41,1.46,1.71,1.33,3.22,0,5a210.35,210.35,0,0,1-34.74,35.45c-11.41,9.08-23.59,16.86-37.27,22.13a91.82,91.82,0,0,1-33.27,6.39"/><path class="cls-3" d="M149.92,196.82a46.87,46.87,0,0,0,46.72-46.59c0-25.46-20.84-46.35-46.52-46.56-25.43-.2-46.74,21-46.71,46.57a46.86,46.86,0,0,0,46.51,46.58m52-46.55A52,52,0,0,1,150,202.09c-28.46,0-52-23.49-51.85-51.88.12-28.62,23.61-52.06,51.91-51.81a52,52,0,0,1,51.84,51.87"/><path class="cls-1" d="M150.07,174.55a24.32,24.32,0,1,0-24.38-24.22,24.46,24.46,0,0,0,24.38,24.22m-.15,22.27a46.86,46.86,0,0,1-46.51-46.58c0-25.53,21.28-46.77,46.71-46.57,25.68.21,46.55,21.1,46.52,46.56a46.87,46.87,0,0,1-46.72,46.59"/><path class="cls-3" d="M150.07,174.55a24.32,24.32,0,1,1,24.29-24.31,24.46,24.46,0,0,1-24.29,24.31"/><path class="cls-1" d="M113.17,177.89,178,113.06c-15.05-11.15-41.24-13-59.53,5.21-18.09,18-16.6,44.28-5.26,59.62m76.35-53.28-64.81,64.85a46.57,46.57,0,0,0,64.81-64.85M151.45,91.33a59.92,59.92,0,1,1-60,58.83,59.92,59.92,0,0,1,60-58.83"/><path class="cls-3" d="M111.51,176.79,176.31,112c-15.05-11.15-41.25-13-59.53,5.21-18.1,18-16.6,44.27-5.27,59.62m76.36-53.28q-32.43,32.43-64.82,64.85a46.57,46.57,0,0,0,64.82-64.85M149.79,90.23a59.91,59.91,0,1,1-60,58.83,59.91,59.91,0,0,1,60-58.83"/></g></g></svg>