<svg xmlns="http://www.w3.org/2000/svg" viewBox="0 0 597.38 1441.02"><defs><style>.cls-1{fill:blue;}.cls-2{fill:#fff;}.cls-3{fill:red;}.cls-4{fill:none;stroke:blue;stroke-linecap:square;stroke-width:32px;}</style></defs><g id="Layer_2" data-name="Layer 2"><g id="Layer_1-2" data-name="Layer 1"><path class="cls-1" d="M337.59,1398.68c33.72-48.27,22.08-114.39-26.21-148.84C263.9,1216,196.54,1227.78,162.51,1276c-33.75,47.78-21.88,115.26,26.2,148.85,48.25,33.71,115.29,21.94,148.88-26.12m-167.32,50c-26.07-18.53-46-44-60.9-73.48C87.12,1331,76,1283.79,71.76,1234.76c-.5-5.79-.73-11.6-1.2-17.39-.32-4,1.24-6.42,5.14-7.61,55.83-17,112.57-25.09,170.83-16.33,31.56,4.74,60.87,15.61,86.61,35,22.82,17.14,40.3,38.92,53.8,63.87,24.92,46,36.78,95.82,41.37,147.59.5,5.64.66,11.32,1.2,17,.44,4.62-1.57,7-5.91,8.35-32.8,10.08-66.25,16.67-100.53,18.78-30,1.86-59.77.59-89.08-6.68a189.2,189.2,0,0,1-63.72-28.55" transform="translate(0 -43.68)"/><path class="cls-2" d="M180.36,1434.37a164.72,164.72,0,0,0,55.44,24.84c25.51,6.33,51.41,7.43,77.51,5.82a376.27,376.27,0,0,0,87.47-16.34c3.78-1.16,5.52-3.25,5.14-7.27-.47-4.91-.6-9.85-1-14.76-4-45-14.32-88.35-36-128.41-11.74-21.7-26.95-40.65-46.81-55.57-22.4-16.83-47.9-26.28-75.36-30.41-50.69-7.62-100.05-.6-148.63,14.21-3.39,1-4.75,3.16-4.47,6.62.41,5,.61,10.09,1,15.13,3.69,42.66,13.36,83.76,32.71,122.21,12.94,25.69,30.31,47.81,53,63.93" transform="translate(0 -43.68)"/><path class="cls-1" d="M201.72,1405.76c37.41,26.41,90.14,17.19,116.53-20.39,26.23-37.35,17.06-89.5-20.45-116.21-37.14-26.45-90.28-17.16-116.49,20.36s-17,89.81,20.41,116.24m124.22-14.91c-29.22,41.82-87.55,52.06-129.53,22.73-41.83-29.23-52.17-87.94-22.8-129.52,29.61-41.9,88.22-52.19,129.53-22.71,42,30,52.14,87.5,22.8,129.5" transform="translate(0 -43.68)"/><path class="cls-1" d="M224.84,1373.2a43.59,43.59,0,1,0-10.91-60.64,43.85,43.85,0,0,0,10.91,60.64m-23.12,32.56c-37.43-26.43-46.61-78.73-20.41-116.24s79.35-46.81,116.49-20.36c37.51,26.71,46.68,78.86,20.45,116.22-26.39,37.57-79.12,46.79-116.53,20.38" transform="translate(0 -43.68)"/><path class="cls-3" d="M224.84,1373.2a43.59,43.59,0,1,1,60.68-10.72,43.85,43.85,0,0,1-60.68,10.72" transform="translate(0 -43.68)"/><path class="cls-4" d="M197.42,964.84a42.05,42.05,0,0,0-58,12.86L22.57,1161.14a42,42,0,0,0,12.85,58l41.75,26.59a42,42,0,0,0,58-12.85L252,1049.43a42,42,0,0,0-12.85-58Z" transform="translate(0 -43.68)"/><path class="cls-4" d="M404.09,900.48a42,42,0,0,0-58.66-9.29L169.47,1019a42.05,42.05,0,0,0-9.3,58.67l14.67,20.18a42,42,0,0,0,58.66,9.29l176-127.84a42.05,42.05,0,0,0,9.3-58.67Z" transform="translate(0 -43.68)"/><rect class="cls-4" x="297.25" y="589.88" width="133.5" height="301.5" rx="42"/><path class="cls-4" d="M564.16,472a40.47,40.47,0,0,0-56.3,9.92L381.3,662.72a40.41,40.41,0,1,0,66.21,46.36L574.08,528.33A40.47,40.47,0,0,0,564.16,472Z" transform="translate(0 -43.68)"/><path class="cls-4" d="M390.61,237.36a42.05,42.05,0,0,0-23.69,54.47l79.72,202.36a42,42,0,0,0,54.47,23.69l46.06-18.14a42.06,42.06,0,0,0,23.68-54.48L491.14,242.9a42.06,42.06,0,0,0-54.47-23.69Z" transform="translate(0 -43.68)"/><path class="cls-1" d="M295.43,55.61l4.89,18.89q19.21-2.91,34.08-.61a65.53,65.53,0,0,1,27.88,11.46,76.62,76.62,0,0,1,16.9,15.22q6.74,8.34,8.77,16.21a21.33,21.33,0,0,1-2.48,16.78,21.7,21.7,0,0,1-13.82,10.38q-17.14,4.44-27-12.79-11.43-20.37-35.32-21.84l18.82,72.76q23.22.33,37.35,1.91a74,74,0,0,1,26.66,8.22,67.55,67.55,0,0,1,22.65,18.68,74.6,74.6,0,0,1,13.44,27.78,80.15,80.15,0,0,1,.3,39.76q-4.86,19.83-20.2,35.55t-39.81,24.29l11.26,43.56q2.67,10.31,1.88,15.56t-7.61,7q-6.3,1.64-9.83-1.56t-5.61-11.24l-12.21-47.22q-21.06,3-38.26-.37a87.38,87.38,0,0,1-30.26-11.68,78.51,78.51,0,0,1-21-18.82A62.22,62.22,0,0,1,246,291.58q-2.18-8.4,2.64-16.83a22.66,22.66,0,0,1,14.62-11,23.83,23.83,0,0,1,14.24.24,19.57,19.57,0,0,1,10.19,8.37,225.14,225.14,0,0,0,13.9,19.82,43.57,43.57,0,0,0,14.17,11.17q8.72,4.47,21.3,4.76l-21-81.33q-25.11-.4-42.91-4.3a68.13,68.13,0,0,1-31.4-16.05q-13.59-12.15-19.56-35.24-7.78-30.09,6.4-54.28T278.1,80.24L273.31,61.7q-3.8-14.69,7.22-17.54Q291.72,41.27,295.43,55.61Zm8.82,125.73-17.32-67q-13.56,8.18-19.93,17.47t-2.61,23.82q3.57,13.81,13.1,18.91T304.25,181.34Zm35.65,46.2,19.81,76.62q16.76-8.07,23.62-21.23a37.09,37.09,0,0,0,3.2-27.32q-3.93-15.23-15.44-21.11T339.9,227.54Z" transform="translate(0 -43.68)"/></g></g></svg>