<svg xmlns="http://www.w3.org/2000/svg" viewBox="0 0 574.2 158.83"><defs><style>.cls-1{fill:blue;}.cls-2{fill:#fff;}.cls-3{fill:red;}.cls-4,.cls-5{fill:none;stroke:blue;}.cls-4{stroke-width:0.5px;}.cls-5{stroke-width:2px;}</style></defs><g id="Layer_2" data-name="Layer 2"><g id="Layer_1-2" data-name="Layer 1"><path class="cls-1" d="M489.45,62.16A46.24,46.24,0,0,0,443.33,16c-25.17-.22-46.07,20.63-46.18,46.09a46.15,46.15,0,0,0,92.3,0m-46.78,59.12c-13.81-.1-27.16-4.14-39.73-10.91C384.13,100.26,368.51,86.3,354.87,70c-1.61-1.93-3.14-3.92-4.74-5.85a2.82,2.82,0,0,1-.06-4c15.53-19.84,33.59-36.74,56.36-48.07C418.77,6,431.82,2.58,445.71,3a83.48,83.48,0,0,1,34.84,9.27c20.21,10.11,36.73,24.78,51.18,41.94,1.57,1.88,3,3.84,4.62,5.7,1.3,1.53,1.18,2.87,0,4.42a187.06,187.06,0,0,1-30.9,31.54c-10.15,8.08-21,15-33.16,19.69a81.83,81.83,0,0,1-29.6,5.68"/><path class="cls-2" d="M442.69,113.71a71,71,0,0,0,25.76-4.94c10.58-4.08,20-10.1,28.85-17.13A162.32,162.32,0,0,0,524.18,64.2c1.05-1.35,1.15-2.52,0-3.84-1.38-1.62-2.65-3.34-4-5-12.57-14.94-26.94-27.7-44.53-36.5a72.64,72.64,0,0,0-30.31-8.06c-12.09-.41-23.44,2.57-34.18,7.91-19.81,9.85-35.53,24.56-49,41.82a2.44,2.44,0,0,0,.06,3.45c1.39,1.68,2.72,3.42,4.12,5.09,11.86,14.17,25.46,26.31,41.82,35.11,10.94,5.89,22.56,9.41,34.57,9.49"/><path class="cls-2" d="M483.4,62.28a40.25,40.25,0,0,0-40.13-40.15c-21.91-.19-40.09,18-40.18,40.1a40.16,40.16,0,0,0,80.31.05m-40.71,51.43c-12-.08-23.63-3.6-34.57-9.49-16.36-8.8-30-20.94-41.82-35.11-1.4-1.67-2.73-3.41-4.12-5.09a2.44,2.44,0,0,1-.06-3.45c13.51-17.26,29.23-32,49-41.82,10.74-5.34,22.09-8.32,34.18-7.91a72.64,72.64,0,0,1,30.31,8.06c17.59,8.8,32,21.56,44.53,36.5,1.37,1.62,2.64,3.34,4,5,1.13,1.32,1,2.49,0,3.84A162.32,162.32,0,0,1,497.3,91.64c-8.83,7-18.27,13-28.85,17.13a71,71,0,0,1-25.76,4.94"/><path class="cls-1" d="M443.16,98.31a36.05,36.05,0,1,0,.15-72.1c-19.68-.15-36.17,16.29-36.15,36.05a36.27,36.27,0,0,0,36,36.05m40.24-36a40.16,40.16,0,0,1-80.31-.05c.09-22.15,18.27-40.29,40.18-40.1A40.25,40.25,0,0,1,483.4,62.28"/><path class="cls-3" d="M443.28,81.07A18.82,18.82,0,1,0,424.4,62.33a18.94,18.94,0,0,0,18.88,18.74m-.12,17.24a36.27,36.27,0,0,1-36-36.05c0-19.76,16.47-36.2,36.15-36a36.05,36.05,0,1,1-.15,72.1"/><path class="cls-1" d="M443.28,81.07a18.82,18.82,0,1,1,18.8-18.82,18.93,18.93,0,0,1-18.8,18.82"/><path class="cls-1" d="M413.43,83.23l50.15-50.17c-11.64-8.64-31.92-10.09-46.07,4s-12.85,34.28-4.08,46.15M472.53,42l-50.17,50.2A36,36,0,0,0,472.53,42M443.06,16.23a46.37,46.37,0,1,1-46.43,45.54,46.37,46.37,0,0,1,46.43-45.54"/><path class="cls-1" d="M569.2,103.92V19.2H559l.48,67.92L513.64,19.2H503v84.72h10.68L512.56,35,559,103.92ZM376.36,42.84c0,6.6-2.88,12.72-9.72,14.52a38.47,38.47,0,0,1-9.12.6H333.88v-29H360a26.4,26.4,0,0,1,6.84.6,12.36,12.36,0,0,1,8.64,7.68,17.29,17.29,0,0,1,.84,5.64m11.16.24c0-3.24-.6-14.28-10.08-20.28-5.64-3.6-11.28-3.6-17.88-3.6H323v84.72h10.92V68h24.48c6.48,0,9.72-.24,12.72-1.08,11-3,16.44-13.08,16.44-23.88M304.6,73.32V19.2H293.2V69.84c0,8.76-.24,17.88-8.64,23.28A22.55,22.55,0,0,1,272,96.48a28.78,28.78,0,0,1-7.32-.84,18.25,18.25,0,0,1-7.08-4.08c-4.32-4.08-5.28-9.72-5.52-11.64a67.46,67.46,0,0,1-.36-9.84V19.2H240.4V71.64c0,7.92,0,10.92,1.2,15A27.45,27.45,0,0,0,258,103.8a39.2,39.2,0,0,0,13.8,2.28c10,0,16.2-3,19.68-5.16a27.25,27.25,0,0,0,12.36-17.76,50.22,50.22,0,0,0,.72-9.84"/><path class="cls-4" d="M569.2,103.92V19.2H559l.48,67.92L513.64,19.2H503v84.72h10.68L512.56,35,559,103.92ZM376.36,42.84c0,6.6-2.88,12.72-9.72,14.52a38.47,38.47,0,0,1-9.12.6H333.88v-29H360a26.4,26.4,0,0,1,6.84.6,12.36,12.36,0,0,1,8.64,7.68A17.29,17.29,0,0,1,376.36,42.84Zm11.16.24c0-3.24-.6-14.28-10.08-20.28-5.64-3.6-11.28-3.6-17.88-3.6H323v84.72h10.92V68h24.48c6.48,0,9.72-.24,12.72-1.08C382.12,64,387.52,53.88,387.52,43.08ZM304.6,73.32V19.2H293.2V69.84c0,8.76-.24,17.88-8.64,23.28A22.55,22.55,0,0,1,272,96.48a28.78,28.78,0,0,1-7.32-.84,18.25,18.25,0,0,1-7.08-4.08c-4.32-4.08-5.28-9.72-5.52-11.64a67.46,67.46,0,0,1-.36-9.84V19.2H240.4V71.64c0,7.92,0,10.92,1.2,15A27.45,27.45,0,0,0,258,103.8a39.2,39.2,0,0,0,13.8,2.28c10,0,16.2-3,19.68-5.16a27.25,27.25,0,0,0,12.36-17.76A50.22,50.22,0,0,0,304.6,73.32Z"/><path class="cls-1" d="M570.81,158.36V128H567l.17,20.68L562.43,128h-4.3v30.36h3.74l-.34-22.28,4.86,22.28Zm-21.41-7.14c0,1.81.13,4.13-2.45,4.13-2.06,0-2.32-1.55-2.32-3.18V135.91c0-2.28-.09-3.52,1-4.21a2.71,2.71,0,0,1,1.46-.43,2.06,2.06,0,0,1,1.85.9c.47.73.47,1.89.47,3.74Zm4,.34V137.12c0-3.4,0-5-.9-6.5a5.08,5.08,0,0,0-1.38-1.63,6.18,6.18,0,0,0-4-1.21,6.59,6.59,0,0,0-4.18,1.34c-2.36,1.8-2.36,4.43-2.36,7.14v15.13a9.84,9.84,0,0,0,.3,3.18,5.47,5.47,0,0,0,3.27,3.7,7.5,7.5,0,0,0,2.54.39c.9,0,4.85,0,6.14-3.53a10.24,10.24,0,0,0,.52-3.57M536,128h-4v30.36h4Zm-7.27,3.57V128H515.35v3.57H520v26.79H524V131.57Zm-20.59,17.5h-3.62l1.68-15.78Zm5.2,9.29L508.68,128h-4.86l-4.3,30.36h3.91l.69-5.59h4.56l.78,5.59Zm-17,0V142.19H490v3.7h2.45v6.88a2.7,2.7,0,0,1-.86,2.41,2.08,2.08,0,0,1-1.16.3,1.71,1.71,0,0,1-1.68-.95,7.11,7.11,0,0,1-.3-2.71V134.36c0-1-.09-2.36.82-3a1.9,1.9,0,0,1,1.2-.34c1.81,0,1.76,1.63,1.81,2.11,0,.3,0,.64,0,.94v3.44H496v-3.18c0-2.58-.17-3.57-1-4.69a5.18,5.18,0,0,0-4.43-2c-3.79,0-5.12,2.32-5.59,3.74a13.39,13.39,0,0,0-.52,4.81v15.22c0,2.28.09,4.65,2,6.28a5.12,5.12,0,0,0,3.36,1.12,4.12,4.12,0,0,0,3.74-1.89l.39,1.42ZM479.83,128h-4v30.36h4ZM473,128h-4l-3,24.34L462.93,128h-4l4.65,30.36h4.73Zm-21,21.07h-3.62L450,133.29Zm5.2,9.29L452.48,128h-4.86l-4.3,30.36h3.92l.68-5.59h4.56l.78,5.59Zm-17.07,0V128h-3.79l.18,20.68L431.71,128h-4.3v30.36h3.74l-.34-22.28,4.86,22.28Zm-30.57-20.94c0,2.71-.35,3.22-2.15,3.22h-1.77v-9h2.19a2.19,2.19,0,0,1,1.3.26,1.44,1.44,0,0,1,.34.78,14.27,14.27,0,0,1,.09,1.76Zm4.81,20.94-3.7-14.54c2.24-.56,2.89-1.76,2.89-5.46v-4.47c0-2.75-.31-3.91-1.21-4.82a4.77,4.77,0,0,0-3.4-1.07h-7.35v30.36h4V144.3h1.33l3.36,14.06Zm-21.24-9.29h-3.61l1.68-15.78Zm5.2,9.29L393.62,128h-4.86l-4.3,30.36h3.91l.69-5.59h4.56l.77,5.59Zm-15.48,0v-3.74H376.2V128h-4v30.36ZM367.39,151V128h-4v23.22c0,2,0,3.1-.9,3.83a2.39,2.39,0,0,1-1.55.47c-2.45,0-2.41-2.32-2.41-4V128h-3.91v23.69a8.85,8.85,0,0,0,.51,3.57c1.25,3.36,4.61,3.57,5.68,3.57s5-.21,6.15-4.21a15.81,15.81,0,0,0,.39-3.62m-17.07.48V145.8h-4.05v5.89c0,1.12.05,2.41-1,3.14a2.34,2.34,0,0,1-1.54.43,2.19,2.19,0,0,1-2.41-2.45,8.87,8.87,0,0,1,0-1V135c0-1.16-.09-2.45.9-3.31a2.41,2.41,0,0,1,1.63-.52c2.67,0,2.45,2.5,2.45,3.14V139h4.05v-3.87a10.15,10.15,0,0,0-.65-4.22,4.66,4.66,0,0,0-1.42-1.89A6.14,6.14,0,0,0,344,127.7a6.94,6.94,0,0,0-2.54.39c-3.87,1.24-4.08,5.07-4.17,6.23,0,.69-.09,1.38-.09,2.06v14.67c0,1.76,0,3.65,1.08,5.2a6.06,6.06,0,0,0,5.37,2.5,6.22,6.22,0,0,0,5.51-2.67,7.58,7.58,0,0,0,1.12-4.6m-17.42,0V145.8h-4v5.89c0,1.12,0,2.41-1,3.14a2.35,2.35,0,0,1-1.55.43c-2.23,0-2.36-1.63-2.41-2.45a8.87,8.87,0,0,1,0-1V135c0-1.16-.09-2.45.9-3.31a2.46,2.46,0,0,1,1.64-.52c2.66,0,2.45,2.5,2.45,3.14V139h4v-3.87a10.15,10.15,0,0,0-.64-4.22,4.85,4.85,0,0,0-1.42-1.89,6.18,6.18,0,0,0-4.22-1.33,6.92,6.92,0,0,0-2.53.39c-3.87,1.24-4.09,5.07-4.18,6.23,0,.69-.08,1.38-.08,2.06v14.67c0,1.76,0,3.65,1.07,5.2a6.06,6.06,0,0,0,5.38,2.5,6.21,6.21,0,0,0,5.5-2.67,7.58,7.58,0,0,0,1.12-4.6m-21.76-.26c0,1.81.13,4.13-2.45,4.13-2.06,0-2.32-1.55-2.32-3.18V135.91c0-2.28-.09-3.52,1-4.21a2.73,2.73,0,0,1,1.46-.43,2,2,0,0,1,1.85.9c.47.73.47,1.89.47,3.74Zm4,.34V137.12c0-3.4,0-5-.9-6.5a5,5,0,0,0-1.38-1.63,6.18,6.18,0,0,0-3.95-1.21,6.59,6.59,0,0,0-4.18,1.34c-2.36,1.8-2.36,4.43-2.36,7.14v15.13a9.84,9.84,0,0,0,.3,3.18,5.47,5.47,0,0,0,3.27,3.7,7.5,7.5,0,0,0,2.54.39c.9,0,4.86,0,6.14-3.53a10.24,10.24,0,0,0,.52-3.57M289.9,139.14v-4a6.82,6.82,0,0,0-.94-.09c-2,0-2.8,1.33-3.53,2.88v-2.62H281.9v23.05h3.44V142.92c0-1.29,0-2.88,1-3.87a2,2,0,0,1,1.55-.6,3.24,3.24,0,0,1,2.06.69M274,153.59c0,1.29-.21,2.32-1.85,2.32-1.8,0-1.63-1.59-1.63-2.07V140.3c0-1.25.13-1.81.73-2.24a2.09,2.09,0,0,1,1.08-.26c1.5,0,1.67,1,1.67,2.2Zm3.4-.31V140.34a7.3,7.3,0,0,0-.34-2.71c-1-2.71-4.09-2.66-4.73-2.66a5.76,5.76,0,0,0-2.11.3,3.75,3.75,0,0,0-1.55.9c-1.63,1.42-1.59,3.44-1.59,5.37v10.63c0,2.1-.08,4.47,2,5.8a5.65,5.65,0,0,0,3.14.78c3.18,0,4.38-1.6,4.86-2.93a7.26,7.26,0,0,0,.34-2.54M264,138.23v-2.92h-2v-2.92c0-1.42.73-1.38,1.9-1.34v-2.92a18.88,18.88,0,0,0-2.28-.13c-1.12,0-2.41.17-2.88,1.38a5,5,0,0,0-.26,2v4h-1.94v2.92h1.89v20.13H262V138.23ZM245.35,128h-4l-3.05,12.13L235.46,128h-4.08l4.6,17.67v12.69h4.34V145.63Zm-16.77,23.48V145.8h-4v5.89c0,1.12.05,2.41-1,3.14a2.34,2.34,0,0,1-1.54.43,2.19,2.19,0,0,1-2.41-2.45,7.11,7.11,0,0,1,0-1V135c0-1.16-.08-2.45.91-3.31a2.41,2.41,0,0,1,1.63-.52c2.67,0,2.45,2.5,2.45,3.14V139h4v-3.87a10.15,10.15,0,0,0-.64-4.22,4.75,4.75,0,0,0-1.42-1.89,6.14,6.14,0,0,0-4.21-1.33,6.94,6.94,0,0,0-2.54.39c-3.87,1.24-4.09,5.07-4.17,6.23,0,.69-.09,1.38-.09,2.06v14.67c0,1.76,0,3.65,1.08,5.2a6.06,6.06,0,0,0,5.37,2.5,6.23,6.23,0,0,0,5.51-2.67,7.57,7.57,0,0,0,1.11-4.6m-21.5-2.41h-3.61l1.68-15.78Zm5.21,9.29L207.6,128h-4.86l-4.3,30.36h3.91l.69-5.59h4.56l.77,5.59ZM196.85,128H192.9l-3,24.34L186.83,128h-4l4.65,30.36h4.73Zm-17.2,0h-4v30.36h4Zm-12.34,9.42c0,2.71-.34,3.22-2.15,3.22H163.4v-9h2.19a2.15,2.15,0,0,1,1.29.26,1.44,1.44,0,0,1,.34.78,12.46,12.46,0,0,1,.09,1.76Zm4.82,20.94-3.7-14.54c2.23-.56,2.88-1.76,2.88-5.46v-4.47c0-2.75-.3-3.91-1.21-4.82a4.72,4.72,0,0,0-3.39-1.07h-7.36v30.36h4V144.3h1.34L168,158.36Zm-20.47-18.71c0,1-.34,1.34-1.42,1.34H147.7V131.7h2.45c1.25,0,1.51.39,1.51,1.5Zm4-.68V133.2c0-1.29.09-3-.77-4-1-1.33-3.06-1.16-3.36-1.16h-7.82v30.36h3.91V144.6h4c1.59,0,2.36-.13,3-.73,1-.91,1-2.37,1-4.9m-29.93,14c0,1.42-.38,1.68-1.29,1.68h-2.66V131.7h2.32a1.36,1.36,0,0,1,1.59,1.2,6.78,6.78,0,0,1,0,.9Zm4,.17V132.9c0-1.46,0-2.92-1.29-4a5,5,0,0,0-3.36-.9h-7.35v30.36h7.7c.9,0,3.44.17,4.08-2.75a10.64,10.64,0,0,0,.22-2.5m-15.7,5.25v-3.83h-5.93V144.47h5.29v-3.79h-5.34v-8.9h6V128h-10v30.36Zm-13.54-26.79V128H87.16v3.57h4.6v26.79h4.09V131.57ZM83.76,128h-4v30.36h4ZM75,158.36V128H69.1l-2.88,20.17L63,128H57.23v30.36H61V133.93l3.44,24.43h3.4l3.48-24.43v24.43ZM52.5,128h-4v30.36h4Zm-6.92,30.36v-3.74H39V128H35v30.36Zm-15.44,0V128H26.36l.17,20.68L21.76,128h-4.3v30.36H21.2l-.34-22.28,4.85,22.28ZM12.73,151V128h-4v23.22c0,2,0,3.1-.9,3.83a2.39,2.39,0,0,1-1.55.47c-2.45,0-2.41-2.32-2.41-4V128H0v23.69a8.64,8.64,0,0,0,.52,3.57c1.24,3.36,4.6,3.57,5.67,3.57s5-.21,6.15-4.21a15.81,15.81,0,0,0,.39-3.62"/><path class="cls-1" d="M490.71,59.16A46.24,46.24,0,0,0,444.59,13c-25.17-.22-46.07,20.63-46.18,46.09a46.15,46.15,0,0,0,92.3,0m-46.78,59.12c-13.8-.1-27.16-4.14-39.73-10.91C385.4,97.26,369.77,83.3,356.13,67c-1.61-1.93-3.14-3.92-4.73-5.85a2.81,2.81,0,0,1-.07-4c15.53-19.84,33.59-36.74,56.36-48.07C420,3,433.08-.42,447,0a83.48,83.48,0,0,1,34.84,9.27C502,19.42,518.55,34.09,533,51.25c1.57,1.88,3,3.84,4.62,5.7,1.3,1.53,1.18,2.87,0,4.42a187.06,187.06,0,0,1-30.9,31.54c-10.15,8.08-21,15-33.16,19.69a81.83,81.83,0,0,1-29.6,5.68"/><path class="cls-2" d="M444,110.71a71,71,0,0,0,25.76-4.94c10.58-4.08,20-10.1,28.85-17.13A162.32,162.32,0,0,0,525.44,61.2c1-1.35,1.15-2.52,0-3.84-1.38-1.62-2.65-3.34-4-5-12.57-14.94-26.94-27.7-44.53-36.5A72.6,72.6,0,0,0,446.6,7.84c-12.09-.41-23.44,2.57-34.18,7.91-19.81,9.85-35.53,24.56-49,41.82a2.44,2.44,0,0,0,.06,3.45c1.39,1.68,2.72,3.42,4.12,5.09,11.87,14.17,25.46,26.31,41.83,35.11,10.93,5.89,22.55,9.41,34.56,9.49"/><path class="cls-1" d="M444.42,95.31a36.05,36.05,0,1,0,.15-72.1c-19.68-.15-36.17,16.29-36.15,36.05a36.27,36.27,0,0,0,36,36.05m40.24-36a40.16,40.16,0,0,1-80.31-.05c.09-22.15,18.27-40.29,40.18-40.1a40.25,40.25,0,0,1,40.13,40.15"/><path class="cls-1" d="M444.54,78.07a18.82,18.82,0,1,0-18.88-18.74,18.94,18.94,0,0,0,18.88,18.74m-.12,17.24a36.27,36.27,0,0,1-36-36.05c0-19.76,16.47-36.2,36.15-36a36.05,36.05,0,1,1-.15,72.1"/><path class="cls-1" d="M444.54,78.07a18.82,18.82,0,1,1,18.8-18.82,18.93,18.93,0,0,1-18.8,18.82"/><path class="cls-3" d="M414.69,80.23l50.15-50.17c-11.64-8.64-31.92-10.09-46.07,4s-12.85,34.28-4.08,46.15M473.79,39l-50.17,50.2A36,36,0,0,0,473.79,39M444.32,13.23a46.37,46.37,0,1,1-46.43,45.54,46.37,46.37,0,0,1,46.43-45.54"/><path class="cls-3" d="M573.2,100.21V15.49H563l.48,67.92L517.64,15.49H507v84.72h10.68l-1.08-68.88L563,100.21ZM380.36,39.13c0,6.6-2.88,12.72-9.72,14.52a38.47,38.47,0,0,1-9.12.6H337.88v-29H364a26.4,26.4,0,0,1,6.84.6,12.36,12.36,0,0,1,8.64,7.68,17.29,17.29,0,0,1,.84,5.64m11.16.24c0-3.24-.6-14.28-10.08-20.28-5.64-3.6-11.28-3.6-17.88-3.6H327v84.72h10.92V64.33h24.48c6.48,0,9.72-.24,12.72-1.08,11-3,16.44-13.08,16.44-23.88M308.6,69.61V15.49H297.2V66.13c0,8.76-.24,17.88-8.64,23.28A22.55,22.55,0,0,1,276,92.77a28.78,28.78,0,0,1-7.32-.84,18.25,18.25,0,0,1-7.08-4.08c-4.32-4.08-5.28-9.72-5.52-11.64a67.46,67.46,0,0,1-.36-9.84V15.49H244.4V67.93c0,7.92,0,10.92,1.2,15A27.45,27.45,0,0,0,262,100.09a39.2,39.2,0,0,0,13.8,2.28c10,0,16.2-3,19.68-5.16a27.25,27.25,0,0,0,12.36-17.76,50.22,50.22,0,0,0,.72-9.84"/><path class="cls-5" d="M573.2,100.21V15.49H563l.48,67.92L517.64,15.49H507v84.72h10.68l-1.08-68.88L563,100.21ZM380.36,39.13c0,6.6-2.88,12.72-9.72,14.52a38.47,38.47,0,0,1-9.12.6H337.88v-29H364a26.4,26.4,0,0,1,6.84.6,12.36,12.36,0,0,1,8.64,7.68A17.29,17.29,0,0,1,380.36,39.13Zm11.16.24c0-3.24-.6-14.28-10.08-20.28-5.64-3.6-11.28-3.6-17.88-3.6H327v84.72h10.92V64.33h24.48c6.48,0,9.72-.24,12.72-1.08C386.12,60.25,391.52,50.17,391.52,39.37ZM308.6,69.61V15.49H297.2V66.13c0,8.76-.24,17.88-8.64,23.28A22.55,22.55,0,0,1,276,92.77a28.78,28.78,0,0,1-7.32-.84,18.25,18.25,0,0,1-7.08-4.08c-4.32-4.08-5.28-9.72-5.52-11.64a67.46,67.46,0,0,1-.36-9.84V15.49H244.4V67.93c0,7.92,0,10.92,1.2,15A27.45,27.45,0,0,0,262,100.09a39.2,39.2,0,0,0,13.8,2.28c10,0,16.2-3,19.68-5.16a27.25,27.25,0,0,0,12.36-17.76A50.22,50.22,0,0,0,308.6,69.61Z"/></g></g></svg>