<svg xmlns="http://www.w3.org/2000/svg" viewBox="0 0 358.82 225.75"><defs><style>.cls-1{fill:blue;}.cls-2{fill:#fff;}.cls-3{fill:red;}</style></defs><g id="Layer_2" data-name="Layer 2"><g id="Layer_1-2" data-name="Layer 1"><path class="cls-1" d="M267.53,112.92c0-48.52-39.15-87.64-88-88.07-48.06-.43-87.94,39.38-88.14,88-.2,48.21,39.71,88.14,88,88.09,48.49,0,88.18-39.68,88.13-88M178.24,225.75c-26.35-.19-51.84-7.91-75.82-20.81-35.9-19.32-65.73-45.94-91.76-77-3.08-3.67-6-7.48-9-11.17-2.1-2.53-2.2-4.91-.13-7.56C31.14,71.31,65.62,39.05,109.08,17.43,132.62,5.71,157.54-.81,184.05.08c23.51.79,45.6,7.23,66.5,17.68,38.57,19.31,70.1,47.3,97.67,80.06,3,3.58,5.79,7.33,8.82,10.88,2.48,2.91,2.26,5.48,0,8.44a356.18,356.18,0,0,1-59,60.18C278.66,192.75,258,206,234.74,214.9a155.92,155.92,0,0,1-56.5,10.85"/><path class="cls-2" d="M178.29,211.31a135.6,135.6,0,0,0,49.15-9.44c20.21-7.78,38.21-19.28,55.06-32.7a309.71,309.71,0,0,0,51.32-52.36c2-2.57,2.19-4.81,0-7.34-2.63-3.09-5.06-6.36-7.67-9.47-24-28.51-51.42-52.86-85-69.65C223,21.25,203.79,15.65,183.34,15c-23.07-.77-44.75,4.9-65.23,15.09-37.82,18.82-67.82,46.89-93.6,79.84-1.8,2.3-1.72,4.37.11,6.58,2.65,3.2,5.18,6.52,7.85,9.71,22.66,27,48.61,50.22,79.84,67,20.87,11.23,43.05,18,66,18.11"/><path class="cls-3" d="M179.4,149a35.92,35.92,0,1,0-36-35.78,36.13,36.13,0,0,0,36,35.78m-.21,32.89c-37.76-.15-68.67-31.1-68.72-68.8s31.44-69.1,69-68.8c37.94.31,68.78,31.17,68.73,68.78-.06,37.83-31.29,69-69,68.82"/><path class="cls-1" d="M179.51,149.59a35.92,35.92,0,1,1,35.88-35.91,36.12,36.12,0,0,1-35.88,35.91"/><path class="cls-1" d="M122.93,152.94l94.59-94.65c-22-16.29-60.21-19-86.91,7.6-26.42,26.36-24.23,64.64-7.68,87.05M234.4,75.15l-94.63,94.68c23.95,17.27,61.51,17.72,86.92-7.68s25.09-62.86,7.71-87M178.81,26.56a87.47,87.47,0,1,1-87.58,85.88,87.46,87.46,0,0,1,87.58-85.88"/></g></g></svg>