<svg xmlns="http://www.w3.org/2000/svg" viewBox="0 0 511.62 595.65"><defs><style>.cls-1{fill:none;stroke:blue;stroke-linecap:square;stroke-width:19.05px;}</style></defs><g id="Layer_2" data-name="Layer 2"><g id="Layer_1-2" data-name="Layer 1"><path class="cls-1" d="M398.92,415a25,25,0,0,0-15.5,31.78l42.16,122.44a25,25,0,0,0,31.78,15.5l27.86-9.6a25,25,0,0,0,15.51-31.78L458.57,421a25,25,0,0,0-31.79-15.5Z"/><path class="cls-1" d="M445.52,294.89a25,25,0,0,0-26.07,23.89L413.8,448.14a25,25,0,0,0,23.89,26.07l14.84.65A25,25,0,0,0,478.6,451l5.65-129.36a25,25,0,0,0-23.89-26.08Z"/><path class="cls-1" d="M297.13,226.17a25,25,0,0,0,4,35.14l101.34,80.61a25,25,0,0,0,35.14-4L456,314.85a25,25,0,0,0-4-35.13L350.61,199.11a25,25,0,0,0-35.14,4Z"/><path class="cls-1" d="M305.22,61.52A24.11,24.11,0,0,0,289,91.43l37.32,126a24.06,24.06,0,1,0,46.14-13.67l-37.31-126A24.1,24.1,0,0,0,305.22,61.52Z"/><path class="cls-1" d="M131.56,55.4a25,25,0,0,0,16.6,31.23L272,124.49a25,25,0,0,0,31.23-16.61l8.61-28.18a25,25,0,0,0-16.6-31.22L171.4,10.62a25,25,0,0,0-31.23,16.6Z"/><path class="cls-1" d="M187.11,72a24.09,24.09,0,0,0-27.53-20L29.82,72.59a24.06,24.06,0,0,0,7.53,47.53L167.11,99.57A24.09,24.09,0,0,0,187.11,72Z"/></g></g></svg>