<svg xmlns="http://www.w3.org/2000/svg" viewBox="0 0 397.81 473.24"><defs><style>.cls-1,.cls-5{fill:none;stroke:blue;}.cls-1{stroke-width:0.5px;}.cls-2{fill:blue;}.cls-3{fill:#fff;}.cls-4{fill:red;}.cls-5{stroke-miterlimit:10;stroke-width:0.94px;}</style></defs><g id="Layer_2" data-name="Layer 2"><g id="Layer_1-2" data-name="Layer 1"><path class="cls-1" d="M396.86,469.69V257.89h-26.4l1.2,144.3-33.3-144.3h-30v211.8h26.1l-2.4-155.4L366,469.69ZM264,419.89c0,12.6.9,28.8-17.1,28.8-14.4,0-16.2-10.8-16.2-22.2V313.09c0-15.9-.6-24.6,6.9-29.4a19.17,19.17,0,0,1,10.2-3c7.5,0,11.1,3.6,12.9,6.3,3.3,5.1,3.3,13.2,3.3,26.1Zm27.9,2.4V321.49c0-23.7-.3-34.8-6.3-45.3a35,35,0,0,0-9.6-11.4c-10.5-8.4-23.1-8.4-27.6-8.4-15,0-24,5.4-29.1,9.3-16.5,12.6-16.5,30.9-16.5,49.8v105.6c0,12,.3,15.9,2.1,22.2a38.21,38.21,0,0,0,22.8,25.8c7.2,2.7,15.3,2.7,17.7,2.7,6.3,0,33.9.3,42.9-24.6C291.26,439.09,291.86,430.39,291.86,422.29Zm-125.7-83.1c0,7.2-2.4,9.3-9.9,9.3h-17.7v-64.8h17.1c8.7,0,10.5,2.7,10.5,10.5Zm28.2-4.8v-40.2c0-9,.6-20.7-5.4-28.2-7.2-9.3-21.3-8.1-23.4-8.1H111v211.8h27.3v-96h27.9c11.1,0,16.5-.9,21-5.1C194.06,362.29,194.36,352.09,194.36,334.39Zm-99.9,84V257.89H66.86v162c0,14.1-.3,21.6-6.3,26.7-3.9,3.3-9,3.3-10.8,3.3-17.1,0-16.8-16.2-16.8-28.2V257.89H5.66v165.3c0,12.9,1.2,18.9,3.6,24.9,8.7,23.4,32.1,24.9,39.6,24.9,8.4,0,35.1-1.5,42.9-29.4C94.46,433.69,94.46,420.19,94.46,418.39Z"/><path class="cls-1" d="M397.56,235.87V206.5H352V129.28h40.59v-29H351.69V31.93h45.87v-29H320.67v233ZM306.15,23V2.89H231.9V30h41.91L218.7,215.41v20.46h82.5V207.82H251.37Zm-134,141.57H144.46L157.33,43.48Zm39.93,71.28-36-233H138.85l-33,233h30l5.28-42.9h35l5.94,42.9Zm-120.45,0V111.79H42.49v28.38H61.3V193c0,6.27-.33,14.19-6.6,18.48a15.92,15.92,0,0,1-8.91,2.31c-7.92.33-11.55-4.62-12.87-7.26-2-4-2.31-11.22-2.31-20.79v-134c0-7.59-.66-18.15,6.27-23.1C38.53,27.31,41.5,26,46.12,26,60,25.66,59.65,38.53,60,42.16c0,2.31.33,5,.33,7.26v26.4H88.69V51.4c0-19.8-1.32-27.39-7.59-36C70.21.25,53.05.25,47.11.25,18.07.25,7.84,18.07,4.21,29c-3.3,9.24-4,17.82-4,37V182.74c0,17.49.66,35.64,15.51,48.18,9.9,8.25,21.12,8.58,25.74,8.58,17.49,0,24.42-8.58,28.71-14.52l3,10.89Z"/><path class="cls-2" d="M286.24,248.81c-.05-48.51-39.16-87.64-88-88.07-48.05-.43-87.94,39.39-88.14,88-.2,48.21,39.71,88.14,88,88.09,48.49-.05,88.19-39.68,88.14-88M197,361.64c-26.35-.19-51.85-7.91-75.83-20.81-35.9-19.31-65.72-45.94-91.76-77-3.07-3.67-6-7.48-9-11.17-2.1-2.53-2.2-4.91-.13-7.56,29.64-37.87,64.12-70.13,107.58-91.75,23.55-11.72,48.46-18.24,75-17.35,23.51.79,45.6,7.23,66.5,17.69,38.58,19.3,70.11,47.29,97.67,80.05,3,3.58,5.8,7.33,8.82,10.89,2.48,2.91,2.26,5.48,0,8.43a356.12,356.12,0,0,1-59,60.18c-19.37,15.43-40.07,28.64-63.28,37.59A156,156,0,0,1,197,361.64"/><path class="cls-3" d="M197,347.2a135.65,135.65,0,0,0,49.16-9.44c20.2-7.78,38.2-19.27,55.06-32.69a310.46,310.46,0,0,0,51.31-52.37c2-2.57,2.19-4.8,0-7.34-2.63-3.09-5.06-6.36-7.67-9.46-24-28.51-51.42-52.86-85-69.66-18.19-9.1-37.41-14.7-57.86-15.39-23.07-.77-44.75,4.9-65.23,15.1C99,184.76,69,212.83,43.21,245.78c-1.8,2.3-1.72,4.37.11,6.58,2.65,3.21,5.18,6.52,7.86,9.72,22.65,27,48.6,50.21,79.83,67,20.87,11.23,43.05,18,66,18.11"/><path class="cls-4" d="M274.68,249a76.82,76.82,0,0,0-76.59-76.63C156.28,172,121.58,206.67,121.4,249c-.17,41.94,34.55,76.68,76.6,76.64s76.72-34.52,76.68-76.56M197,347.2c-22.93-.16-45.11-6.88-66-18.11-31.23-16.8-57.18-40-79.83-67-2.68-3.2-5.21-6.51-7.86-9.72-1.83-2.21-1.91-4.28-.11-6.58C69,212.83,99,184.76,136.81,166c20.48-10.2,42.16-15.87,65.23-15.1,20.45.69,39.67,6.29,57.86,15.39,33.56,16.8,61,41.15,85,69.66,2.61,3.1,5,6.37,7.67,9.46,2.16,2.54,2,4.77,0,7.34a310.46,310.46,0,0,1-51.31,52.37c-16.86,13.42-34.86,24.91-55.06,32.69A135.65,135.65,0,0,1,197,347.2"/><path class="cls-2" d="M197.89,317.8c37.72.15,68.95-31,69-68.83.05-37.61-30.79-68.47-68.73-68.77-37.56-.3-69,31.08-69,68.79s30.95,68.66,68.71,68.81M274.68,249c0,42-34.5,76.51-76.68,76.56s-76.77-34.7-76.6-76.64c.18-42.28,34.88-76.92,76.69-76.55A76.82,76.82,0,0,1,274.68,249"/><path class="cls-4" d="M198.1,284.9a35.92,35.92,0,1,0-36-35.78,36.12,36.12,0,0,0,36,35.78m-.21,32.9c-37.76-.15-68.67-31.11-68.71-68.81s31.43-69.09,69-68.79c37.94.3,68.78,31.16,68.73,68.77-.06,37.83-31.29,69-69,68.83"/><path class="cls-4" d="M198.1,284.9A35.92,35.92,0,1,1,234,249,36.12,36.12,0,0,1,198.1,284.9"/><path class="cls-2" d="M198.21,285.49a35.92,35.92,0,1,1,35.88-35.92,36.12,36.12,0,0,1-35.88,35.92"/><path class="cls-2" d="M141.14,289l95.72-95.77C214.63,176.78,175.93,174,148.92,201c-26.73,26.67-24.52,65.41-7.78,88.08m112.8-78.72-95.75,95.81c24.23,17.48,62.24,17.93,87.95-7.78s25.38-63.6,7.8-88m-56.25-49.16a88.51,88.51,0,1,1-88.62,86.9,88.52,88.52,0,0,1,88.62-86.9"/><path class="cls-2" d="M141.63,288.83l94.59-94.65c-22-16.29-60.21-19-86.91,7.6-26.42,26.36-24.23,64.65-7.68,87M253.1,211l-94.63,94.68C182.42,323,220,323.44,245.39,298s25.09-62.86,7.71-87m-55.59-48.59a87.47,87.47,0,1,1-87.58,85.89,87.47,87.47,0,0,1,87.58-85.89"/><path class="cls-5" d="M141.63,288.83l94.59-94.65c-22-16.29-60.21-19-86.91,7.6C122.89,228.14,125.08,266.43,141.63,288.83ZM253.1,211l-94.63,94.68C182.42,323,220,323.44,245.39,298S270.48,235.18,253.1,211Zm-55.59-48.59a87.47,87.47,0,1,1-87.58,85.89A87.47,87.47,0,0,1,197.51,162.45Z"/></g></g></svg>