<svg xmlns="http://www.w3.org/2000/svg" viewBox="0 0 397.81 473.24"><defs><style>.cls-1{fill:none;stroke:blue;stroke-width:0.5px;}</style></defs><g id="Layer_2" data-name="Layer 2"><g id="Layer_1-2" data-name="Layer 1"><path class="cls-1" d="M396.86,469.69V257.89h-26.4l1.2,144.3-33.3-144.3h-30v211.8h26.1l-2.4-155.4L366,469.69ZM264,419.89c0,12.6.9,28.8-17.1,28.8-14.4,0-16.2-10.8-16.2-22.2V313.09c0-15.9-.6-24.6,6.9-29.4a19.17,19.17,0,0,1,10.2-3c7.5,0,11.1,3.6,12.9,6.3,3.3,5.1,3.3,13.2,3.3,26.1Zm27.9,2.4V321.49c0-23.7-.3-34.8-6.3-45.3a35,35,0,0,0-9.6-11.4c-10.5-8.4-23.1-8.4-27.6-8.4-15,0-24,5.4-29.1,9.3-16.5,12.6-16.5,30.9-16.5,49.8v105.6c0,12,.3,15.9,2.1,22.2a38.21,38.21,0,0,0,22.8,25.8c7.2,2.7,15.3,2.7,17.7,2.7,6.3,0,33.9.3,42.9-24.6C291.26,439.09,291.86,430.39,291.86,422.29Zm-125.7-83.1c0,7.2-2.4,9.3-9.9,9.3h-17.7v-64.8h17.1c8.7,0,10.5,2.7,10.5,10.5Zm28.2-4.8v-40.2c0-9,.6-20.7-5.4-28.2-7.2-9.3-21.3-8.1-23.4-8.1H111v211.8h27.3v-96h27.9c11.1,0,16.5-.9,21-5.1C194.06,362.29,194.36,352.09,194.36,334.39Zm-99.9,84V257.89H66.86v162c0,14.1-.3,21.6-6.3,26.7-3.9,3.3-9,3.3-10.8,3.3-17.1,0-16.8-16.2-16.8-28.2V257.89H5.66v165.3c0,12.9,1.2,18.9,3.6,24.9,8.7,23.4,32.1,24.9,39.6,24.9,8.4,0,35.1-1.5,42.9-29.4C94.46,433.69,94.46,420.19,94.46,418.39Z"/><path class="cls-1" d="M397.56,235.87V206.5H352V129.28h40.59v-29H351.69V31.93h45.87v-29H320.67v233ZM306.15,23V2.89H231.9V30h41.91L218.7,215.41v20.46h82.5V207.82H251.37Zm-134,141.57H144.46L157.33,43.48Zm39.93,71.28-36-233H138.85l-33,233h30l5.28-42.9h35l5.94,42.9Zm-120.45,0V111.79H42.49v28.38H61.3V193c0,6.27-.33,14.19-6.6,18.48a15.92,15.92,0,0,1-8.91,2.31c-7.92.33-11.55-4.62-12.87-7.26-2-4-2.31-11.22-2.31-20.79v-134c0-7.59-.66-18.15,6.27-23.1C38.53,27.31,41.5,26,46.12,26,60,25.66,59.65,38.53,60,42.16c0,2.31.33,5,.33,7.26v26.4H88.69V51.4c0-19.8-1.32-27.39-7.59-36C70.21.25,53.05.25,47.11.25,18.07.25,7.84,18.07,4.21,29c-3.3,9.24-4,17.82-4,37V182.74c0,17.49.66,35.64,15.51,48.18,9.9,8.25,21.12,8.58,25.74,8.58,17.49,0,24.42-8.58,28.71-14.52l3,10.89Z"/></g></g></svg>