<svg xmlns="http://www.w3.org/2000/svg" viewBox="0 0 300 300"><defs><style>.cls-1{fill:red;}.cls-2{fill:none;stroke:blue;stroke-width:5px;}.cls-3{fill:#fff;}.cls-4{fill:blue;}</style></defs><g id="Layer_2" data-name="Layer 2"><g id="Layer_1-2" data-name="Layer 1"><path class="cls-1" d="M150,297.5A147.5,147.5,0,1,0,2.5,150,147.5,147.5,0,0,0,150,297.5"/><circle class="cls-2" cx="150" cy="150" r="147.5"/><path class="cls-1" d="M209.61,150a59.71,59.71,0,0,0-59.54-59.57c-32.5-.29-59.48,26.64-59.62,59.5-.13,32.61,26.86,59.62,59.55,59.58s59.64-26.83,59.61-59.51m-60.4,76.32c-17.82-.13-35.06-5.35-51.29-14.08-24.28-13.06-44.45-31.07-62.06-52.1-2.08-2.48-4-5.06-6.11-7.55a3.63,3.63,0,0,1-.08-5.12c20-25.62,43.36-47.44,72.76-62.06,15.93-7.92,32.78-12.33,50.71-11.73,15.9.53,30.84,4.88,45,12,26.09,13,47.42,32,66.06,54.15,2,2.41,3.92,5,6,7.36,1.68,2,1.53,3.71,0,5.7a240.85,240.85,0,0,1-39.89,40.71C217.13,204,203.13,213,187.43,219a105.57,105.57,0,0,1-38.22,7.34"/><path class="cls-3" d="M149.3,216.89a91.83,91.83,0,0,0,33.28-6.39c13.67-5.27,25.86-13.05,37.27-22.13a209.91,209.91,0,0,0,34.73-35.45c1.36-1.74,1.49-3.25,0-5-1.79-2.09-3.43-4.3-5.2-6.4-16.23-19.3-34.8-35.79-57.53-47.16-12.3-6.15-25.31-10-39.16-10.41-15.61-.52-30.29,3.32-44.15,10.22-25.6,12.73-45.91,31.73-63.36,54a3.15,3.15,0,0,0,.07,4.45c1.8,2.17,3.51,4.41,5.32,6.58,15.34,18.3,32.9,34,54,45.36,14.13,7.6,29.14,12.15,44.66,12.26"/><path class="cls-1" d="M201.89,150.44A52,52,0,0,0,150,98.57c-28.29-.25-51.78,23.19-51.9,51.81C98,178.77,121.52,202.29,150,202.26a52,52,0,0,0,51.91-51.82M149.3,216.89c-15.52-.11-30.53-4.66-44.66-12.26-21.14-11.37-38.7-27.06-54-45.36-1.81-2.17-3.52-4.41-5.32-6.58a3.15,3.15,0,0,1-.07-4.45c17.45-22.31,37.76-41.31,63.36-54,13.86-6.9,28.54-10.74,44.15-10.22,13.85.46,26.86,4.26,39.16,10.41,22.73,11.37,41.3,27.86,57.53,47.16,1.77,2.1,3.41,4.31,5.2,6.4,1.46,1.72,1.33,3.23,0,5a209.91,209.91,0,0,1-34.73,35.45c-11.41,9.08-23.6,16.86-37.27,22.13a91.83,91.83,0,0,1-33.28,6.39"/><path class="cls-4" d="M149.91,197a46.84,46.84,0,0,0,46.71-46.58c0-25.46-20.83-46.35-46.51-46.56-25.43-.2-46.74,21-46.71,46.57A46.84,46.84,0,0,0,149.91,197m52-46.54A52,52,0,0,1,150,202.26c-28.46,0-52-23.49-51.84-51.88.11-28.62,23.61-52.06,51.9-51.81a52,52,0,0,1,51.85,51.87"/><path class="cls-4" d="M150.06,174.72a24.32,24.32,0,1,0-24.39-24.22,24.45,24.45,0,0,0,24.39,24.22M149.91,197a46.84,46.84,0,0,1-46.51-46.57c0-25.53,21.28-46.77,46.71-46.57,25.68.21,46.55,21.1,46.51,46.56A46.84,46.84,0,0,1,149.91,197"/><path class="cls-4" d="M150.06,174.72a24.32,24.32,0,1,1,24.28-24.31,24.46,24.46,0,0,1-24.28,24.31"/><path class="cls-4" d="M202,150.28a52,52,0,0,0-51.84-51.87c-28.3-.25-51.79,23.2-51.91,51.82-.11,28.39,23.39,51.9,51.85,51.87A52,52,0,0,0,202,150.28m-52.58,66.46c-15.52-.11-30.54-4.66-44.66-12.26-21.14-11.38-38.71-27.06-54-45.37-1.81-2.16-3.53-4.4-5.32-6.57a3.16,3.16,0,0,1-.08-4.46c17.46-22.3,37.76-41.3,63.36-54,13.87-6.9,28.54-10.74,44.16-10.21,13.84.46,26.85,4.25,39.16,10.41,22.72,11.37,41.29,27.85,57.52,47.15,1.77,2.11,3.42,4.32,5.2,6.41,1.46,1.72,1.33,3.23,0,5a209.92,209.92,0,0,1-34.74,35.44c-11.41,9.09-23.59,16.87-37.27,22.14a92,92,0,0,1-33.27,6.39"/><path class="cls-1" d="M112.41,176.84l64.22-64.26c-14.92-11.06-40.88-12.92-59,5.16-17.93,17.89-16.45,43.89-5.21,59.1M188.09,124l-64.25,64.29A46.16,46.16,0,0,0,188.09,124M150.35,91a59.4,59.4,0,1,1-59.46,58.32A59.39,59.39,0,0,1,150.35,91"/><path class="cls-1" d="M112.41,176.84l64.22-64.26c-14.92-11.06-40.88-12.92-59,5.16-17.93,17.89-16.45,43.89-5.21,59.1M188.09,124l-64.25,64.29A46.16,46.16,0,0,0,188.09,124M150.35,91a59.4,59.4,0,1,1-59.46,58.32A59.39,59.39,0,0,1,150.35,91"/></g></g></svg>