<svg xmlns="http://www.w3.org/2000/svg" viewBox="0 0 358.82 225.75"><defs><style>.cls-1{fill:blue;}.cls-2{fill:red;}</style></defs><g id="Layer_2" data-name="Layer 2"><g id="Layer_1-2" data-name="Layer 1"><path class="cls-1" d="M267.53,112.92c0-48.52-39.15-87.64-88-88.07-48.06-.43-87.94,39.38-88.14,88-.2,48.21,39.71,88.14,88,88.09,48.49,0,88.18-39.68,88.13-88M178.24,225.75c-26.35-.19-51.84-7.91-75.82-20.81-35.9-19.32-65.73-45.94-91.76-77-3.08-3.67-6-7.48-9-11.17-2.1-2.53-2.2-4.91-.13-7.56C31.14,71.31,65.62,39.05,109.08,17.43,132.62,5.71,157.54-.81,184.05.08c23.51.79,45.6,7.23,66.5,17.68,38.57,19.31,70.1,47.3,97.67,80.06,3,3.58,5.79,7.33,8.82,10.88,2.48,2.91,2.26,5.48,0,8.44a356.18,356.18,0,0,1-59,60.18C278.66,192.75,258,206,234.74,214.9a155.92,155.92,0,0,1-56.5,10.85"/><path class="cls-2" d="M256,113.14a76.8,76.8,0,0,0-76.59-76.63c-41.8-.37-76.51,34.27-76.68,76.54-.17,42,34.55,76.69,76.59,76.64,42.19,0,76.73-34.52,76.68-76.55m-77.68,98.17c-22.93-.16-45.11-6.88-66-18.11-31.23-16.8-57.18-40-79.84-67-2.67-3.19-5.2-6.51-7.85-9.71-1.83-2.21-1.91-4.28-.11-6.58,25.78-32.95,55.78-61,93.6-79.84C138.59,19.86,160.27,14.19,183.34,15c20.45.69,39.67,6.29,57.85,15.39,33.57,16.79,61,41.14,85,69.65,2.61,3.11,5,6.38,7.67,9.47,2.16,2.53,2,4.77,0,7.34a309.71,309.71,0,0,1-51.32,52.36c-16.85,13.42-34.85,24.92-55.06,32.7a135.6,135.6,0,0,1-49.15,9.44"/><path class="cls-2" d="M179.4,149a35.92,35.92,0,1,0-36-35.78,36.13,36.13,0,0,0,36,35.78m-.21,32.89c-37.76-.15-68.67-31.1-68.72-68.8s31.44-69.1,69-68.8c37.94.31,68.78,31.17,68.73,68.78-.06,37.83-31.29,69-69,68.82"/><path class="cls-1" d="M179.51,149.59a35.92,35.92,0,1,1,35.88-35.91,36.12,36.12,0,0,1-35.88,35.91"/><path class="cls-1" d="M122.93,152.94l94.59-94.65c-22-16.29-60.21-19-86.91,7.6-26.42,26.36-24.23,64.64-7.68,87.05M234.4,75.15l-94.63,94.68c23.95,17.27,61.51,17.72,86.92-7.68s25.09-62.86,7.71-87M178.81,26.56a87.47,87.47,0,1,1-87.58,85.88,87.46,87.46,0,0,1,87.58-85.88"/></g></g></svg>