<svg xmlns="http://www.w3.org/2000/svg" viewBox="0 0 380.5 928.82"><defs><style>.cls-1,.cls-3{fill:none;stroke:blue;stroke-width:0.75px;}.cls-1{stroke-miterlimit:2.71;}.cls-2{fill:blue;}</style></defs><g id="Layer_2" data-name="Layer 2"><g id="Layer_1-2" data-name="Layer 1"><path class="cls-1" d="M352.23,148.32a4.18,4.18,0,0,0-.91-2.37,3.19,3.19,0,0,0-2.43-.75,7.79,7.79,0,0,0-2.35,3.06,29.9,29.9,0,0,0-1.12,3.24,17.24,17.24,0,0,1-.93,2.59,2,2,0,0,1-1.71,1.22,9,9,0,0,1-1.81,0,9.12,9.12,0,0,1-1.43.41c-.46.09-1,.17-1.45.23a11,11,0,0,0-1.91,0l-1.7.16a3.68,3.68,0,0,0-.87.25,4.28,4.28,0,0,1-1.16.29,2,2,0,0,1-.43,0,5.89,5.89,0,0,0-.77,0l-1.37.08c-.57,0-1.35.12-2.36.24a1.84,1.84,0,0,0-1.67,1.92,24,24,0,0,0,.21,4.84,2.53,2.53,0,0,0,.1.42.85.85,0,0,0,.48.42,6.71,6.71,0,0,0,1.19.38,15,15,0,0,0,2.14.31,1.52,1.52,0,0,0,.64-.22,1.74,1.74,0,0,1,.74-.24,1.83,1.83,0,0,1,.92.13,3.49,3.49,0,0,0,1.58,0c.38,0,.88-.12,1.5-.23s1.26-.2,1.92-.28,1.27-.17,1.83-.27,1-.17,1.31-.21c.5-.06.78.09.82.47a5,5,0,0,1-.56,1.64l-1.33,3.13-1.53,3.48a21.68,21.68,0,0,0-1.07,2.61,21.69,21.69,0,0,0-2.2,3.85,18.65,18.65,0,0,1-2.29,3.86,23.32,23.32,0,0,1-1.75,2.51l-1.37,1.64a6.3,6.3,0,0,0-.88,1.35,2.76,2.76,0,0,0-.2,1.51c.14,1.13.27,2.06.39,2.81a17.17,17.17,0,0,0,.5,2.14,16.82,16.82,0,0,1,1.07-1.42l1.3-1.5,2-2.39c.81-1,1.83-2.36,3.08-4.1a32.72,32.72,0,0,0,1.94-3.25c.38-.78.73-1.18,1-1.22s.3.09.33.34a1.5,1.5,0,0,1-.16.64,8.69,8.69,0,0,0-.38,1.57q-.19,1.13-.33,3.15a52.38,52.38,0,0,0,0,5.25,1.59,1.59,0,0,0-.26.65,7.78,7.78,0,0,0-.08,1.25c0,.54,0,1.27.08,2.19s.12,2.07.23,3.45a7.58,7.58,0,0,0,.58,3.13,2,2,0,0,0,1.28,1.13,4.12,4.12,0,0,1,2.2.83,1.49,1.49,0,0,0,1.3.46,3.43,3.43,0,0,0,1.18-.86c.6-.55,1.27-1.21,2-2s1.47-1.56,2.19-2.41a19,19,0,0,0,1.72-2.31,6.29,6.29,0,0,0,1.34-1.12,16.84,16.84,0,0,0,1.33-1.6l1.11-1.52a2.59,2.59,0,0,1,.76-.81,14.92,14.92,0,0,0,1.87-2.23,3.09,3.09,0,0,0,.56-2.07,3,3,0,0,0-.19-.7,3.39,3.39,0,0,1-.19-.79,3.22,3.22,0,0,1,0-.76,3.12,3.12,0,0,0,0-.86,2.76,2.76,0,0,0-.29-1.2.48.48,0,0,0-.44-.14c-.44.06-.86.42-1.25,1.11a9.34,9.34,0,0,1-2.33,2.39,12.57,12.57,0,0,1-.94,1.3c-.52.67-1.12,1.37-1.8,2.09s-1.34,1.37-2,2a3.62,3.62,0,0,1-1.36.93c-.51.06-.8-.25-.88-.94s-.14-1.4-.19-2.32a26.29,26.29,0,0,1,0-2.81c0-1,.1-1.91.17-2.84s.17-1.72.28-2.37a11.61,11.61,0,0,1,.33-4.34,15.32,15.32,0,0,0,.57-3.89,68.77,68.77,0,0,0,1.29-7c.17-1.52.29-2.5.36-2.95s.27-.66.76-.81,1-.3,1.47-.42a6.36,6.36,0,0,0,1.37-.51,1,1,0,0,0,.53-1.16,31.41,31.41,0,0,1-.29-3.92,18.22,18.22,0,0,0-.09-2.24.7.7,0,0,0-.79-.66.71.71,0,0,1-.8-.67,6.13,6.13,0,0,1,.39-2.62A6.54,6.54,0,0,0,352.23,148.32Zm-34-1.07a13.18,13.18,0,0,1-.84,3.21l-1.85,5.14-1.84,4.9a20.14,20.14,0,0,0-.87,2.59,4.89,4.89,0,0,0-1,1.27,7,7,0,0,0-.63,1.89,8.23,8.23,0,0,0-1.38,2l-2,3.49L306,175c-.58,1-1,1.46-1.16,1.48s-.29-.06-.31-.25a7.52,7.52,0,0,1,.31-2.52q.4-1.67,1-3.6c.38-1.29.72-2.52,1-3.71a7.85,7.85,0,0,0,.33-2.71,12.87,12.87,0,0,0,1.5-2.24,9.24,9.24,0,0,0,.55-2.12,24.27,24.27,0,0,0,1.74-2.93l2.45-4.55,2.43-4.26c.77-1.27,1.34-1.93,1.72-2a.4.4,0,0,1,.4.15A6.11,6.11,0,0,1,318.21,147.25Zm-15.48,51.16a18,18,0,0,1-.09-2.28c0-1,.05-1.95.11-3l.17-2.93q.06-1.4.06-2.25a5.36,5.36,0,0,1,1.11-2.24l2.58-3.8,2.63-3.9a6.64,6.64,0,0,0,1.21-2.53,4.76,4.76,0,0,0,1.55-1.82c.49-.88,1-1.89,1.54-3l1.71-3.55a27.37,27.37,0,0,1,2.05-3.55,25.9,25.9,0,0,1,1.24-3.49l1.22-2.87c.39-1,.78-2.05,1.18-3.25a35.31,35.31,0,0,0,1.1-4.62,6.29,6.29,0,0,0,.89-2.11,8.14,8.14,0,0,0,.19-3.08,6.31,6.31,0,0,0,.49-1.45,7.35,7.35,0,0,0,.17-1.69c0-.57,0-1.09,0-1.57s-.06-.83-.09-1.08a1.69,1.69,0,0,0-1.44-1.64,7.28,7.28,0,0,0-1.93-.15,2.75,2.75,0,0,0-.75-.67,1.06,1.06,0,0,0-.6-.21,5.78,5.78,0,0,0-2.58,1.56,40.14,40.14,0,0,0-3.27,3.26q-1.63,1.83-2.95,3.61a8.92,8.92,0,0,0-1.49,2.57,23.34,23.34,0,0,0-1.42,2c-.51.79-1,1.6-1.43,2.41l-1.15,2.25a4.6,4.6,0,0,0-.53,1.49,8.54,8.54,0,0,0-1.41,2.56c-.43,1.14-.87,2.46-1.32,4a9.88,9.88,0,0,0-1.08,2.47c-.45,1.3-.89,2.67-1.31,4.13s-.79,2.78-1.09,4a10.14,10.14,0,0,0-.39,2.2,39.11,39.11,0,0,0-1.23,5.16c-.28,1.66-.47,3.21-.58,4.66s-.19,2.72-.24,3.84a11.18,11.18,0,0,1-.35,2.58l-1.8,2.41c.13,1.13.24,2.15.32,3.07s.13,1.94.14,3.08a2.28,2.28,0,0,0,.68-.32,4,4,0,0,0,.66-1.27l.21.16c0,.45,0,.89,0,1.33s.06.92.12,1.42a28.74,28.74,0,0,0,.72,3.87c.29,1.08.54,1.93.74,2.54a4.83,4.83,0,0,0,1.16,2.1,3.06,3.06,0,0,0,2.38,1.09,9,9,0,0,0,1.81-.41,8.37,8.37,0,0,0,1.32-.55,3.68,3.68,0,0,0,1.13-1.23l1.66-2.45c.59-.9,1.14-1.78,1.63-2.63s.83-1.46,1-1.79a6.23,6.23,0,0,1,.51-1.69,9.11,9.11,0,0,1,.83-1.39l1-1.41a9.22,9.22,0,0,0,1-1.84,1.68,1.68,0,0,1,1.7.65c.38.52.85,1.1,1.4,1.74a7.34,7.34,0,0,0,2.21,1.63,7.44,7.44,0,0,0,4.1.36,7.66,7.66,0,0,0,3.13-1,11.87,11.87,0,0,0,2.5-2.21,4.7,4.7,0,0,0,2.37-2,5.11,5.11,0,0,0,.22-2.51,4.22,4.22,0,0,1,0-1.34,4,4,0,0,0,0-1.34,1.62,1.62,0,0,0-.23-.74c-.12-.17-.36-.24-.74-.19a1,1,0,0,0-.71.42,6.34,6.34,0,0,1-.71.85,5.31,5.31,0,0,1-1.22.91,6.38,6.38,0,0,1-2.27.62,2.44,2.44,0,0,1-2.12-.55c-.47-.49-.86-.71-1.18-.67A11.83,11.83,0,0,1,319.7,187l-1.21-2.91a21.17,21.17,0,0,0-1.21-2.47c-.41-.69-.82-1-1.25-.85a16.65,16.65,0,0,0-3,1,5.86,5.86,0,0,0-2.36,2.15,29.14,29.14,0,0,1-.83,3.35,21.2,21.2,0,0,1-.86,2.3l-.94,2.08a18.9,18.9,0,0,0-.95,2.74,9.08,9.08,0,0,1-.73,1.85l-1.08,2.09a14,14,0,0,1-1,1.7c-.32.46-.55.69-.68.71s-.28-.22-.46-.71A6.45,6.45,0,0,1,302.73,198.41Zm-21.12,23.88a6.83,6.83,0,0,1-.47,3.54,13,13,0,0,1-1.74,3,20.67,20.67,0,0,1-2,2.3,9.15,9.15,0,0,0-1.35,1.51,16.43,16.43,0,0,1-3.65,2.07,8.12,8.12,0,0,0-1.73.69,2.76,2.76,0,0,1-3-1.64,2.5,2.5,0,0,1,0-.87,4.42,4.42,0,0,1,.58-1.12,6.43,6.43,0,0,1,.84-2.53,29.79,29.79,0,0,1,1.74-2.94l1.76-2.7a10,10,0,0,0,1-1.84,4.3,4.3,0,0,0,1.5-1.38c.41-.59.78-1.17,1.12-1.76s.66-1.1,1-1.55a1.38,1.38,0,0,1,.91-.73c.19,0,.46.17.83.57a9,9,0,0,1,1.09,1.49,15.74,15.74,0,0,1,1,2A7.35,7.35,0,0,1,281.61,222.29Zm-6.87-25.6a9.66,9.66,0,0,1-.08-1.42,12.1,12.1,0,0,0-.13-1.9,4.74,4.74,0,0,1,.05-1.86,8.15,8.15,0,0,1,.52-1.26A22.7,22.7,0,0,0,278,187.6a24.7,24.7,0,0,0,2.12-2.55,13.64,13.64,0,0,1,2.28-2.47,14,14,0,0,0,2-2.06,5.39,5.39,0,0,1,.73-1.1l1-1.07c.37-.39.74-.84,1.13-1.33a9.08,9.08,0,0,0,1.1-2,2.21,2.21,0,0,0,1-1,5.14,5.14,0,0,0,.4-1.34,5.82,5.82,0,0,0,.08-1.3,1.92,1.92,0,0,1,.13-.92,8.08,8.08,0,0,0-1-2.51,3.08,3.08,0,0,0-1.54-.9,9.84,9.84,0,0,0-2.9.88A6.3,6.3,0,0,0,282,170a12.92,12.92,0,0,0-2.58,1.94c-.65.65-1,1.1-1,1.36a8.1,8.1,0,0,0-1.08.95c-.48.47-1,1-1.48,1.56l-1.38,1.6a3.42,3.42,0,0,0-.68,1,30,30,0,0,0-3.19,3.93,5,5,0,0,0-.82,2.29A12.77,12.77,0,0,0,268.3,187a20.48,20.48,0,0,1-1.5,2.57,25.53,25.53,0,0,1-4.18,4.81,12.57,12.57,0,0,0-2.85,3.21,7.89,7.89,0,0,0,.39,1.62,8.08,8.08,0,0,1,.38,1.53,2.7,2.7,0,0,1,0,1,4.72,4.72,0,0,0,0,1.43,1.09,1.09,0,0,0,.7-.47l.91-1.11A13.91,13.91,0,0,1,263.7,200a19.89,19.89,0,0,1,2.45-1.78c.49,1.91,1,3.7,1.52,5.35a9.43,9.43,0,0,0,3.22,4.47,3.86,3.86,0,0,0,.85,1.14l1,.88a6.61,6.61,0,0,1,.9,1.09,3.51,3.51,0,0,1,.52,1.55l-2.32,2.87-2.51,2.88a4.06,4.06,0,0,1-.74,1.38l-1.2,1.49A16.43,16.43,0,0,0,266,223.2a12.68,12.68,0,0,0-1.18,2.48,20.13,20.13,0,0,1-.82,2.2,12.59,12.59,0,0,0-.71,2.05,13.07,13.07,0,0,0-.34,2.66,29.37,29.37,0,0,0,.26,4.08,4.11,4.11,0,0,0,.56,1.84,2.47,2.47,0,0,0,.86.75,5.25,5.25,0,0,0,.8.33.53.53,0,0,1,.4.48,4.83,4.83,0,0,0,3.16.85,5.3,5.3,0,0,1,2.3.1,10.51,10.51,0,0,0,4.53-1.61l3.94-2.49a7.17,7.17,0,0,0,1.79-1.31q1.17-1.05,2.43-2.4a31.41,31.41,0,0,0,2.37-2.87,14.88,14.88,0,0,0,1.62-2.73,6.62,6.62,0,0,1,.35-1.85l.52-1.55a15.87,15.87,0,0,0,.42-1.62,6.91,6.91,0,0,0,0-2.2,16,16,0,0,0-1.88-6,36.56,36.56,0,0,0-3.05-4.59,1.57,1.57,0,0,1,.13-.92,4.09,4.09,0,0,1,.66-.84l1.27-1.3a27.21,27.21,0,0,0,2-2.3l4-3.69a30.1,30.1,0,0,0,2.12-2.17,3.94,3.94,0,0,0,.76-1.14,1.62,1.62,0,0,0,.07-.63q-.4-3.3-.63-4.32t-.69-1c-.31,0-.59.37-.83,1a4.91,4.91,0,0,1-1.76,2,22,22,0,0,1-4.2,3.9,51.66,51.66,0,0,0-6.74,6.51,28.58,28.58,0,0,1-2.06-2,15.81,15.81,0,0,1-1.24-1.52,5.56,5.56,0,0,1-.68-1.25A4.73,4.73,0,0,0,276,199,4.76,4.76,0,0,1,274.74,196.69Zm-26.05-38a6.51,6.51,0,0,0-1.34.35,8.44,8.44,0,0,0-1.53.77,6.53,6.53,0,0,0-1.3,1.06,2.45,2.45,0,0,0-.65,1.28,7.86,7.86,0,0,0-3.24,3.16,7,7,0,0,0-1,4.42,2.7,2.7,0,0,0,.52,1.51,3.08,3.08,0,0,1,.67,1.21,1.07,1.07,0,0,0,.95.69,20.69,20.69,0,0,0,3.21-.25,6.42,6.42,0,0,1,1.39-1.13,8,8,0,0,0,1.57-1.24,8.24,8.24,0,0,0,1.35-1.79,6,6,0,0,0,.67-2.75,3,3,0,0,0,.42-1.2,15.17,15.17,0,0,0,.25-1.89c0-.67.06-1.31.05-1.92a13.68,13.68,0,0,0-.07-1.37,1.58,1.58,0,0,1-.75-.63C249.71,158.67,249.32,158.57,248.69,158.65Zm-16,46.44a2,2,0,0,0,.44,1.28c.37-.1.69-.46,1-1.07a2.51,2.51,0,0,1,1.41-1.32,3.3,3.3,0,0,1,.59-1c.35-.49.75-1,1.19-1.54s.9-1,1.35-1.45a2.29,2.29,0,0,1,1.06-.7,1.4,1.4,0,0,1,1.18.23,4,4,0,0,1,.64,1,11.54,11.54,0,0,0,.79,1.33,6.53,6.53,0,0,0,1.41,1.45,14.15,14.15,0,0,0,1.62,3.05,8.36,8.36,0,0,0,1.54,1.62,6.74,6.74,0,0,0,1.39.88,6,6,0,0,1,1.19.71h.38l.9,0,1,0a7.09,7.09,0,0,0,.76,0,6.53,6.53,0,0,0,2.49-1.12,25.4,25.4,0,0,0,3-2.27,22.22,22.22,0,0,0,2.41-2.5c.66-.81,1-1.4.93-1.78-.12-.94-.21-1.9-.26-2.88s-.14-1.94-.26-2.88a8.5,8.5,0,0,0-2.11,1.88c-.46.63-.83,1.15-1.09,1.57a14,14,0,0,0-1.79,1,3.47,3.47,0,0,1-1.55.57,2,2,0,0,1-1.63-.37,4.59,4.59,0,0,1-1-1.26c-.28-.5-.53-1-.75-1.43a2.64,2.64,0,0,0-.64-.93,24,24,0,0,0-.43-2.38c-.21-.9-.42-1.74-.65-2.54a21.23,21.23,0,0,0-.69-2.12,7.15,7.15,0,0,0-.47-1.08,6.59,6.59,0,0,0-2.75-1.86,8.46,8.46,0,0,0-3.12-.1,4.45,4.45,0,0,0-1,1,8.38,8.38,0,0,0-.62,1.56,3.9,3.9,0,0,0-1.24,1.15c-.47.6-.93,1.23-1.39,1.89s-.86,1.3-1.2,1.91a12.22,12.22,0,0,0-.65,1.32,5,5,0,0,0-1.84,2.09,7.28,7.28,0,0,1-1.73,2.27,8.79,8.79,0,0,1,0,.9c0,.48,0,1,0,1.48l.1,1.51C232.68,204.56,232.7,204.9,232.73,205.09Zm-16.23,14a6.33,6.33,0,0,0,2.66-1.28,15.12,15.12,0,0,1,3.45-1.85c.71-1.49,1.2-2.62,1.49-3.39a6.38,6.38,0,0,0,.2-3,30.53,30.53,0,0,0,.57-4.31q.19-2.66.3-5.34l.21-4.89a15.77,15.77,0,0,1,.31-2.9,40.21,40.21,0,0,1-.25-4q-.06-2.43-.06-4.77c0-1.55,0-2.91.07-4.06a16.53,16.53,0,0,1,.14-1.93,5.69,5.69,0,0,1-.47-1.56,4,4,0,0,1,0-.91c0-.29.08-.63.16-1-.13-1.57-.24-3.09-.32-4.54s-.15-2.77-.2-3.94l-.12-3a5.31,5.31,0,0,1,.08-1.63,3.47,3.47,0,0,1-.35-1.3,4.16,4.16,0,0,1,0-1.05c0-.39.08-.87.11-1.44s0-1.33,0-2.25-.11-2-.27-3.35a24,24,0,0,0-.55-3.33c-.15-.39-.38-.57-.69-.53a3.16,3.16,0,0,0-1.14.81,31,31,0,0,0-2.45,2.59,15.43,15.43,0,0,0-.61,2.79c-.13,1-.25,2-.36,3s-.21,1.85-.34,2.67a6.11,6.11,0,0,1-.49,1.82,6.63,6.63,0,0,1,0,2.05,7,7,0,0,0,0,2c.31,2.57.55,4.61.7,6.12s.25,2.68.29,3.5.06,1.39.06,1.71,0,.57.05.76c.11.94.18,2,.21,3.26l.07,3.72.06,3.57a26.24,26.24,0,0,0,.16,2.84,53.23,53.23,0,0,0-.52,7,34.71,34.71,0,0,1-.29,5,16.9,16.9,0,0,0-.34,3.86c.07.81-.15,1.25-.65,1.32-.19,0-.49-.2-.89-.66a20.33,20.33,0,0,1-1.3-1.65,19,19,0,0,1-1.25-2,7.89,7.89,0,0,1-.73-1.67,8.68,8.68,0,0,1-2-3A13,13,0,0,0,209,195.5a6,6,0,0,0-.69-1.73L207,191.31,205.64,189a5.21,5.21,0,0,1-.66-1.45,2,2,0,0,0-.35-.91c-.19-.3-.41-.65-.65-1.07a15.86,15.86,0,0,1-.83-1.66c-.31-.7-.65-1.59-1-2.69a4,4,0,0,1-1-1.78,18.71,18.71,0,0,0-2.14-3.75,4.67,4.67,0,0,0-.44-1.33c-.27-.57-.58-1.19-.95-1.84s-.7-1.33-1-2a6.48,6.48,0,0,1-.56-1.89,8.17,8.17,0,0,1,.05-1.87c.09-.81.22-1.73.38-2.77s.36-2.12.6-3.27.52-2.27.82-3.39a1.93,1.93,0,0,0-.79-1.43,2,2,0,0,0-1.44-.4,2.12,2.12,0,0,0-1.28.83,10.74,10.74,0,0,0-1.13,1.66l-.94,1.65c-.29.48-.57.73-.82.76a1.09,1.09,0,0,1-1-.54,1.69,1.69,0,0,0-1.68-.46c-1.12.2-2,.39-2.65.56a3,3,0,0,0-1.51.91,3.71,3.71,0,0,0-.72,1.9c-.12.84-.21,2-.28,3.56a18.89,18.89,0,0,0,.35,2.11,8.73,8.73,0,0,1,.25,1.26,21,21,0,0,0-.43,3.87c0,1.21,0,2.42,0,3.62l.08,3.76c0,1.3,0,2.76-.13,4.36a10.34,10.34,0,0,1,0,1.86l-.17,2.5c-.07,1-.13,2.18-.18,3.56s-.08,3.08-.09,5.11c0,1.41-.06,2.51-.12,3.31s-.12,1.47-.18,2l-.17,1.36a4.69,4.69,0,0,0,0,1.24,14.41,14.41,0,0,1,0,4.05,13.2,13.2,0,0,0-.24,2.75,25.8,25.8,0,0,1-.06,3c-.08,1.16-.18,2.31-.29,3.47s-.2,2.27-.26,3.33a14.6,14.6,0,0,0,0,2.43,8.17,8.17,0,0,0,.45,2.14.89.89,0,0,0,1,.45l.78-.67a3,3,0,0,1,1.26-.63l.53-.35a12.36,12.36,0,0,1,.37-2.44c.21-.85.43-1.66.66-2.41s.4-1.47.55-2.12a4.85,4.85,0,0,0,.14-1.55,8.11,8.11,0,0,1,0-2.19,16.4,16.4,0,0,1,.36-1.72c.16-.56.3-1.11.42-1.67a7.93,7.93,0,0,0,.14-2c.21-.86.41-1.82.6-2.89a6.46,6.46,0,0,0,.09-2.35,7.42,7.42,0,0,1,.46-2.45,20.29,20.29,0,0,0,.57-5.51,8.36,8.36,0,0,0,.65-2.89,3.89,3.89,0,0,1,.71-2.33c0-1,0-1.76,0-2.4a3.72,3.72,0,0,1,.42-1.67,11.84,11.84,0,0,1,.32-2.42c.12-.34.24-.51.36-.53s.4.14.64.5.47.77.72,1.25l.69,1.34c.22.42.39.66.52.7a4.05,4.05,0,0,1,.8,1.43,16.52,16.52,0,0,0,2.6,3.69,24.58,24.58,0,0,0,3.12,5.63,30.92,30.92,0,0,1,3.33,5.7c.33.6.68,1.27,1.06,2s.78,1.49,1.23,2.24a19.71,19.71,0,0,0,1.4,2.07,7.79,7.79,0,0,0,1.37,1.45,5.16,5.16,0,0,0,.75,1.44,8,8,0,0,0,.89,1c.69,1,1.41,1.95,2.16,2.84A2.67,2.67,0,0,0,216.5,219.11Zm-72-45.28a4.19,4.19,0,0,0-.92-2.37,3.09,3.09,0,0,0-2.43-.75,7.65,7.65,0,0,0-2.34,3,30.07,30.07,0,0,0-1.13,3.24,18.69,18.69,0,0,1-.92,2.6,2,2,0,0,1-1.72,1.21,9,9,0,0,1-1.81,0,8,8,0,0,1-1.43.42c-.46.09-.95.16-1.45.22a12.15,12.15,0,0,0-1.91,0c-.69.05-1.26.11-1.7.16a3.26,3.26,0,0,0-.87.25,4.58,4.58,0,0,1-1.16.29h-.43c-.16,0-.41,0-.76,0s-.81,0-1.38.07-1.35.12-2.35.24a1.87,1.87,0,0,0-1.68,1.93,23.41,23.41,0,0,0,.22,4.84,1.87,1.87,0,0,0,.09.42.92.92,0,0,0,.49.42,6.57,6.57,0,0,0,1.19.37,14.55,14.55,0,0,0,2.14.31,1.43,1.43,0,0,0,.64-.22,2,2,0,0,1,1.65-.11,3.46,3.46,0,0,0,1.58.05c.38-.05.88-.12,1.5-.23s1.27-.21,1.93-.29,1.26-.17,1.82-.27,1-.17,1.31-.21c.51-.06.78.1.83.47a5.54,5.54,0,0,1-.57,1.65l-1.33,3.12-1.53,3.48a21.9,21.9,0,0,0-1.06,2.62,21,21,0,0,0-2.2,3.84,18.76,18.76,0,0,1-2.3,3.87,23.16,23.16,0,0,1-1.74,2.5l-1.38,1.65a6.2,6.2,0,0,0-.88,1.35,2.74,2.74,0,0,0-.2,1.5c.14,1.13.27,2.07.4,2.82a15.08,15.08,0,0,0,.5,2.13,16.39,16.39,0,0,1,1.06-1.42l1.3-1.49,2-2.4c.8-1,1.82-2.35,3.07-4.1a31.69,31.69,0,0,0,1.94-3.24c.39-.78.73-1.19,1-1.23s.29.09.32.34a1.34,1.34,0,0,1-.16.64,10.15,10.15,0,0,0-.38,1.58c-.13.75-.24,1.79-.33,3.14s-.09,3.1,0,5.25a1.59,1.59,0,0,0-.25.66,6.6,6.6,0,0,0-.09,1.25c0,.54,0,1.27.08,2.18s.13,2.07.23,3.46a7.92,7.92,0,0,0,.58,3.13,2.05,2.05,0,0,0,1.28,1.13,4.18,4.18,0,0,1,2.2.82,1.5,1.5,0,0,0,1.3.47,3.53,3.53,0,0,0,1.18-.87c.61-.55,1.27-1.2,2-2s1.46-1.56,2.18-2.42a19,19,0,0,0,1.72-2.31,5.79,5.79,0,0,0,1.34-1.12,15.65,15.65,0,0,0,1.34-1.59l1.1-1.52a2.59,2.59,0,0,1,.76-.81,14.37,14.37,0,0,0,1.87-2.24,3,3,0,0,0,.56-2.07,2.5,2.5,0,0,0-.18-.69,2.69,2.69,0,0,1-.19-.79,2.76,2.76,0,0,1,0-.76,3.56,3.56,0,0,0,0-.86,3.05,3.05,0,0,0-.29-1.21.49.49,0,0,0-.45-.13c-.44.05-.85.42-1.25,1.11a9.18,9.18,0,0,1-2.33,2.38,10.52,10.52,0,0,1-.94,1.31c-.52.67-1.12,1.36-1.79,2.08s-1.35,1.38-2,2a3.62,3.62,0,0,1-1.36.93c-.5.06-.8-.26-.88-.95s-.14-1.39-.19-2.31-.05-1.86,0-2.82.1-1.9.18-2.83.17-1.73.28-2.38a11.75,11.75,0,0,1,.32-4.33,15.92,15.92,0,0,0,.58-3.89q1-4.71,1.29-7c.16-1.52.28-2.5.35-3s.27-.65.76-.81,1-.29,1.48-.42a6.55,6.55,0,0,0,1.37-.5,1,1,0,0,0,.52-1.16,31.43,31.43,0,0,1-.29-3.93,18.47,18.47,0,0,0-.08-2.23.72.72,0,0,0-.8-.67.7.7,0,0,1-.8-.66,6.5,6.5,0,0,1,.39-2.63A6.53,6.53,0,0,0,144.51,173.83Zm-23.28,39.8-.31-.25c-.26,0-.45.28-.58.74a2.83,2.83,0,0,1-1.17,1.38,1.32,1.32,0,0,0-.87.68,2.27,2.27,0,0,1-1.72.79,2.88,2.88,0,0,1-2.65-1,5,5,0,0,1-1.24-2.72,7.33,7.33,0,0,1,0-2,4.84,4.84,0,0,0,0-1.48,1.84,1.84,0,0,1-.6-1c-.12-.46-.23-.91-.31-1.35a3.18,3.18,0,0,0-.42-1.09.89.89,0,0,0-.95-.36c-.32,0-.75.12-1.31.25s-1.14.3-1.75.51a14.93,14.93,0,0,1-2.43,2.39,8.12,8.12,0,0,0-2.33,3.15,12.84,12.84,0,0,0-3.22,2.93,9.36,9.36,0,0,0-1.56,2.43,8.14,8.14,0,0,0-2.5,2.22A3.24,3.24,0,0,1,93,221.3a1.63,1.63,0,0,1,.28-1.28,2.13,2.13,0,0,0,.47-1.2,14.52,14.52,0,0,1,2.51-3.65,10,10,0,0,0,2.17-3.32,6.1,6.1,0,0,0,1.62-1.58,13.19,13.19,0,0,0,1.35-2.22,15,15,0,0,0,1.74-1.74,6.59,6.59,0,0,0,1.08-1.76,15.31,15.31,0,0,1,2.48-2.74,6.9,6.9,0,0,0,2-3.05,5.39,5.39,0,0,0,2.46-2.12,5.55,5.55,0,0,0,.91-3.07,5.92,5.92,0,0,1-1.34-1.22,2,2,0,0,0-1.92-.48,5.82,5.82,0,0,0-2.25.75,13.2,13.2,0,0,0-2,1.44l-1.93,1.76c-.66.63-1.36,1.24-2.11,1.84-.44.62-.87,1.2-1.32,1.74a3.38,3.38,0,0,1-1.49,1.08A11.91,11.91,0,0,1,96,202.55l-1.84,1.75c-.6.55-1.15,1.1-1.66,1.64a4.59,4.59,0,0,0-1,1.61,10.09,10.09,0,0,0-1.92,1.85A20.87,20.87,0,0,0,88,212.07a2.41,2.41,0,0,0-.82.68,10.86,10.86,0,0,0-.94,1.26c-.33.48-.68,1-1.06,1.47A6.68,6.68,0,0,1,84,216.67a4.75,4.75,0,0,0-1,1.08,2.86,2.86,0,0,0-.36,1.33,15.1,15.1,0,0,0,.06,2c.07.82.18,1.85.34,3.11a2.32,2.32,0,0,1,.67.06c.33,0,.5.18.52.36a3.82,3.82,0,0,1-.3,1.38,5.29,5.29,0,0,0-.19,2.41,8,8,0,0,0,.23,1.07,11.87,11.87,0,0,0,.8,1.86,13.17,13.17,0,0,0,1.72.79,4.26,4.26,0,0,0,1.86.39,2.55,2.55,0,0,0,1.19-.48,3.84,3.84,0,0,1,1.54-.62,11.25,11.25,0,0,1,2.65-2.19,8.41,8.41,0,0,0,2.82-3.06,7.45,7.45,0,0,0,1.72-1.55A18.2,18.2,0,0,0,99.42,223c.35-.55.69-1,1-1.46a1.63,1.63,0,0,1,1.06-.71c.15-.27.38-.63.68-1.08a10.86,10.86,0,0,1,.94-1.26,12.34,12.34,0,0,1,1-1,1.59,1.59,0,0,1,.75-.47c.32,0,.55.2.71.72s.32,1.12.46,1.81.33,1.36.54,2a1.94,1.94,0,0,0,1,1.31,4.41,4.41,0,0,0,2.1,2,4.7,4.7,0,0,0,2.51.6,2.49,2.49,0,0,0,.78-.24,2.39,2.39,0,0,1,.6-.22,1.84,1.84,0,0,1,.58.08,2.07,2.07,0,0,0,.67.06,4.84,4.84,0,0,0,2-.87,36.25,36.25,0,0,0,3-2.42,5,5,0,0,1,1.43-1.56A1.3,1.3,0,0,0,122,219a2.35,2.35,0,0,0-.18-.74,2,2,0,0,1-.17-.56,2.11,2.11,0,0,1,.05-.81,1.52,1.52,0,0,0,.08-.54c0-.19-.1-.53-.23-1A16,16,0,0,1,121.23,213.63Z"/><path class="cls-2" d="M353.52,97.83A4.36,4.36,0,0,0,351,99.62q-1.36,1.65-2.7,3.62l-2.52,3.61c-.79,1.08-1.37,1.68-1.73,1.78l-1.31,2.17a17.21,17.21,0,0,1-2.2,2.75,11.09,11.09,0,0,1-1,1.56c-.44.56-.92,1.12-1.42,1.66l-1.39,1.5c-.42.47-.74.84-1,1.12a3.66,3.66,0,0,0-.14,1.26,10.13,10.13,0,0,0,.51,1.8,10.32,10.32,0,0,1,.5,1.7,1.23,1.23,0,0,1-.08.59,1.31,1.31,0,0,0-.07.58,1.23,1.23,0,0,0,.75-.52q.38-.48,1.23-1.68c.57-.8,1.37-1.87,2.42-3.21s2.52-3,4.43-5.13a12.12,12.12,0,0,0,1.6-1.34,10.46,10.46,0,0,0,1-1.22,5.48,5.48,0,0,1,.84-1,1.77,1.77,0,0,1,1-.45.73.73,0,0,0,.57.36c.22,0,.37.25.43.76.08.69.18,1.69.27,3s.15,2.65.16,4,0,2.5-.1,3.49-.22,1.51-.48,1.54-.23-.07-.31-.25a4.86,4.86,0,0,0-.31-.53,2.59,2.59,0,0,0-.44-.52.87.87,0,0,0-.74-.19,4,4,0,0,0-2.23,1.32,3,3,0,0,0-1,2.51,2.78,2.78,0,0,0,.32,1.11,2.83,2.83,0,0,1,.34,1.2,23.29,23.29,0,0,0,1,4.59,7.36,7.36,0,0,0,1.51,2.92,3.09,3.09,0,0,0,.46,1.47c.23.29.69.39,1.38.31a2,2,0,0,0,1-.6,13.22,13.22,0,0,1,2.49-1.54,3.15,3.15,0,0,1,.78-1.39,13.75,13.75,0,0,1,1.17-1,13.55,13.55,0,0,0,1.41-1.32,11.76,11.76,0,0,0,1.62-2.35q1.92-1.47,3.56-2.87a11.36,11.36,0,0,0,2.73-3.44c.06,0,.22-.15.47-.44a5.4,5.4,0,0,0,.69-1c.21-.37.4-.75.58-1.12a1.73,1.73,0,0,0,.22-.93,8.67,8.67,0,0,0-.47-1.85,8.75,8.75,0,0,1-.41-1.39,3.08,3.08,0,0,1,0-.91,2,2,0,0,0,.06-.62c0-.26-.14-.37-.33-.35a.56.56,0,0,0-.31.14,3.89,3.89,0,0,0-.46.53c-.22.28-.54.72-.94,1.31s-.93,1.4-1.56,2.44a5.92,5.92,0,0,0-.84.91l-1.46,1.75c-.53.64-1.06,1.23-1.6,1.77a2.61,2.61,0,0,1-1.37.89c-.19,0-.3-.15-.35-.53a6.35,6.35,0,0,1,.09-2c.13-.71.3-1.43.5-2.16l.56-2a4.13,4.13,0,0,0,.2-1.51,5,5,0,0,1,.13-1.21c.12-.62.24-1.41.38-2.38a33.24,33.24,0,0,0,.26-3.33,27.54,27.54,0,0,0-.22-4.12,3,3,0,0,0,.17-1.36c0-.57-.09-1.1-.15-1.6l-.16-1.32a7.18,7.18,0,0,0-.38-1.48,3.68,3.68,0,0,0-2.63-1.59,11.84,11.84,0,0,0-2.53-.07M322,109.15a3.71,3.71,0,0,1-.71,2.38,6.15,6.15,0,0,1-1.72,1.93c0,.31-.21.71-.76,1.19a8.24,8.24,0,0,1-1.26,1c-.63.07-1-.08-1-.45a2.21,2.21,0,0,1,.23-1.22,9.37,9.37,0,0,1,.7-1.28c.27-.42.53-.78.77-1.1s.37-.54.35-.66c.51-.51,1-1,1.43-1.56a2.22,2.22,0,0,1,1.42-.89c.31,0,.5.19.56.69m7.16-5.46a7.37,7.37,0,0,0-.61-2.26,1.89,1.89,0,0,0-1.24-1.14c-.11-.37-.59-.69-1.45-1A5.48,5.48,0,0,0,323.5,99a9.94,9.94,0,0,0-2.73.71,2.61,2.61,0,0,0-1.56,1.63,24.65,24.65,0,0,0-2.6,2.18,19,19,0,0,0-1.56,1.72c-.41.52-.76,1-1.06,1.46a11.39,11.39,0,0,1-1.11,1.43,8.8,8.8,0,0,0-1.35,3,4.05,4.05,0,0,1-.91,2,19.11,19.11,0,0,1-.78,2.91l-.79,2.15a10.25,10.25,0,0,0-.5,2.12,10.83,10.83,0,0,0,0,2.71,20.85,20.85,0,0,0,.91,4.28,14.19,14.19,0,0,0,1.24,2.71,15.76,15.76,0,0,0,1.27,1.8,8.19,8.19,0,0,1,1,1.46,22.47,22.47,0,0,0,3.7,1.74,9.33,9.33,0,0,0,4.09.26,7.17,7.17,0,0,0,2.21-.65,9.42,9.42,0,0,0,3.48-1.19,25.76,25.76,0,0,0,3.34-2.32q1.65-1.35,3.37-2.9a36.19,36.19,0,0,1,3.57-2.82,2.2,2.2,0,0,0,.62-1.18,11.51,11.51,0,0,0-.07-3.66,1.89,1.89,0,0,1,0-.58,2.1,2.1,0,0,0,0-.67q-.09-.66-.84-.57c-.5.07-.85.44-1.05,1.14a2.78,2.78,0,0,1-1.47,1.66l-.72.37a.92.92,0,0,1-.42.43l-.75.53-.74.56a1.31,1.31,0,0,0-.42.49,5.1,5.1,0,0,0-1.2.67c-.5.35-1.06.7-1.69,1.06a15.35,15.35,0,0,1-2.07,1,9.54,9.54,0,0,1-2.54.65,4.41,4.41,0,0,1-2.95-.31,6.81,6.81,0,0,0-1.78-.92c-.27-.1-.5-.44-.7-1s-.44-1.52-.73-2.82a4.52,4.52,0,0,1,1.53-1.57,4.14,4.14,0,0,0,1.49-1.85,6.32,6.32,0,0,0,1-.8,16.65,16.65,0,0,0,1.62-1.63c.55-.64,1.12-1.33,1.7-2.07a12.61,12.61,0,0,0,1.33-2,14.15,14.15,0,0,0,1.74-2.56,8.73,8.73,0,0,0,.86-2.63,1.41,1.41,0,0,0,.69-1.42c0-.7-.07-1.36-.15-2m-33.07,1.2a4.31,4.31,0,0,0-2.5,1.78,44,44,0,0,0-2.71,3.63l-2.51,3.6c-.79,1.08-1.37,1.68-1.74,1.79l-1.31,2.16a16.56,16.56,0,0,1-2.19,2.76,12.56,12.56,0,0,1-1.05,1.56c-.44.56-.91,1.11-1.42,1.65l-1.39,1.51c-.42.46-.74.84-1,1.12a3.54,3.54,0,0,0-.13,1.25,8.63,8.63,0,0,0,.51,1.8,10.26,10.26,0,0,1,.49,1.71,1.31,1.31,0,0,1-.07.58,1.18,1.18,0,0,0-.07.58,1.15,1.15,0,0,0,.74-.52q.38-.48,1.23-1.68c.57-.8,1.38-1.87,2.42-3.21s2.52-3,4.43-5.12a11.61,11.61,0,0,0,1.6-1.34,10.5,10.5,0,0,0,1.05-1.23,6.24,6.24,0,0,1,.83-1,1.81,1.81,0,0,1,1-.46.66.66,0,0,0,.57.36c.22,0,.36.26.42.76.09.69.18,1.7.28,3s.15,2.66.15,4,0,2.5-.09,3.5-.23,1.51-.48,1.54-.23-.07-.32-.25a3.64,3.64,0,0,0-.3-.54,3,3,0,0,0-.45-.51.86.86,0,0,0-.74-.2,4,4,0,0,0-2.22,1.32,3,3,0,0,0-1,2.52,2.51,2.51,0,0,0,.33,1.1,3.1,3.1,0,0,1,.34,1.2,23.39,23.39,0,0,0,1,4.6,7.32,7.32,0,0,0,1.5,2.92,3.16,3.16,0,0,0,.47,1.47c.22.29.68.39,1.37.3a2.08,2.08,0,0,0,1-.59,13.28,13.28,0,0,1,2.48-1.55,3.12,3.12,0,0,1,.79-1.38,15.28,15.28,0,0,1,1.16-1,11.08,11.08,0,0,0,3-3.66c1.28-1,2.46-1.94,3.56-2.87a11.8,11.8,0,0,0,2.73-3.44c.06,0,.22-.16.47-.44a6.19,6.19,0,0,0,.69-1c.2-.38.4-.75.57-1.12a1.76,1.76,0,0,0,.22-.94,8.75,8.75,0,0,0-.46-1.85,8,8,0,0,1-.41-1.38,2.77,2.77,0,0,1,0-.91,2.49,2.49,0,0,0,.07-.63c0-.25-.14-.36-.33-.34a.58.58,0,0,0-.32.13,5.12,5.12,0,0,0-.46.54c-.22.28-.53.71-.94,1.31s-.92,1.4-1.56,2.43a6.51,6.51,0,0,0-.84.91l-1.46,1.76a23.1,23.1,0,0,1-1.59,1.77,2.66,2.66,0,0,1-1.37.88c-.19,0-.31-.15-.35-.53a6.58,6.58,0,0,1,.08-2c.14-.72.3-1.44.5-2.16l.56-2a3.88,3.88,0,0,0,.2-1.5,5.13,5.13,0,0,1,.14-1.21c.11-.62.24-1.42.37-2.39a28.2,28.2,0,0,0,.26-3.32,26.39,26.39,0,0,0-.22-4.13,2.85,2.85,0,0,0,.17-1.35c0-.57-.09-1.11-.15-1.61L301.6,108a7.25,7.25,0,0,0-.37-1.48A3.71,3.71,0,0,0,298.6,105a10.73,10.73,0,0,0-2.54-.07m-29.62,3.63a4.39,4.39,0,0,0-2.5,1.79,44,44,0,0,0-2.71,3.63l-2.51,3.6c-.79,1.08-1.37,1.68-1.74,1.79l-1.31,2.16a16.54,16.54,0,0,1-2.19,2.75,11.23,11.23,0,0,1-1,1.56c-.44.57-.91,1.12-1.42,1.66l-1.39,1.5c-.42.47-.74.84-1,1.12a3.61,3.61,0,0,0-.13,1.26,9.11,9.11,0,0,0,.5,1.8,9.18,9.18,0,0,1,.5,1.71,1.32,1.32,0,0,1-.07.58.45.45,0,1,0,.67.06q.38-.48,1.23-1.68c.57-.8,1.38-1.87,2.42-3.21s2.52-3,4.43-5.12a12.25,12.25,0,0,0,1.6-1.35,10.63,10.63,0,0,0,1.05-1.22,5.42,5.42,0,0,1,.83-1,1.81,1.81,0,0,1,1-.46.7.7,0,0,0,.56.36c.23,0,.37.26.43.76.09.69.18,1.69.28,3s.15,2.65.15,4,0,2.5-.09,3.49-.23,1.51-.48,1.54-.23-.06-.32-.24a4.85,4.85,0,0,0-.3-.54,3,3,0,0,0-.45-.52.86.86,0,0,0-.74-.19,4,4,0,0,0-2.22,1.32,3,3,0,0,0-1,2.51,2.61,2.61,0,0,0,.33,1.11,2.86,2.86,0,0,1,.33,1.2,23.31,23.31,0,0,0,1.05,4.59,7.24,7.24,0,0,0,1.5,2.92,3.08,3.08,0,0,0,.47,1.47c.22.29.68.4,1.37.31a2,2,0,0,0,1-.6,14,14,0,0,1,2.48-1.54,3.07,3.07,0,0,1,.79-1.39,15.26,15.26,0,0,1,1.16-1,11.8,11.8,0,0,0,1.41-1.32,12.17,12.17,0,0,0,1.63-2.35q1.9-1.47,3.56-2.87a11.57,11.57,0,0,0,2.72-3.43c.07,0,.22-.16.48-.44a5.86,5.86,0,0,0,.69-1c.2-.37.4-.74.57-1.12a1.73,1.73,0,0,0,.22-.93,8.75,8.75,0,0,0-.46-1.85,8,8,0,0,1-.41-1.38,2.76,2.76,0,0,1,0-.91,2.57,2.57,0,0,0,.07-.63c0-.25-.14-.37-.33-.34a.58.58,0,0,0-.32.13,3.89,3.89,0,0,0-.46.53c-.22.29-.53.72-.94,1.31s-.92,1.4-1.56,2.44a6.51,6.51,0,0,0-.84.91l-1.46,1.76q-.78.94-1.59,1.77a2.73,2.73,0,0,1-1.37.88c-.19,0-.31-.15-.36-.53a6.91,6.91,0,0,1,.09-2c.14-.72.3-1.44.5-2.17l.56-2a3.9,3.9,0,0,0,.2-1.5,5.19,5.19,0,0,1,.14-1.22c.11-.61.24-1.41.37-2.38a30.52,30.52,0,0,0,.26-3.32,26.33,26.33,0,0,0-.22-4.13,2.89,2.89,0,0,0,.17-1.36c0-.57-.09-1.1-.15-1.6l-.16-1.32a7.09,7.09,0,0,0-.37-1.48,3.76,3.76,0,0,0-2.63-1.59,11.93,11.93,0,0,0-2.54-.07m-17,21.18-.32-.25c-.25,0-.44.28-.57.74a2.88,2.88,0,0,1-1.17,1.38,1.32,1.32,0,0,0-.87.68,2.27,2.27,0,0,1-1.72.79,2.88,2.88,0,0,1-2.65-1,4.92,4.92,0,0,1-1.24-2.71,7,7,0,0,1-.05-2,5.18,5.18,0,0,0,0-1.48,1.84,1.84,0,0,1-.6-1c-.12-.46-.23-.91-.31-1.35a3.18,3.18,0,0,0-.42-1.09.93.93,0,0,0-.95-.36,11.35,11.35,0,0,0-1.31.26,17.47,17.47,0,0,0-1.75.5,15.78,15.78,0,0,1-2.43,2.39,8.08,8.08,0,0,0-2.33,3.16,12.61,12.61,0,0,0-3.22,2.92,9.2,9.2,0,0,0-1.56,2.44,8.12,8.12,0,0,0-2.5,2.21,3.26,3.26,0,0,1-2.31,1.43,1.56,1.56,0,0,1,.28-1.28,2.13,2.13,0,0,0,.47-1.2,14.27,14.27,0,0,1,2.51-3.65,9.86,9.86,0,0,0,2.17-3.32,6.1,6.1,0,0,0,1.62-1.58,14.65,14.65,0,0,0,1.35-2.22,14.26,14.26,0,0,0,1.74-1.74,6.85,6.85,0,0,0,1.08-1.76,15.23,15.23,0,0,1,2.48-2.73,7,7,0,0,0,2-3.06,5.39,5.39,0,0,0,2.46-2.12,5.55,5.55,0,0,0,.91-3.07,5.92,5.92,0,0,1-1.34-1.22,2,2,0,0,0-1.92-.48,5.62,5.62,0,0,0-2.25.76,13.13,13.13,0,0,0-2,1.43l-1.93,1.77c-.66.62-1.36,1.23-2.11,1.83-.44.63-.88,1.2-1.32,1.74a3.49,3.49,0,0,1-1.49,1.09,12.22,12.22,0,0,1-1.65,2.06l-1.84,1.75c-.6.55-1.15,1.1-1.66,1.64a4.45,4.45,0,0,0-1,1.61,9.52,9.52,0,0,0-1.92,1.86,19.52,19.52,0,0,0-1.54,2.67,2.17,2.17,0,0,0-.82.67,12.9,12.9,0,0,0-.94,1.26c-.33.49-.68,1-1.07,1.47a6.08,6.08,0,0,1-1.19,1.19,4.68,4.68,0,0,0-1,1.08,2.87,2.87,0,0,0-.36,1.34,15,15,0,0,0,.06,2c.07.82.18,1.86.33,3.11a2.36,2.36,0,0,1,.68.06c.33,0,.5.18.52.36a3.65,3.65,0,0,1-.31,1.38,5.44,5.44,0,0,0-.18,2.41,8,8,0,0,0,.23,1.07,11.87,11.87,0,0,0,.8,1.86,12.56,12.56,0,0,0,1.72.79,4.26,4.26,0,0,0,1.86.39,2.32,2.32,0,0,0,1.18-.48,4,4,0,0,1,1.55-.62,11.39,11.39,0,0,1,2.64-2.19,8.24,8.24,0,0,0,2.82-3.06,7.25,7.25,0,0,0,1.72-1.55,18.37,18.37,0,0,0,1.18-1.67c.35-.55.69-1,1-1.46a1.63,1.63,0,0,1,1.06-.71c.15-.27.38-.63.67-1.08a12.21,12.21,0,0,1,1-1.26,10.88,10.88,0,0,1,1-1,1.55,1.55,0,0,1,.75-.47c.32,0,.55.2.71.72s.31,1.12.46,1.81.33,1.36.54,2a1.94,1.94,0,0,0,1,1.31,4.41,4.41,0,0,0,2.1,2,4.5,4.5,0,0,0,2.51.6,2.49,2.49,0,0,0,.78-.24,1.94,1.94,0,0,1,.6-.21,1.54,1.54,0,0,1,.58.07,2.05,2.05,0,0,0,.67.06,4.75,4.75,0,0,0,2-.87,34.46,34.46,0,0,0,3-2.42,4.84,4.84,0,0,1,1.43-1.56,1.31,1.31,0,0,0,.7-1.28,2.66,2.66,0,0,0-.18-.74,1.9,1.9,0,0,1-.17-.56,1.93,1.93,0,0,1,0-.81,1.47,1.47,0,0,0,.07-.54,7.78,7.78,0,0,0-.22-1,15.13,15.13,0,0,1-.3-1.68m-55.91-22.35a4.14,4.14,0,0,1,.17-1.73,11.47,11.47,0,0,1,.69-1.76l.75-1.62a3.79,3.79,0,0,0,.37-1.33,10.77,10.77,0,0,0,.79-.91c.3-.39.59-.79.86-1.21a9,9,0,0,1,.77-1.05q.38-.42.57-.45a3.8,3.8,0,0,1-.2,1.46,8.09,8.09,0,0,0,0,3.06,7.37,7.37,0,0,0-.64,2.17l-.53,3.08a29.06,29.06,0,0,1-.72,3.09,8.6,8.6,0,0,1-1.08,2.43q-1.95,4.33-2.8,6.78c-.56,1.63-1.22,2.49-2,2.58a7,7,0,0,1,.06-2.2l.42-2.06.42-2a5.43,5.43,0,0,0,.1-1.92c.18-.08.39-.43.64-1a19.33,19.33,0,0,0,.66-2c.2-.73.37-1.43.51-2.12a6.25,6.25,0,0,0,.17-1.31m10.77-21.08a10.32,10.32,0,0,0-1.21-4c-.6-1-1.87-1.39-3.82-1.15l-2,1a10.55,10.55,0,0,1-1.19,1.63,19.54,19.54,0,0,0-1.32,1.64,18,18,0,0,0-1.47,2.42,39.73,39.73,0,0,0-1.72,3.89,4.14,4.14,0,0,1-.45,1.34c-.28.58-.6,1.27-.94,2.08s-.7,1.72-1.05,2.75a14.36,14.36,0,0,0-.69,3.28c-.21.41-.45,1-.74,1.76s-.57,1.59-.85,2.45-.5,1.71-.69,2.56-.3,1.5-.38,2a6.61,6.61,0,0,0-.5,1.73L185,113.9c-.12.81-.23,1.62-.32,2.42a12.26,12.26,0,0,1-.34,1.91,7.64,7.64,0,0,1,0,1.91c-.08.64-.16,1.4-.24,2.27s-.14,1.85-.17,2.93a26.83,26.83,0,0,0,.23,3.79,1.18,1.18,0,0,0-.21.6,15.25,15.25,0,0,0,.18,2.27l-1.3,1.83-1.43,1.94-1.28,1.69a8,8,0,0,1-.83,1l.41,3.38a4.85,4.85,0,0,1,0,1.87,2.45,2.45,0,0,0-.15.73.34.34,0,0,0,.43.33c.18,0,.36-.17.51-.45a10.13,10.13,0,0,1,.78-1.09c.35-.46.84-1,1.45-1.76a18.59,18.59,0,0,1,2.66-2.42,18.12,18.12,0,0,0,1.1,3.11,15.6,15.6,0,0,0,1.09,1.92,10.77,10.77,0,0,0,.85,1.08,1.24,1.24,0,0,1,.37.63c.34.21.74.48,1.19.81s.94.64,1.46,1a8.57,8.57,0,0,0,1.67.8,4.49,4.49,0,0,0,2,.18l1-.13a2.66,2.66,0,0,0,.84.23,3.68,3.68,0,0,0,1.1,0,8.72,8.72,0,0,0,2.62-.84c1-.48,2-1,3.05-1.62a33.92,33.92,0,0,0,2.91-1.88,18.16,18.16,0,0,0,2.13-1.75,22,22,0,0,0,1.91-1.14c.38-.27.66-.48.83-.62a2.87,2.87,0,0,0,0-1.06c-.05-.63-.11-1.34-.17-2.12s-.14-1.53-.22-2.22L211,134a18.47,18.47,0,0,0-3.44,2.24l-2.42,2.06a14,14,0,0,1-2.2,1.56,7.32,7.32,0,0,1-2.76.82,6.9,6.9,0,0,1-2.84-.18,8.49,8.49,0,0,1-2.17-1,5.64,5.64,0,0,1-1.51-1.39,4.86,4.86,0,0,1-.74-1.34,4.44,4.44,0,0,1-1.12-2.16,17.59,17.59,0,0,1-.79-3.33,2.75,2.75,0,0,1,1-1.51,2.68,2.68,0,0,0,1-1.5,25.4,25.4,0,0,1,1.57-3.53l2.3-4.63,2-4.45a8.49,8.49,0,0,0,.87-3,4.05,4.05,0,0,1,.48-1.53l1-2.28a20.07,20.07,0,0,0,1-3,16.85,16.85,0,0,0,.46-3.59,2.56,2.56,0,0,0,.41-1c.1-.46.2-1,.29-1.47l.26-1.42a2.05,2.05,0,0,1,.36-1,9.42,9.42,0,0,1,0-2.43l.32-2.38c.12-.84.22-1.76.29-2.75a19.39,19.39,0,0,0-.17-3.66m-37,81.87a6.84,6.84,0,0,1-.48,3.54,12.85,12.85,0,0,1-1.73,3,21.72,21.72,0,0,1-2.05,2.3,9.13,9.13,0,0,0-1.35,1.5,16,16,0,0,1-3.66,2.08,7.54,7.54,0,0,0-1.73.69,2.77,2.77,0,0,1-3-1.64,2.74,2.74,0,0,1,0-.87,4.11,4.11,0,0,1,.58-1.12,6.65,6.65,0,0,1,.83-2.54c.52-1,1.1-2,1.74-2.93l1.77-2.7a10.7,10.7,0,0,0,1-1.84,4.48,4.48,0,0,0,1.5-1.38c.4-.59.78-1.18,1.12-1.76s.66-1.1.95-1.55a1.41,1.41,0,0,1,.92-.73c.18,0,.46.16.83.57a9.32,9.32,0,0,1,1.09,1.48,18.27,18.27,0,0,1,1,2,7.35,7.35,0,0,1,.57,1.94m-6.87-25.6a9.72,9.72,0,0,1-.08-1.43,12.41,12.41,0,0,0-.14-1.89,4.58,4.58,0,0,1,.06-1.87,8,8,0,0,1,.52-1.25,23.4,23.4,0,0,0,2.87-2.65,24.7,24.7,0,0,0,2.12-2.55,13.27,13.27,0,0,1,2.27-2.47,13.22,13.22,0,0,0,2-2.07,5.6,5.6,0,0,1,.73-1.09l1-1.07c.37-.4.74-.84,1.13-1.33a8.68,8.68,0,0,0,1.09-2,2.17,2.17,0,0,0,1-1,5.17,5.17,0,0,0,.41-1.34,6.53,6.53,0,0,0,.08-1.3,1.81,1.81,0,0,1,.13-.92,8,8,0,0,0-1-2.51,3.21,3.21,0,0,0-1.54-.91,10.11,10.11,0,0,0-2.9.89,6.23,6.23,0,0,0-2.56,2.08,12.92,12.92,0,0,0-2.58,1.94,3.58,3.58,0,0,0-1,1.36,8.92,8.92,0,0,0-1.07.95c-.49.47-1,1-1.48,1.56l-1.38,1.6a3.22,3.22,0,0,0-.68,1,31.18,31.18,0,0,0-3.2,3.93,5,5,0,0,0-.81,2.29,11.91,11.91,0,0,0-1.44,2.28,21.8,21.8,0,0,1-1.5,2.57,25.89,25.89,0,0,1-4.18,4.81,12.41,12.41,0,0,0-2.85,3.21,7.89,7.89,0,0,0,.39,1.62,8.08,8.08,0,0,1,.38,1.53,3,3,0,0,1,0,1,5,5,0,0,0,0,1.43,1.11,1.11,0,0,0,.71-.47l.91-1.12a14.65,14.65,0,0,1,1.53-1.52,19.34,19.34,0,0,1,2.46-1.78c.49,1.91,1,3.7,1.51,5.35a9.55,9.55,0,0,0,3.22,4.47,3.87,3.87,0,0,0,.86,1.14l1,.88a6.4,6.4,0,0,1,.89,1.08,3.6,3.6,0,0,1,.53,1.56l-2.32,2.87L155,164.3a4.06,4.06,0,0,1-.74,1.38l-1.2,1.48a17.56,17.56,0,0,0-1.34,1.89,12.13,12.13,0,0,0-1.18,2.48,18.14,18.14,0,0,1-.83,2.2,12.81,12.81,0,0,0-.7,2,12.59,12.59,0,0,0-.34,2.67,27.76,27.76,0,0,0,.26,4.07,4,4,0,0,0,.56,1.84,2.51,2.51,0,0,0,.86.76,5.25,5.25,0,0,0,.8.33.52.52,0,0,1,.39.48,4.85,4.85,0,0,0,3.16.85,5.35,5.35,0,0,1,2.31.1,10.42,10.42,0,0,0,4.52-1.61l3.95-2.49a7.44,7.44,0,0,0,1.79-1.31q1.16-1.05,2.43-2.4a31.41,31.41,0,0,0,2.37-2.87,14.88,14.88,0,0,0,1.62-2.73,6.77,6.77,0,0,1,.34-1.86l.53-1.54a15.43,15.43,0,0,0,.42-1.63,7.15,7.15,0,0,0,0-2.19,16.16,16.16,0,0,0-1.88-6,36.56,36.56,0,0,0-3-4.59,1.57,1.57,0,0,1,.13-.92,4.09,4.09,0,0,1,.66-.84l1.27-1.31a25.33,25.33,0,0,0,2-2.29l4-3.69a28.07,28.07,0,0,0,2.12-2.17,3.92,3.92,0,0,0,.77-1.15,1.56,1.56,0,0,0,.07-.62q-.4-3.3-.63-4.32t-.69-1c-.31,0-.59.37-.83,1a4.91,4.91,0,0,1-1.76,2,23,23,0,0,1-4.2,3.9,51.66,51.66,0,0,0-6.74,6.51q-1.29-1.19-2.07-2a17.18,17.18,0,0,1-1.23-1.52,5.19,5.19,0,0,1-.68-1.25,5.14,5.14,0,0,0-.57-1.12,4.76,4.76,0,0,1-1.24-2.33M120,133.19a5.53,5.53,0,0,0-1.32-2.94,3,3,0,0,0-2.81-1.14,3.45,3.45,0,0,0-1.77.79,6.76,6.76,0,0,1-2.2,1.13,1.73,1.73,0,0,0-.85.82l-1.11,1.81-1.81,2.75a39.37,39.37,0,0,1-2.85,3.64,9.2,9.2,0,0,1-.82,1.49L102.93,144c-.55.89-1.07,1.77-1.53,2.62a6.72,6.72,0,0,0-.81,2,5.33,5.33,0,0,1,.5,1.37c.08.44.19,1.19.32,2.25a2,2,0,0,0-.15,1.07,1.14,1.14,0,0,1-.1.78q.24.34.42.33c.19,0,.39-.21.6-.55l.56-.93.66-.8c.39-.46.83-1,1.32-1.69s1-1.34,1.42-2,.82-1.28,1.08-1.76a5.45,5.45,0,0,1,.81-1.19,2.63,2.63,0,0,1,1.8-.85c.38,0,.58.09.62.4a4.91,4.91,0,0,1-.19,1.55,5.32,5.32,0,0,0-.19,1.56,8.35,8.35,0,0,1-.44,4.15,6.34,6.34,0,0,0-.59,3,4,4,0,0,1-.05,1.53c-.11.39-.18.69-.22.89a7.7,7.7,0,0,1-.24,1.55,6.57,6.57,0,0,0-.18,2,3.39,3.39,0,0,0,.13.65,3.69,3.69,0,0,1,.11.56,3.15,3.15,0,0,1,0,.57,1.57,1.57,0,0,0,0,.48c.09.75.31,1.21.65,1.4a3.63,3.63,0,0,0,1.92.09l.84-.1a4.76,4.76,0,0,0,1.11-.28,3.7,3.7,0,0,0,1-.6,2.17,2.17,0,0,0,.69-1,4.48,4.48,0,0,1,1-1.51c.58-.68,1.24-1.49,2-2.44s1.5-2,2.28-3.15a15.07,15.07,0,0,0,1.82-3.51,12.91,12.91,0,0,0,2-2l1.95-2.34c.64-.75,1.23-1.39,1.77-1.93a2.66,2.66,0,0,1,1.47-.9,1.66,1.66,0,0,1,1.15.48,3,3,0,0,1,1,1.45,4.52,4.52,0,0,1,2.12,1.7l1.89,2.58a11.05,11.05,0,0,0,2.14,2.22,3.67,3.67,0,0,0,2.85.7q3.76-.47,7.71-7.15a34,34,0,0,1-1.05-5.5,3.55,3.55,0,0,0-1.07,1l-.72,1.13a6.27,6.27,0,0,1-.78,1,2.41,2.41,0,0,1-3.11,0,7.38,7.38,0,0,1-1.27-1.8c-.38-.72-.72-1.46-1-2.21a4.8,4.8,0,0,0-1.12-1.73,3.62,3.62,0,0,0-1.16-1.72,7.29,7.29,0,0,1-1.58-1.95,9.15,9.15,0,0,0-3.56-.23,4.88,4.88,0,0,0-1.93.62,8.73,8.73,0,0,0-1.44,1.08,13.86,13.86,0,0,0-1.14,1.19,6.78,6.78,0,0,1-.94.93,31.81,31.81,0,0,1-1.88,2.57l-1.66,2-1.77,2.27a32,32,0,0,0-2.12,3.31,1.81,1.81,0,0,1-.51.92,1.14,1.14,0,0,1-.5.25c-.12,0-.2-.1-.23-.35a6.5,6.5,0,0,1,.19-1.93c.18-.85.39-1.74.63-2.66s.45-1.8.63-2.65a6.57,6.57,0,0,0,.18-2,4.83,4.83,0,0,0,.44-1.44q.21-1,.36-2.19a22.17,22.17,0,0,0,.15-2.26c0-.73,0-1.29-.06-1.66M73.7,155.77a41,41,0,0,1-.39-4.3,11.67,11.67,0,0,0,0-1.47,2.49,2.49,0,0,1,0-.87l.22-.93a13.25,13.25,0,0,0,.21-1.36c.06-.55.1-1.3.11-2.26.2-1.49.4-2.69.61-3.61s.39-1.68.57-2.31a15,15,0,0,0,.38-1.57,4.85,4.85,0,0,0,0-1.48,3.1,3.1,0,0,0-.51-1.47,1.57,1.57,0,0,0-1.53-.38,4.29,4.29,0,0,0-2.08.92c-.7.53-1.31,1-1.83,1.46a2.72,2.72,0,0,0-.51.93c-.22.53-.49,1.15-.82,1.86s-.69,1.44-1.11,2.19a15.33,15.33,0,0,1-1.2,1.87c-.2.47-.55,1.16-1,2.08s-1,1.88-1.65,2.88-1.24,2-1.89,2.85a11.34,11.34,0,0,1-1.76,2,3,3,0,0,0-.76,1.19,3.52,3.52,0,0,0-.3,1.81c.23,1.88.39,3,.47,3.42s.18.6.31.59a1.68,1.68,0,0,0,.72-.38A5.07,5.07,0,0,0,61,158a3.08,3.08,0,0,1,.62-.8L62.75,156c.39-.39.78-.76,1.15-1.09s.62-.51.75-.52.34.4.44,1.28a24,24,0,0,0,.76,3.87c.32,1,.62,2.16.91,3.46A5.38,5.38,0,0,0,68,165.1a6.45,6.45,0,0,1,1.15,1.25,4.6,4.6,0,0,1,1.62.37,3.61,3.61,0,0,0,1.88.15,4.76,4.76,0,0,0,2-.63,3.12,3.12,0,0,1,1.18-.53,20,20,0,0,0,3.75-4,8.31,8.31,0,0,1,1.61-2.06,3.62,3.62,0,0,0,.9-1.25L83.45,156c.47-.85.92-1.62,1.34-2.31s.7-1,.83-1c.37-.05.7.29,1,1A17.76,17.76,0,0,0,87.76,156a7,7,0,0,0,2.09,2.27,5.44,5.44,0,0,0,3.9.67,8,8,0,0,0,2.44-.68,13,13,0,0,0,1.92-1.15,18,18,0,0,0,1.6-1.29,7.15,7.15,0,0,1,1.45-1,2.64,2.64,0,0,0,1.34-1.5,3.41,3.41,0,0,0,.22-1.36q-.18-1.51-.54-3.18c-.23-1.12-.47-1.66-.72-1.63s-.43.23-.74.61-.65.8-1,1.23-.8.85-1.23,1.25a2.33,2.33,0,0,1-1.3.68,2.83,2.83,0,0,1-2-.32,3.17,3.17,0,0,1-1-1.17,8.07,8.07,0,0,1-.5-1.37c-.12-.46-.23-.82-.32-1.06-.19-1.57-.4-2.81-.6-3.74a5.31,5.31,0,0,0-.83-2.05,1.86,1.86,0,0,0-1.19-.76,5.86,5.86,0,0,0-1.62,0,4.57,4.57,0,0,0-1.21.29,2.53,2.53,0,0,0-.87.68,7.34,7.34,0,0,0-.88,1.35c-.31.58-.73,1.31-1.26,2.21A55.66,55.66,0,0,1,82.2,150c-.82,1.34-1.55,2.45-2.17,3.32l-1.47,2a3.64,3.64,0,0,0-.65,1.32A4.78,4.78,0,0,0,76.35,158c-.5.6-.9.92-1.22,1s-.68-.3-.93-1a10.23,10.23,0,0,1-.5-2.13m-28.57,4.46.15,1.22q-.15.31-.63,1.08a13.76,13.76,0,0,1-1.14,1.57,16.71,16.71,0,0,1-1.31,1.41,2.23,2.23,0,0,1-1.11.66q-.66.08-.72-.39,0-.19.51-.54l1.14-.81a6.43,6.43,0,0,0,1.11-1,1.49,1.49,0,0,0,.43-1.15,1.21,1.21,0,0,0-.58-.84,1.36,1.36,0,0,0-.8-.33,4.8,4.8,0,0,0-1.62.82l-2.69,1.76-3.14,2.06a28,28,0,0,1-2.85,1.68q-2.14,2-3.62,3.12A2.94,2.94,0,0,0,27,173.34a2.73,2.73,0,0,0,1.63,2.38,25.46,25.46,0,0,0,4.25,1.19,9.59,9.59,0,0,0,4.7-1.72q.84-.58,1.62-1.2a10.3,10.3,0,0,1,1.87-1.14,17.71,17.71,0,0,1,2.55-2.12,29.75,29.75,0,0,0,2.83-2.21,38.32,38.32,0,0,0,3.11-3.06,25.23,25.23,0,0,0,3.3-4.65,6.1,6.1,0,0,1,1.26-1.35q.8-.61,1.53-1.14a11.3,11.3,0,0,0,1.26-1,1.18,1.18,0,0,0,.46-1,6.45,6.45,0,0,0-.51-2.23c-.19-.23-.7-.36-1.53-.38-.21-1.18-.44-2.25-.68-3.21a10.91,10.91,0,0,0-1.15-2.77,16.57,16.57,0,0,0-2-2.67,33.51,33.51,0,0,0-3.23-3,14.4,14.4,0,0,0-3.12-2.86,12.28,12.28,0,0,1-2.68-2.35,16.13,16.13,0,0,0-1.82-2l-2-1.86-1.78-1.64a3.2,3.2,0,0,1-1-1.41,8.59,8.59,0,0,0-1.16-2.43,4.31,4.31,0,0,1-.82-2,8.88,8.88,0,0,1,.76-4.73,19.81,19.81,0,0,1,2.53-4.27,23,23,0,0,1,2.86-3.12,5.7,5.7,0,0,1,1.75-1.26c.19,0,.3.09.33.34a1.42,1.42,0,0,1-.48,1.15c-.36.4-.79.83-1.27,1.31a9.59,9.59,0,0,0-1.25,1.49,2.48,2.48,0,0,0-.41,1.72,1.05,1.05,0,0,0,.74,1,4,4,0,0,0,1.59.09q1.74-1.36,3.86-2.77a33,33,0,0,0,4.92-4.23c1.13-1.16,1.92-2,2.36-2.53a4.79,4.79,0,0,1,1.11-1.05,1.11,1.11,0,0,0,.58-.78,6.65,6.65,0,0,0,.26-1.37,11.39,11.39,0,0,0,0-1.43c0-.48,0-.81-.07-1a10.86,10.86,0,0,0-.39-2,3.55,3.55,0,0,0-.57-1.17,2,2,0,0,0-.94-.64,8.92,8.92,0,0,0-1.48-.39,7.31,7.31,0,0,0-2.2.74q-1.35.65-2.73,1.44l-2.54,1.45a8.53,8.53,0,0,1-1.72.83,6.61,6.61,0,0,0-1.33.79,15.88,15.88,0,0,0-1.43,1.18l-1.37,1.26a6.6,6.6,0,0,1-1.27,1q-1.43,1.61-2.58,2.7l-2.14,2c-.65.62-1.3,1.28-1.95,2a16.94,16.94,0,0,0-2,2.68,11.92,11.92,0,0,1-.91,2.31l-1.15,2.33a16,16,0,0,0-.92,2.6,8.57,8.57,0,0,0-.15,3.07c.15,1.19.32,2.27.5,3.23a12.43,12.43,0,0,0,.8,2.67A9.63,9.63,0,0,0,27,136.44a10.71,10.71,0,0,0,2.35,2.05,4,4,0,0,0,1.06,1.64,14.59,14.59,0,0,0,2,1.7l2.29,1.58a16,16,0,0,1,1.79,1.36,5.84,5.84,0,0,1,1.83,1.68,7.71,7.71,0,0,0,3,2.21,13,13,0,0,0,1.74,1.74A22.47,22.47,0,0,1,45,152.09a11.22,11.22,0,0,1,1.53,2,6.07,6.07,0,0,1,.83,2.47,1.61,1.61,0,0,1-.28,1.23,7.33,7.33,0,0,1-.8.86c-.29.26-.56.51-.82.77a1,1,0,0,0-.32.85"/><path class="cls-2" d="M295.85,0h-7.52l-5.68,22.56L277.45,0h-7.6l8.56,32.88v23.6h8.08V32.8ZM267.93,56.48V0H257l-5.36,37.52L245.53,0H234.89V56.48h7V11l6.4,45.44h6.32L261.05,11V56.48ZM210.49,13.12a54.25,54.25,0,0,1-.4,8.64c-.48,2-1.6,2.48-3.52,2.48h-3.52V6.8h3.76c1.44,0,2.24,0,2.72.48a2.94,2.94,0,0,1,.8,2.24c.08,1.2.16,2.4.16,3.6M219,56.48c-1.28-3.52-1.44-4.72-1.44-11.12V39.2c0-4.64-.08-7-1.36-9-1.6-2.48-3.92-2.16-5.12-2.4,1.2-.16,4.4-.08,5.76-3a13.94,13.94,0,0,0,.88-4.48c.16-2.24.16-4.48.16-6.64a45.1,45.1,0,0,0-.48-8.08C216.25.48,212.49.24,210.49.08c-.88-.08-1.84-.08-2.8-.08H195.53V56.48H203v-26h3a3.7,3.7,0,0,1,2.4.72,5.54,5.54,0,0,1,1.36,3.6,47.63,47.63,0,0,1,.32,5.84v4a49.13,49.13,0,0,0,1.12,11.84ZM184.17,39.2h-6.72l3.12-29.36Zm9.68,17.28L185.13,0h-9l-8,56.48h7.28l1.28-10.4h8.48l1.44,10.4Zm-25.6,0V49.36h-11V30.64h9.84v-7h-9.92V7h11.12V0H149.61V56.48ZM147.69,0h-7.36l-3.52,43.68L132.09,0h-6.8l-4.16,43.68L117.69,0h-7.36l6.32,56.48h8.56l3.52-37.76,3.84,37.76h8.56ZM95.93,0H88.57V56.48h7.36Z"/><path class="cls-3" d="M299.69,915c0-3.28-.48-7.52-4.4-13.68-.8-1.28-1.6-2.48-2.48-3.68-1.12-1.68-2.24-3.28-3.28-5-2.48-3.92-3.76-6.56-3.76-11.28,0-2.64.08-5.76,3.68-5.76,3.12,0,2.88,3.2,3,3.84v10h6.8v-10a12.43,12.43,0,0,0-.56-4.24c-1.76-5.52-7.44-5.44-9-5.44a12.13,12.13,0,0,0-6.4,1.52c-2.32,1.36-5,4.64-5,10.88a24.57,24.57,0,0,0,4.32,13.28c2.16,3.6,4.72,6.88,6.8,10.56a16.53,16.53,0,0,1,2.72,9.84c0,2.56.08,6.56-3.6,6.64a3.59,3.59,0,0,1-2.24-.72c-1.2-.8-1.6-2-1.6-4.72V906.76h-6.88v9.36c0,3.28.16,6.32,2.48,9,1.2,1.44,3.68,3.36,8.24,3.36a12.38,12.38,0,0,0,5-.88C299.77,924.68,299.69,916.2,299.69,915Zm-23.84,12.4v-7.12h-11V901.56h9.84v-7h-9.92V878h11.12v-7H257.21V927.4Zm-20.32-56.48H248l-5.68,22.56-5.2-22.56h-7.6l8.56,32.88v23.6h8.08V903.72ZM229.85,927.4v-7.12h-11V901.56h9.84v-7h-9.92V878h11.12v-7H211.21V927.4Zm-33.28-56.48h-7.52l-5.68,22.56-5.2-22.56h-7.6l8.56,32.88v23.6h8.08V903.72ZM168.65,927.4V870.92h-11l-5.36,37.52-6.08-37.52H135.61V927.4h7V882L149,927.4h6.32L161.77,882V927.4Zm-50.48,0V870.92h-7l.32,38.48-8.88-38.48h-8V927.4h7L100.89,886l9,41.44ZM90.25,870.92H82.89V927.4h7.36Z"/><path class="cls-3" d="M380.13,815c0-3.28-.48-7.52-4.4-13.68-.8-1.28-1.6-2.48-2.48-3.68-1.12-1.68-2.24-3.28-3.28-5-2.48-3.92-3.76-6.56-3.76-11.28,0-2.64.08-5.76,3.68-5.76,3.12,0,2.88,3.2,3,3.84v10h6.8v-10a12.43,12.43,0,0,0-.56-4.24c-1.76-5.52-7.44-5.44-9-5.44a12.13,12.13,0,0,0-6.4,1.52c-2.32,1.36-5,4.64-5,10.88A24.57,24.57,0,0,0,363,795.48c2.16,3.6,4.72,6.88,6.8,10.56a16.53,16.53,0,0,1,2.72,9.84c0,2.56.08,6.56-3.6,6.64a3.59,3.59,0,0,1-2.24-.72c-1.2-.8-1.6-2-1.6-4.72V806.76h-6.88v9.36c0,3.28.16,6.32,2.48,9,1.2,1.44,3.68,3.36,8.24,3.36a12.38,12.38,0,0,0,5-.88C380.21,824.68,380.13,816.2,380.13,815Zm-25.6,12.4V770.92h-7l.32,38.48-8.88-38.48h-8V827.4h7L337.25,786l9,41.44Zm-35.44-13.28c0,3.36.24,7.68-4.56,7.68-3.84,0-4.32-2.88-4.32-5.92V785.64c0-4.24-.16-6.56,1.84-7.84a5.11,5.11,0,0,1,2.72-.8,3.83,3.83,0,0,1,3.44,1.68c.88,1.36.88,3.52.88,7Zm7.44.64V787.88c0-6.32-.08-9.28-1.68-12.08a9.32,9.32,0,0,0-2.56-3,11.57,11.57,0,0,0-7.36-2.24,12.19,12.19,0,0,0-7.76,2.48c-4.4,3.36-4.4,8.24-4.4,13.28v28.16a18.45,18.45,0,0,0,.56,5.92,10.19,10.19,0,0,0,6.08,6.88,14.07,14.07,0,0,0,4.72.72c1.68,0,9,.08,11.44-6.56A19.1,19.1,0,0,0,326.53,814.76Zm-27.92-43.84h-7.36V827.4h7.36ZM288.13,815c0-3.28-.48-7.52-4.4-13.68-.8-1.28-1.6-2.48-2.48-3.68-1.12-1.68-2.24-3.28-3.28-5-2.48-3.92-3.76-6.56-3.76-11.28,0-2.64.08-5.76,3.68-5.76,3.12,0,2.88,3.2,3,3.84v10h6.8v-10a12.43,12.43,0,0,0-.56-4.24c-1.76-5.52-7.44-5.44-9-5.44a12.13,12.13,0,0,0-6.4,1.52c-2.32,1.36-5,4.64-5,10.88A24.57,24.57,0,0,0,271,795.48c2.16,3.6,4.72,6.88,6.8,10.56a16.53,16.53,0,0,1,2.72,9.84c0,2.56.08,6.56-3.6,6.64a3.59,3.59,0,0,1-2.24-.72c-1.2-.8-1.6-2-1.6-4.72V806.76h-6.88v9.36c0,3.28.16,6.32,2.48,9,1.2,1.44,3.68,3.36,8.24,3.36a12.38,12.38,0,0,0,5-.88C288.21,824.68,288.13,816.2,288.13,815Zm-25.52-44.08h-7.36V827.4h7.36Zm-8.4,0h-7.36l-5.52,45.28-5.76-45.28h-7.44l8.64,56.48h8.8ZM215.33,827.4v-7.12h-11V801.56h9.84v-7h-9.92V778h11.12v-7H196.69V827.4Zm-23.44,0V770.92h-7.44v23h-6.88v-23h-7.44V827.4h7.44V801.16h6.88V827.4Zm-23.68-49.84v-6.64h-25v6.64h8.56V827.4h7.6V777.56ZM131,827.4l-11-28.48,9.36-28h-7.6l-8,25.92V770.92h-7.52V827.4h7.44V801.32l9.84,26.08Zm-28.4-12.8V804H95.09v11c0,2.08.08,4.48-1.84,5.84a4.34,4.34,0,0,1-2.88.8c-4.16,0-4.4-3-4.48-4.56a15.41,15.41,0,0,1-.08-1.92V784c0-2.16-.16-4.56,1.68-6.16a4.54,4.54,0,0,1,3-1c5,0,4.56,4.64,4.56,5.84v8.72h7.52v-7.2a18.75,18.75,0,0,0-1.2-7.84,8.72,8.72,0,0,0-2.64-3.52c-1.44-1.2-3.68-2.48-7.84-2.48a13.26,13.26,0,0,0-4.72.72c-7.2,2.32-7.6,9.44-7.76,11.6-.08,1.28-.16,2.56-.16,3.84V813.8c0,3.28,0,6.8,2,9.68,1.36,2,4.24,4.64,10,4.64,6,0,8.88-3,10.24-5C102.37,820.44,102.61,817.72,102.61,814.6ZM67,810.12H60.29l3.12-29.36Zm9.68,17.28L68,770.92h-9l-8,56.48h7.28L59.49,817H68l1.44,10.4ZM42.37,784a54.25,54.25,0,0,1-.4,8.64c-.48,2-1.6,2.48-3.52,2.48H34.93V777.72h3.76c1.44,0,2.24,0,2.72.48a2.94,2.94,0,0,1,.8,2.24C42.29,781.64,42.37,782.84,42.37,784Zm8.48,43.36c-1.28-3.52-1.44-4.72-1.44-11.12v-6.16c0-4.64-.08-7-1.36-9-1.6-2.48-3.92-2.16-5.12-2.4,1.2-.16,4.4-.08,5.76-3a13.94,13.94,0,0,0,.88-4.48c.16-2.24.16-4.48.16-6.64a45.1,45.1,0,0,0-.48-8.08c-1.12-5.12-4.88-5.36-6.88-5.52-.88-.08-1.84-.08-2.8-.08H27.41V827.4h7.44v-26h3a3.7,3.7,0,0,1,2.4.72,5.54,5.54,0,0,1,1.36,3.6,47.63,47.63,0,0,1,.32,5.84v4a49.13,49.13,0,0,0,1.12,11.84ZM25.34,777.56v-6.64H.38v6.64H8.93V827.4h7.6V777.56Z"/><path class="cls-3" d="M331.49,677.56v-6.64h-25v6.64h8.56V727.4h7.6V677.56Zm-27,49.84V670.92h-7l.32,38.48-8.88-38.48h-8V727.4h7L287.25,686l9,41.44Zm-35-17.28h-6.72L266,680.76Zm9.68,17.28-8.72-56.48h-9l-8,56.48h7.28l1.28-10.4h8.48L272,727.4Zm-26.72-12.8V704H245v11c0,2.08.08,4.48-1.84,5.84a4.34,4.34,0,0,1-2.88.8c-4.16,0-4.4-3-4.48-4.56a15.41,15.41,0,0,1-.08-1.92V684c0-2.16-.16-4.56,1.68-6.16a4.54,4.54,0,0,1,3-1c5,0,4.56,4.64,4.56,5.84v8.72h7.52v-7.2a18.75,18.75,0,0,0-1.2-7.84,8.72,8.72,0,0,0-2.64-3.52c-1.44-1.2-3.68-2.48-7.84-2.48a13.26,13.26,0,0,0-4.72.72c-7.2,2.32-7.6,9.44-7.76,11.6-.08,1.28-.16,2.56-.16,3.84V713.8c0,3.28,0,6.8,2,9.68,1.36,2,4.24,4.64,10,4.64,6,0,8.88-3,10.24-5C252.29,720.44,252.53,717.72,252.53,714.6Zm-38.8-43.68h-7.52l-5.68,22.56-5.2-22.56h-7.6l8.56,32.88v23.6h8.08V703.72ZM188.05,727.4v-7.12H177V701.56h9.84v-7h-9.92V678h11.12v-7H169.41V727.4Zm-23.44,0V670.92h-7.44v23h-6.88v-23h-7.44V727.4h7.44V701.16h6.88V727.4Zm-23.68-49.84v-6.64H116v6.64h8.56V727.4h7.6V677.56ZM93.57,714.12c0,3.36.24,7.68-4.56,7.68-3.84,0-4.32-2.88-4.32-5.92V685.64c0-4.24-.16-6.56,1.84-7.84a5.11,5.11,0,0,1,2.72-.8,3.83,3.83,0,0,1,3.44,1.68c.88,1.36.88,3.52.88,7Zm7.44.64V687.88c0-6.32-.08-9.28-1.68-12.08a9.32,9.32,0,0,0-2.56-3,11.57,11.57,0,0,0-7.36-2.24A12.19,12.19,0,0,0,81.65,673c-4.4,3.36-4.4,8.24-4.4,13.28v28.16a18.45,18.45,0,0,0,.56,5.92,10.19,10.19,0,0,0,6.08,6.88,14.07,14.07,0,0,0,4.72.72c1.68,0,9,.08,11.44-6.56A19.1,19.1,0,0,0,101,714.76ZM74,715c0-3.28-.48-7.52-4.4-13.68-.8-1.28-1.6-2.48-2.48-3.68-1.12-1.68-2.24-3.28-3.28-5-2.48-3.92-3.76-6.56-3.76-11.28,0-2.64.08-5.76,3.68-5.76,3.12,0,2.88,3.2,3,3.84v10h6.8v-10a12.43,12.43,0,0,0-.56-4.24c-1.76-5.52-7.44-5.44-9-5.44a12.13,12.13,0,0,0-6.4,1.52c-2.32,1.36-5,4.64-5,10.88a24.57,24.57,0,0,0,4.32,13.28c2.16,3.6,4.72,6.88,6.8,10.56a16.53,16.53,0,0,1,2.72,9.84c0,2.56.08,6.56-3.6,6.64a3.59,3.59,0,0,1-2.24-.72c-1.2-.8-1.6-2-1.6-4.72V706.76H52.05v9.36c0,3.28.16,6.32,2.48,9,1.2,1.44,3.68,3.36,8.24,3.36a12.38,12.38,0,0,0,5-.88C74.05,724.68,74,716.2,74,715Z"/><path class="cls-3" d="M321,627.4v-7.12H310V601.56h9.84v-7h-9.92V578H321v-7H302.37V627.4Zm-23.6,0V570.92h-11l-5.36,37.52L275,570.92H264.37V627.4h7V582l6.4,45.44h6.32L290.53,582V627.4ZM260,570.92h-7.36V627.4H260Zm-9.12,6.64v-6.64h-25v6.64h8.56V627.4h7.6V577.56ZM212.69,627.4v-7.12h-11V601.56h9.84v-7h-9.92V578h11.12v-7H194.05V627.4Zm-23.44,0V570.92h-7.44v23h-6.88v-23h-7.44V627.4h7.44V601.16h6.88V627.4Zm-23.68-49.84v-6.64h-25v6.64h8.56V627.4h7.6V577.56Zm-37,49.84v-7H116.29V570.92h-7.44V627.4Zm-21.36,0v-7H94.93V570.92H87.49V627.4ZM76,610.12H69.25l3.12-29.36Zm9.68,17.28-8.72-56.48h-9l-8,56.48h7.28L68.45,617h8.48l1.44,10.4Z"/><path class="cls-2" d="M281.09,527.4l-11-28.48,9.36-28h-7.6l-8,25.92V470.92h-7.52V527.4h7.44V501.32l9.84,26.08Zm-36-43.36a54.25,54.25,0,0,1-.4,8.64c-.48,2-1.6,2.48-3.52,2.48h-3.52V477.72h3.76c1.44,0,2.24,0,2.72.48a2.94,2.94,0,0,1,.8,2.24c.08,1.2.16,2.4.16,3.6m8.48,43.36c-1.28-3.52-1.44-4.72-1.44-11.12v-6.16c0-4.64-.08-7-1.36-9-1.6-2.48-3.92-2.16-5.12-2.4,1.2-.16,4.4-.08,5.76-3a13.94,13.94,0,0,0,.88-4.48c.16-2.24.16-4.48.16-6.64a45.1,45.1,0,0,0-.48-8.08c-1.12-5.12-4.88-5.36-6.88-5.52-.88-.08-1.84-.08-2.8-.08H230.13V527.4h7.44v-26h3a3.7,3.7,0,0,1,2.4.72,5.54,5.54,0,0,1,1.36,3.6,47.63,47.63,0,0,1,.32,5.84v4a49.13,49.13,0,0,0,1.12,11.84Zm-35.28-13.28c0,3.36.24,7.68-4.56,7.68-3.84,0-4.32-2.88-4.32-5.92V485.64c0-4.24-.16-6.56,1.84-7.84A5.11,5.11,0,0,1,214,477a3.83,3.83,0,0,1,3.44,1.68c.88,1.36.88,3.52.88,7Zm7.44.64V487.88c0-6.32-.08-9.28-1.68-12.08a9.32,9.32,0,0,0-2.56-3,11.57,11.57,0,0,0-7.36-2.24,12.19,12.19,0,0,0-7.76,2.48c-4.4,3.36-4.4,8.24-4.4,13.28v28.16a18.45,18.45,0,0,0,.56,5.92,10.19,10.19,0,0,0,6.08,6.88,14.07,14.07,0,0,0,4.72.72c1.68,0,9,.08,11.44-6.56a19.1,19.1,0,0,0,1-6.64m-25.44-43.84h-7.36l-3.52,43.68-4.72-43.68h-6.8l-4.16,43.68-3.44-43.68h-7.36l6.32,56.48h8.56l3.52-37.76,3.84,37.76h8.56Zm-49.52,6.64v-6.64h-25v6.64h8.56V527.4H142V477.56Zm-33.92,32.56h-6.72l3.12-29.36Zm9.68,17.28-8.72-56.48h-9l-8,56.48h7.28l1.28-10.4h8.48l1.44,10.4Z"/><path class="cls-3" d="M278.49,427.4v-7.12h-11V401.56h9.84v-7h-9.92V378h11.12v-7H259.85V427.4Zm-23.6,0V370.92h-11l-5.36,37.52-6.08-37.52H221.85V427.4h7V382l6.4,45.44h6.32L248,382V427.4Zm-45-13.28c0,3.36.24,7.68-4.56,7.68-3.84,0-4.32-2.88-4.32-5.92V385.64c0-4.24-.16-6.56,1.84-7.84a5.11,5.11,0,0,1,2.72-.8,3.83,3.83,0,0,1,3.44,1.68c.88,1.36.88,3.52.88,7Zm7.44.64V387.88c0-6.32-.08-9.28-1.68-12.08a9.32,9.32,0,0,0-2.56-3,11.57,11.57,0,0,0-7.36-2.24A12.19,12.19,0,0,0,198,373c-4.4,3.36-4.4,8.24-4.4,13.28v28.16a18.45,18.45,0,0,0,.56,5.92,10.19,10.19,0,0,0,6.08,6.88A14.07,14.07,0,0,0,205,428c1.68,0,9,.08,11.44-6.56A19.1,19.1,0,0,0,217.37,414.76ZM189.05,427.4V370.92h-7.44v23h-6.88v-23h-7.44V427.4h7.44V401.16h6.88V427.4Zm-36.64-49.84v-6.64h-25v6.64H136V427.4h7.6V377.56Zm-33.92,32.56h-6.72l3.12-29.36Zm9.68,17.28-8.72-56.48h-9l-8,56.48h7.28L111,417h8.48l1.44,10.4Z"/><path class="cls-3" d="M252.05,327.4v-7.12H241V301.56h9.84v-7h-9.92V278h11.12v-7H233.41V327.4Zm-30.4-10.08c0,2.64-.72,3.12-2.4,3.12h-5V277.8h4.32a2.55,2.55,0,0,1,3,2.24,11.81,11.81,0,0,1,.08,1.68Zm7.52.32V280c0-2.72-.08-5.44-2.4-7.44s-5.52-1.68-6.24-1.68H206.85V327.4h14.32c1.68,0,6.4.32,7.6-5.12A19.94,19.94,0,0,0,229.17,317.64Zm-26.48-46.72h-7.36V327.4h7.36ZM192.21,315c0-3.28-.48-7.52-4.4-13.68-.8-1.28-1.6-2.48-2.48-3.68-1.12-1.68-2.24-3.28-3.28-5-2.48-3.92-3.76-6.56-3.76-11.28,0-2.64.08-5.76,3.68-5.76,3.12,0,2.88,3.2,3,3.84v10h6.8v-10a12.43,12.43,0,0,0-.56-4.24c-1.76-5.52-7.44-5.44-9-5.44a12.13,12.13,0,0,0-6.4,1.52c-2.32,1.36-5,4.64-5,10.88a24.57,24.57,0,0,0,4.32,13.28c2.16,3.6,4.72,6.88,6.8,10.56a16.53,16.53,0,0,1,2.72,9.84c0,2.56.08,6.56-3.6,6.64a3.59,3.59,0,0,1-2.24-.72c-1.2-.8-1.6-2-1.6-4.72V306.76h-6.88v9.36c0,3.28.16,6.32,2.48,9,1.2,1.44,3.68,3.36,8.24,3.36a12.38,12.38,0,0,0,5-.88C192.29,324.68,192.21,316.2,192.21,315Zm-25.6,12.4V270.92h-7l.32,38.48L151,270.92h-8V327.4h7L149.33,286l9,41.44Zm-27.92-56.48h-7.36V327.4h7.36Z"/></g></g></svg>