<svg xmlns="http://www.w3.org/2000/svg" viewBox="0 0 239.77 83.18"><defs><style>.cls-1{fill:blue;}.cls-2{fill:none;stroke:blue;stroke-width:0.5px;}</style></defs><g id="Layer_2" data-name="Layer 2"><g id="Layer_1-2" data-name="Layer 1"><path class="cls-1" d="M195.27,4.25V1H174.59V4.25h8.48v25h3.76v-25Zm-28.52,5a4.75,4.75,0,0,1-.88,2.92c-1.44,2-4,1.92-6.08,1.92h-7.52v-10h7.32c1.68,0,3.44-.08,4.92.8a4.81,4.81,0,0,1,2.24,4.32m5,20L163.83,17a8.91,8.91,0,0,0,2.88-.92c3.6-1.84,3.76-5.68,3.76-6.84a8.18,8.18,0,0,0-1.72-5.4c-1.2-1.44-3-2.68-7-2.84-.88,0-1.8,0-2.68,0H148.59V29.21h3.68v-12h7.28l7.72,12ZM137.39,14.85c0,6.76-3,10-5.76,11.28a10.63,10.63,0,0,1-4.28.84,10.43,10.43,0,0,1-3.84-.64,9.07,9.07,0,0,1-2.72-1.64,11.33,11.33,0,0,1-1.8-2.12,14.37,14.37,0,0,1-1.88-7.48,14.34,14.34,0,0,1,2.16-7.92c1.08-1.56,3.4-3.84,8-3.88A9.38,9.38,0,0,1,135.19,7a13.58,13.58,0,0,1,2.2,7.84m4.08,0c0-6-2.72-11.32-8.6-13.6a15.59,15.59,0,0,0-5.6-1,14.43,14.43,0,0,0-10.72,4.44C113.11,8.57,113,13.45,113,15.05c0,6.12,2.52,9.52,4.4,11.28a14.06,14.06,0,0,0,9.72,3.6c6.4,0,9.8-3.16,11.36-5.24a16.81,16.81,0,0,0,3-9.84m-36.64-6c0,2.2-1,4.24-3.24,4.84a12.82,12.82,0,0,1-3,.2H90.67V4.21h8.72a8.8,8.8,0,0,1,2.28.2A4.12,4.12,0,0,1,104.55,7a5.76,5.76,0,0,1,.28,1.88m3.72.08c0-1.08-.2-4.76-3.36-6.76-1.88-1.2-3.76-1.2-6-1.2H87V29.21h3.64v-12h8.16a15.44,15.44,0,0,0,4.24-.36c3.68-1,5.48-4.36,5.48-8M77.83,8.85c0,2.2-1,4.24-3.24,4.84a12.82,12.82,0,0,1-3,.2H63.67V4.21h8.72a8.8,8.8,0,0,1,2.28.2A4.12,4.12,0,0,1,77.55,7a5.76,5.76,0,0,1,.28,1.88m3.72.08c0-1.08-.2-4.76-3.36-6.76C76.31,1,74.43,1,72.23,1H60V29.21h3.64v-12h8.16a15.44,15.44,0,0,0,4.24-.36c3.68-1,5.48-4.36,5.48-8M51.91,19V1h-3.8V17.85c0,2.92-.08,6-2.88,7.76A7.52,7.52,0,0,1,41,26.73a9.59,9.59,0,0,1-2.44-.28,6.08,6.08,0,0,1-2.36-1.36,6.56,6.56,0,0,1-1.84-3.88,22.49,22.49,0,0,1-.12-3.28V1H30.51V18.45a16.27,16.27,0,0,0,.4,5,9.15,9.15,0,0,0,5.48,5.72,13.07,13.07,0,0,0,4.6.76,12,12,0,0,0,6.56-1.72,9.08,9.08,0,0,0,4.12-5.92A16.74,16.74,0,0,0,51.91,19m-28.4,2.08a7.35,7.35,0,0,0-1-3.92c-1.72-2.88-5.16-3.64-6-3.84-.72-.2-1.48-.4-2.2-.56L11.11,12c-1.64-.4-3.84-.84-4.92-2.32a3.53,3.53,0,0,1-.68-2.08,4,4,0,0,1,1-2.56C7.71,3.57,10.15,3.17,12,3.17c4.64,0,6.44,2.32,7,4.32a8.19,8.19,0,0,1,.28,1.68L23,8.93a11.17,11.17,0,0,0-1.32-4,8.3,8.3,0,0,0-2.28-2.52A12,12,0,0,0,11.87.25,11.44,11.44,0,0,0,4.31,2.57,7,7,0,0,0,1.63,8.09a6.49,6.49,0,0,0,3.84,6.08,22.84,22.84,0,0,0,6.2,2l2.44.52A9.38,9.38,0,0,1,18,18.13a3.67,3.67,0,0,1,1.44,3.2A5.42,5.42,0,0,1,15,26.65a9.54,9.54,0,0,1-2.6.32c-3.32,0-5.2-1.2-6.2-2.24a7.58,7.58,0,0,1-1.92-5.08l-4,.52a10.91,10.91,0,0,0,2,5.68A8.89,8.89,0,0,0,4.51,28a15,15,0,0,0,7.72,2c4.8,0,7.36-1.52,8.92-3a7.91,7.91,0,0,0,2.36-5.8"/><path class="cls-2" d="M195.27,4.25V1H174.59V4.25h8.48v25h3.76v-25Zm-28.52,5a4.75,4.75,0,0,1-.88,2.92c-1.44,2-4,1.92-6.08,1.92h-7.52v-10h7.32c1.68,0,3.44-.08,4.92.8A4.81,4.81,0,0,1,166.75,9.21Zm5,20L163.83,17a8.91,8.91,0,0,0,2.88-.92c3.6-1.84,3.76-5.68,3.76-6.84a8.18,8.18,0,0,0-1.72-5.4c-1.2-1.44-3-2.68-7-2.84-.88,0-1.8,0-2.68,0H148.59V29.21h3.68v-12h7.28l7.72,12ZM137.39,14.85c0,6.76-3,10-5.76,11.28a10.63,10.63,0,0,1-4.28.84,10.43,10.43,0,0,1-3.84-.64,9.07,9.07,0,0,1-2.72-1.64,11.33,11.33,0,0,1-1.8-2.12,14.37,14.37,0,0,1-1.88-7.48,14.34,14.34,0,0,1,2.16-7.92c1.08-1.56,3.4-3.84,8-3.88A9.38,9.38,0,0,1,135.19,7,13.58,13.58,0,0,1,137.39,14.85Zm4.08,0c0-6-2.72-11.32-8.6-13.6a15.59,15.59,0,0,0-5.6-1,14.43,14.43,0,0,0-10.72,4.44C113.11,8.57,113,13.45,113,15.05c0,6.12,2.52,9.52,4.4,11.28a14.06,14.06,0,0,0,9.72,3.6c6.4,0,9.8-3.16,11.36-5.24A16.81,16.81,0,0,0,141.47,14.85Zm-36.64-6c0,2.2-1,4.24-3.24,4.84a12.82,12.82,0,0,1-3,.2H90.67V4.21h8.72a8.8,8.8,0,0,1,2.28.2A4.12,4.12,0,0,1,104.55,7,5.76,5.76,0,0,1,104.83,8.85Zm3.72.08c0-1.08-.2-4.76-3.36-6.76-1.88-1.2-3.76-1.2-6-1.2H87V29.21h3.64v-12h8.16a15.44,15.44,0,0,0,4.24-.36C106.75,15.89,108.55,12.53,108.55,8.93ZM77.83,8.85c0,2.2-1,4.24-3.24,4.84a12.82,12.82,0,0,1-3,.2H63.67V4.21h8.72a8.8,8.8,0,0,1,2.28.2A4.12,4.12,0,0,1,77.55,7,5.76,5.76,0,0,1,77.83,8.85Zm3.72.08c0-1.08-.2-4.76-3.36-6.76C76.31,1,74.43,1,72.23,1H60V29.21h3.64v-12h8.16a15.44,15.44,0,0,0,4.24-.36C79.75,15.89,81.55,12.53,81.55,8.93ZM51.91,19V1h-3.8V17.85c0,2.92-.08,6-2.88,7.76A7.52,7.52,0,0,1,41,26.73a9.59,9.59,0,0,1-2.44-.28,6.08,6.08,0,0,1-2.36-1.36,6.56,6.56,0,0,1-1.84-3.88,22.49,22.49,0,0,1-.12-3.28V1H30.51V18.45a16.27,16.27,0,0,0,.4,5,9.15,9.15,0,0,0,5.48,5.72,13.07,13.07,0,0,0,4.6.76,12,12,0,0,0,6.56-1.72,9.08,9.08,0,0,0,4.12-5.92A16.74,16.74,0,0,0,51.91,19Zm-28.4,2.08a7.35,7.35,0,0,0-1-3.92c-1.72-2.88-5.16-3.64-6-3.84-.72-.2-1.48-.4-2.2-.56L11.11,12c-1.64-.4-3.84-.84-4.92-2.32a3.53,3.53,0,0,1-.68-2.08,4,4,0,0,1,1-2.56C7.71,3.57,10.15,3.17,12,3.17c4.64,0,6.44,2.32,7,4.32a8.19,8.19,0,0,1,.28,1.68L23,8.93a11.17,11.17,0,0,0-1.32-4,8.3,8.3,0,0,0-2.28-2.52A12,12,0,0,0,11.87.25,11.44,11.44,0,0,0,4.31,2.57,7,7,0,0,0,1.63,8.09a6.49,6.49,0,0,0,3.84,6.08,22.84,22.84,0,0,0,6.2,2l2.44.52A9.38,9.38,0,0,1,18,18.13a3.67,3.67,0,0,1,1.44,3.2A5.42,5.42,0,0,1,15,26.65a9.54,9.54,0,0,1-2.6.32c-3.32,0-5.2-1.2-6.2-2.24a7.58,7.58,0,0,1-1.92-5.08l-4,.52a10.91,10.91,0,0,0,2,5.68A8.89,8.89,0,0,0,4.51,28a15,15,0,0,0,7.72,2c4.8,0,7.36-1.52,8.92-3A7.91,7.91,0,0,0,23.51,21.09Z"/><path class="cls-1" d="M217.36,30.25V27H196.68v3.28h8.48v25h3.76v-25Zm-28.52,5a4.75,4.75,0,0,1-.88,2.92c-1.44,2-4,1.92-6.08,1.92h-7.52v-10h7.32c1.68,0,3.44-.08,4.92.8a4.81,4.81,0,0,1,2.24,4.32m5,20L185.92,43a8.91,8.91,0,0,0,2.88-.92c3.6-1.84,3.76-5.68,3.76-6.84a8.18,8.18,0,0,0-1.72-5.4c-1.2-1.44-3-2.68-7-2.84-.88,0-1.8,0-2.68,0H170.68V55.21h3.68v-12h7.28l7.72,12ZM159.48,40.85c0,6.76-3,10-5.76,11.28a10.63,10.63,0,0,1-4.28.84,10.43,10.43,0,0,1-3.84-.64,9.07,9.07,0,0,1-2.72-1.64,11.33,11.33,0,0,1-1.8-2.12,14.37,14.37,0,0,1-1.88-7.48,14.34,14.34,0,0,1,2.16-7.92c1.08-1.56,3.4-3.84,8-3.88A9.38,9.38,0,0,1,157.28,33a13.58,13.58,0,0,1,2.2,7.84m4.08,0c0-6-2.72-11.32-8.6-13.6a15.59,15.59,0,0,0-5.6-1,14.43,14.43,0,0,0-10.72,4.44c-3.44,3.88-3.52,8.76-3.52,10.36,0,6.12,2.52,9.52,4.4,11.28a14.06,14.06,0,0,0,9.72,3.6c6.4,0,9.8-3.16,11.36-5.24a16.81,16.81,0,0,0,3-9.84m-36.64-6c0,2.2-1,4.24-3.24,4.84a12.82,12.82,0,0,1-3,.2h-7.88V30.21h8.72a8.8,8.8,0,0,1,2.28.2A4.12,4.12,0,0,1,126.64,33a5.76,5.76,0,0,1,.28,1.88m3.72.08c0-1.08-.2-4.76-3.36-6.76-1.88-1.2-3.76-1.2-6-1.2h-12.2V55.21h3.64v-12h8.16a15.44,15.44,0,0,0,4.24-.36c3.68-1,5.48-4.36,5.48-8m-30.72-.08c0,2.2-1,4.24-3.24,4.84a12.82,12.82,0,0,1-3,.2H85.76V30.21h8.72a8.8,8.8,0,0,1,2.28.2A4.12,4.12,0,0,1,99.64,33a5.76,5.76,0,0,1,.28,1.88m3.72.08c0-1.08-.2-4.76-3.36-6.76-1.88-1.2-3.76-1.2-6-1.2H82.12V55.21h3.64v-12h8.16a15.44,15.44,0,0,0,4.24-.36c3.68-1,5.48-4.36,5.48-8M74,45V27H70.2V43.85c0,2.92-.08,6-2.88,7.76a7.52,7.52,0,0,1-4.2,1.12,9.59,9.59,0,0,1-2.44-.28,6.08,6.08,0,0,1-2.36-1.36,6.56,6.56,0,0,1-1.84-3.88,22.49,22.49,0,0,1-.12-3.28V27H52.6V44.45a16.27,16.27,0,0,0,.4,5,9.15,9.15,0,0,0,5.48,5.72,13.07,13.07,0,0,0,4.6.76,12,12,0,0,0,6.56-1.72,9.08,9.08,0,0,0,4.12-5.92A16.74,16.74,0,0,0,74,45M45.6,47.09a7.35,7.35,0,0,0-1-3.92c-1.72-2.88-5.16-3.64-6-3.84-.72-.2-1.48-.4-2.2-.56L33.2,38c-1.64-.4-3.84-.84-4.92-2.32a3.53,3.53,0,0,1-.68-2.08,4,4,0,0,1,1-2.56c1.24-1.48,3.68-1.88,5.48-1.88,4.64,0,6.44,2.32,7,4.32a8.19,8.19,0,0,1,.28,1.68l3.8-.24a11.17,11.17,0,0,0-1.32-4,8.3,8.3,0,0,0-2.28-2.52A12,12,0,0,0,34,26.25a11.44,11.44,0,0,0-7.56,2.32,7,7,0,0,0-2.68,5.52,6.49,6.49,0,0,0,3.84,6.08,22.84,22.84,0,0,0,6.2,2l2.44.52a9.38,9.38,0,0,1,3.92,1.48,3.67,3.67,0,0,1,1.44,3.2,5.42,5.42,0,0,1-4.44,5.32,9.54,9.54,0,0,1-2.6.32c-3.32,0-5.2-1.2-6.2-2.24a7.58,7.58,0,0,1-1.92-5.08l-4,.52a10.91,10.91,0,0,0,2,5.68A8.89,8.89,0,0,0,26.6,54a15,15,0,0,0,7.72,2c4.8,0,7.36-1.52,8.92-3a7.91,7.91,0,0,0,2.36-5.8"/><path class="cls-2" d="M217.36,30.25V27H196.68v3.28h8.48v25h3.76v-25Zm-28.52,5a4.75,4.75,0,0,1-.88,2.92c-1.44,2-4,1.92-6.08,1.92h-7.52v-10h7.32c1.68,0,3.44-.08,4.92.8A4.81,4.81,0,0,1,188.84,35.21Zm5,20L185.92,43a8.91,8.91,0,0,0,2.88-.92c3.6-1.84,3.76-5.68,3.76-6.84a8.18,8.18,0,0,0-1.72-5.4c-1.2-1.44-3-2.68-7-2.84-.88,0-1.8,0-2.68,0H170.68V55.21h3.68v-12h7.28l7.72,12ZM159.48,40.85c0,6.76-3,10-5.76,11.28a10.63,10.63,0,0,1-4.28.84,10.43,10.43,0,0,1-3.84-.64,9.07,9.07,0,0,1-2.72-1.64,11.33,11.33,0,0,1-1.8-2.12,14.37,14.37,0,0,1-1.88-7.48,14.34,14.34,0,0,1,2.16-7.92c1.08-1.56,3.4-3.84,8-3.88A9.38,9.38,0,0,1,157.28,33,13.58,13.58,0,0,1,159.48,40.85Zm4.08,0c0-6-2.72-11.32-8.6-13.6a15.59,15.59,0,0,0-5.6-1,14.43,14.43,0,0,0-10.72,4.44c-3.44,3.88-3.52,8.76-3.52,10.36,0,6.12,2.52,9.52,4.4,11.28a14.06,14.06,0,0,0,9.72,3.6c6.4,0,9.8-3.16,11.36-5.24A16.81,16.81,0,0,0,163.56,40.85Zm-36.64-6c0,2.2-1,4.24-3.24,4.84a12.82,12.82,0,0,1-3,.2h-7.88V30.21h8.72a8.8,8.8,0,0,1,2.28.2A4.12,4.12,0,0,1,126.64,33,5.76,5.76,0,0,1,126.92,34.85Zm3.72.08c0-1.08-.2-4.76-3.36-6.76-1.88-1.2-3.76-1.2-6-1.2h-12.2V55.21h3.64v-12h8.16a15.44,15.44,0,0,0,4.24-.36C128.84,41.89,130.64,38.53,130.64,34.93Zm-30.72-.08c0,2.2-1,4.24-3.24,4.84a12.82,12.82,0,0,1-3,.2H85.76V30.21h8.72a8.8,8.8,0,0,1,2.28.2A4.12,4.12,0,0,1,99.64,33,5.76,5.76,0,0,1,99.92,34.85Zm3.72.08c0-1.08-.2-4.76-3.36-6.76-1.88-1.2-3.76-1.2-6-1.2H82.12V55.21h3.64v-12h8.16a15.44,15.44,0,0,0,4.24-.36C101.84,41.89,103.64,38.53,103.64,34.93ZM74,45V27H70.2V43.85c0,2.92-.08,6-2.88,7.76a7.52,7.52,0,0,1-4.2,1.12,9.59,9.59,0,0,1-2.44-.28,6.08,6.08,0,0,1-2.36-1.36,6.56,6.56,0,0,1-1.84-3.88,22.49,22.49,0,0,1-.12-3.28V27H52.6V44.45a16.27,16.27,0,0,0,.4,5,9.15,9.15,0,0,0,5.48,5.72,13.07,13.07,0,0,0,4.6.76,12,12,0,0,0,6.56-1.72,9.08,9.08,0,0,0,4.12-5.92A16.74,16.74,0,0,0,74,45ZM45.6,47.09a7.35,7.35,0,0,0-1-3.92c-1.72-2.88-5.16-3.64-6-3.84-.72-.2-1.48-.4-2.2-.56L33.2,38c-1.64-.4-3.84-.84-4.92-2.32a3.53,3.53,0,0,1-.68-2.08,4,4,0,0,1,1-2.56c1.24-1.48,3.68-1.88,5.48-1.88,4.64,0,6.44,2.32,7,4.32a8.19,8.19,0,0,1,.28,1.68l3.8-.24a11.17,11.17,0,0,0-1.32-4,8.3,8.3,0,0,0-2.28-2.52A12,12,0,0,0,34,26.25a11.44,11.44,0,0,0-7.56,2.32,7,7,0,0,0-2.68,5.52,6.49,6.49,0,0,0,3.84,6.08,22.84,22.84,0,0,0,6.2,2l2.44.52a9.38,9.38,0,0,1,3.92,1.48,3.67,3.67,0,0,1,1.44,3.2,5.42,5.42,0,0,1-4.44,5.32,9.54,9.54,0,0,1-2.6.32c-3.32,0-5.2-1.2-6.2-2.24a7.58,7.58,0,0,1-1.92-5.08l-4,.52a10.91,10.91,0,0,0,2,5.68A8.89,8.89,0,0,0,26.6,54a15,15,0,0,0,7.72,2c4.8,0,7.36-1.52,8.92-3A7.91,7.91,0,0,0,45.6,47.09Z"/><path class="cls-1" d="M239.52,57.25V54H218.84v3.28h8.48v25h3.76v-25Zm-28.52,5a4.75,4.75,0,0,1-.88,2.92c-1.44,2-4,1.92-6.08,1.92h-7.52v-10h7.32c1.68,0,3.44-.08,4.92.8A4.81,4.81,0,0,1,211,62.21m5,20L208.08,70a8.91,8.91,0,0,0,2.88-.92c3.6-1.84,3.76-5.68,3.76-6.84a8.18,8.18,0,0,0-1.72-5.4c-1.2-1.44-3-2.68-7-2.84-.88,0-1.8,0-2.68,0H192.84V82.21h3.68v-12h7.28l7.72,12ZM181.64,67.85c0,6.76-3,10-5.76,11.28a10.63,10.63,0,0,1-4.28.84,10.43,10.43,0,0,1-3.84-.64A9.07,9.07,0,0,1,165,77.69a11.33,11.33,0,0,1-1.8-2.12,14.37,14.37,0,0,1-1.88-7.48,14.34,14.34,0,0,1,2.16-7.92c1.08-1.56,3.4-3.84,8-3.88A9.38,9.38,0,0,1,179.44,60a13.58,13.58,0,0,1,2.2,7.84m4.08,0c0-6-2.72-11.32-8.6-13.6a15.59,15.59,0,0,0-5.6-1,14.43,14.43,0,0,0-10.72,4.44c-3.44,3.88-3.52,8.76-3.52,10.36,0,6.12,2.52,9.52,4.4,11.28a14.06,14.06,0,0,0,9.72,3.6c6.4,0,9.8-3.16,11.36-5.24a16.81,16.81,0,0,0,3-9.84m-36.64-6c0,2.2-1,4.24-3.24,4.84a12.82,12.82,0,0,1-3,.2h-7.88V57.21h8.72a8.8,8.8,0,0,1,2.28.2A4.12,4.12,0,0,1,148.8,60a5.76,5.76,0,0,1,.28,1.88m3.72.08c0-1.08-.2-4.76-3.36-6.76-1.88-1.2-3.76-1.2-6-1.2h-12.2V82.21h3.64v-12h8.16a15.44,15.44,0,0,0,4.24-.36c3.68-1,5.48-4.36,5.48-8m-30.72-.08c0,2.2-1,4.24-3.24,4.84a12.82,12.82,0,0,1-3,.2h-7.88V57.21h8.72a8.8,8.8,0,0,1,2.28.2A4.12,4.12,0,0,1,121.8,60a5.76,5.76,0,0,1,.28,1.88m3.72.08c0-1.08-.2-4.76-3.36-6.76-1.88-1.2-3.76-1.2-6-1.2h-12.2V82.21h3.64v-12h8.16a15.44,15.44,0,0,0,4.24-.36c3.68-1,5.48-4.36,5.48-8M96.16,72V54h-3.8V70.85c0,2.92-.08,6-2.88,7.76a7.52,7.52,0,0,1-4.2,1.12,9.59,9.59,0,0,1-2.44-.28,6.08,6.08,0,0,1-2.36-1.36,6.56,6.56,0,0,1-1.84-3.88,22.49,22.49,0,0,1-.12-3.28V54H74.76V71.45a16.27,16.27,0,0,0,.4,5,9.15,9.15,0,0,0,5.48,5.72,13.07,13.07,0,0,0,4.6.76,12,12,0,0,0,6.56-1.72,9.08,9.08,0,0,0,4.12-5.92A16.74,16.74,0,0,0,96.16,72m-28.4,2.08a7.35,7.35,0,0,0-1-3.92c-1.72-2.88-5.16-3.64-6-3.84-.72-.2-1.48-.4-2.2-.56L55.36,65c-1.64-.4-3.84-.84-4.92-2.32a3.53,3.53,0,0,1-.68-2.08,4,4,0,0,1,1-2.56c1.24-1.48,3.68-1.88,5.48-1.88,4.64,0,6.44,2.32,7,4.32a8.19,8.19,0,0,1,.28,1.68l3.8-.24a11.17,11.17,0,0,0-1.32-4,8.3,8.3,0,0,0-2.28-2.52,12,12,0,0,0-7.56-2.12,11.44,11.44,0,0,0-7.56,2.32,7,7,0,0,0-2.68,5.52,6.49,6.49,0,0,0,3.84,6.08,22.84,22.84,0,0,0,6.2,2l2.44.52a9.38,9.38,0,0,1,3.92,1.48,3.67,3.67,0,0,1,1.44,3.2,5.42,5.42,0,0,1-4.44,5.32,9.54,9.54,0,0,1-2.6.32c-3.32,0-5.2-1.2-6.2-2.24a7.58,7.58,0,0,1-1.92-5.08l-4,.52a10.91,10.91,0,0,0,2,5.68A8.89,8.89,0,0,0,48.76,81a15,15,0,0,0,7.72,2c4.8,0,7.36-1.52,8.92-3a7.91,7.91,0,0,0,2.36-5.8"/><path class="cls-2" d="M239.52,57.25V54H218.84v3.28h8.48v25h3.76v-25Zm-28.52,5a4.75,4.75,0,0,1-.88,2.92c-1.44,2-4,1.92-6.08,1.92h-7.52v-10h7.32c1.68,0,3.44-.08,4.92.8A4.81,4.81,0,0,1,211,62.21Zm5,20L208.08,70a8.91,8.91,0,0,0,2.88-.92c3.6-1.84,3.76-5.68,3.76-6.84a8.18,8.18,0,0,0-1.72-5.4c-1.2-1.44-3-2.68-7-2.84-.88,0-1.8,0-2.68,0H192.84V82.21h3.68v-12h7.28l7.72,12ZM181.64,67.85c0,6.76-3,10-5.76,11.28a10.63,10.63,0,0,1-4.28.84,10.43,10.43,0,0,1-3.84-.64A9.07,9.07,0,0,1,165,77.69a11.33,11.33,0,0,1-1.8-2.12,14.37,14.37,0,0,1-1.88-7.48,14.34,14.34,0,0,1,2.16-7.92c1.08-1.56,3.4-3.84,8-3.88A9.38,9.38,0,0,1,179.44,60,13.58,13.58,0,0,1,181.64,67.85Zm4.08,0c0-6-2.72-11.32-8.6-13.6a15.59,15.59,0,0,0-5.6-1,14.43,14.43,0,0,0-10.72,4.44c-3.44,3.88-3.52,8.76-3.52,10.36,0,6.12,2.52,9.52,4.4,11.28a14.06,14.06,0,0,0,9.72,3.6c6.4,0,9.8-3.16,11.36-5.24A16.81,16.81,0,0,0,185.72,67.85Zm-36.64-6c0,2.2-1,4.24-3.24,4.84a12.82,12.82,0,0,1-3,.2h-7.88V57.21h8.72a8.8,8.8,0,0,1,2.28.2A4.12,4.12,0,0,1,148.8,60,5.76,5.76,0,0,1,149.08,61.85Zm3.72.08c0-1.08-.2-4.76-3.36-6.76-1.88-1.2-3.76-1.2-6-1.2h-12.2V82.21h3.64v-12h8.16a15.44,15.44,0,0,0,4.24-.36C151,68.89,152.8,65.53,152.8,61.93Zm-30.72-.08c0,2.2-1,4.24-3.24,4.84a12.82,12.82,0,0,1-3,.2h-7.88V57.21h8.72a8.8,8.8,0,0,1,2.28.2A4.12,4.12,0,0,1,121.8,60,5.76,5.76,0,0,1,122.08,61.85Zm3.72.08c0-1.08-.2-4.76-3.36-6.76-1.88-1.2-3.76-1.2-6-1.2h-12.2V82.21h3.64v-12h8.16a15.44,15.44,0,0,0,4.24-.36C124,68.89,125.8,65.53,125.8,61.93ZM96.16,72V54h-3.8V70.85c0,2.92-.08,6-2.88,7.76a7.52,7.52,0,0,1-4.2,1.12,9.59,9.59,0,0,1-2.44-.28,6.08,6.08,0,0,1-2.36-1.36,6.56,6.56,0,0,1-1.84-3.88,22.49,22.49,0,0,1-.12-3.28V54H74.76V71.45a16.27,16.27,0,0,0,.4,5,9.15,9.15,0,0,0,5.48,5.72,13.07,13.07,0,0,0,4.6.76,12,12,0,0,0,6.56-1.72,9.08,9.08,0,0,0,4.12-5.92A16.74,16.74,0,0,0,96.16,72Zm-28.4,2.08a7.35,7.35,0,0,0-1-3.92c-1.72-2.88-5.16-3.64-6-3.84-.72-.2-1.48-.4-2.2-.56L55.36,65c-1.64-.4-3.84-.84-4.92-2.32a3.53,3.53,0,0,1-.68-2.08,4,4,0,0,1,1-2.56c1.24-1.48,3.68-1.88,5.48-1.88,4.64,0,6.44,2.32,7,4.32a8.19,8.19,0,0,1,.28,1.68l3.8-.24a11.17,11.17,0,0,0-1.32-4,8.3,8.3,0,0,0-2.28-2.52,12,12,0,0,0-7.56-2.12,11.44,11.44,0,0,0-7.56,2.32,7,7,0,0,0-2.68,5.52,6.49,6.49,0,0,0,3.84,6.08,22.84,22.84,0,0,0,6.2,2l2.44.52a9.38,9.38,0,0,1,3.92,1.48,3.67,3.67,0,0,1,1.44,3.2,5.42,5.42,0,0,1-4.44,5.32,9.54,9.54,0,0,1-2.6.32c-3.32,0-5.2-1.2-6.2-2.24a7.58,7.58,0,0,1-1.92-5.08l-4,.52a10.91,10.91,0,0,0,2,5.68A8.89,8.89,0,0,0,48.76,81a15,15,0,0,0,7.72,2c4.8,0,7.36-1.52,8.92-3A7.91,7.91,0,0,0,67.76,74.09Z"/></g></g></svg>